<?xml version="1.0" encoding="UTF-8"?>
<svg version="1.1" xmlns="http://www.w3.org/2000/svg" width="600" height="300">
<path d="M0 0 C2.48378387 2.14974375 3.8193706 3.91960729 4.36817932 7.20217896 C4.52225258 10.00402789 4.54023629 12.77987625 4.51757812 15.5859375 C4.5245874 16.65152893 4.53159668 17.71712036 4.53881836 18.81500244 C4.55641494 22.33526717 4.54476901 25.85472718 4.53125 29.375 C4.53394442 31.82210443 4.53782642 34.26920783 4.54284668 36.71630859 C4.54874401 41.84417924 4.54017079 46.97177113 4.52148438 52.09960938 C4.49869519 58.67388091 4.51181695 65.24749926 4.53577423 71.82174683 C4.55022555 76.8746432 4.54562916 81.92738461 4.53526306 86.98028564 C4.53259396 89.40439939 4.53587194 91.82852718 4.54518127 94.25262451 C4.55533538 97.64014983 4.53986017 101.0266161 4.51757812 104.4140625 C4.52567505 105.41681213 4.53377197 106.41956177 4.54211426 107.45269775 C4.48887986 111.81934402 4.4283581 114.30517149 2.09724426 118.08641052 C-0.03806672 120.03473324 -1.63324118 121.04123367 -4.33203125 122.03515625 C-5.19715332 122.36330322 -6.06227539 122.6914502 -6.95361328 123.02954102 C-7.8970459 123.37041748 -8.84047852 123.71129395 -9.8125 124.0625 C-11.88947797 124.8433377 -13.96629201 125.62461151 -16.04296875 126.40625 C-17.16106934 126.82132812 -18.27916992 127.23640625 -19.43115234 127.6640625 C-23.19053393 129.07132314 -26.93498989 130.51299699 -30.67578125 131.96875 C-31.32692398 132.22211624 -31.97806671 132.47548248 -32.64894104 132.73652649 C-33.97477057 133.2526054 -35.30056082 133.76878522 -36.62631226 134.2850647 C-47.08639711 138.35375389 -57.56711141 142.36756354 -68.06176758 146.34619141 C-72.8337151 148.15986434 -77.58023624 150.02268104 -82.3125 151.9375 C-90.02460717 155.05315706 -97.81534055 157.95163849 -105.61450195 160.84155273 C-109.79576107 162.39611904 -113.94790498 163.94355308 -118.015625 165.77734375 C-121.56794629 167.23267957 -123.36665492 167.15606434 -127 166 C-129.52737004 164.08268479 -129.9716847 163.08494591 -131 160 C-131.09473444 158.54148262 -131.13485715 157.07905751 -131.14044189 155.61747742 C-131.14615204 154.7217099 -131.15186218 153.82594238 -131.15774536 152.9030304 C-131.15886322 151.92271347 -131.15998108 150.94239655 -131.16113281 149.93237305 C-131.16609772 148.89794067 -131.17106262 147.8635083 -131.17617798 146.79772949 C-131.19080597 143.36905252 -131.19760271 139.94042182 -131.203125 136.51171875 C-131.20887595 134.13141376 -131.21463369 131.75110879 -131.22039795 129.37080383 C-131.23090977 124.37651351 -131.23675125 119.38223929 -131.24023438 114.38793945 C-131.24571925 107.98871801 -131.26974658 101.58970933 -131.29820633 95.19055462 C-131.31683095 90.27233763 -131.32203823 85.3541719 -131.32357025 80.43592262 C-131.32659773 78.07681935 -131.33462941 75.717717 -131.34775543 73.3586483 C-131.36481172 70.05753778 -131.36293644 66.75694726 -131.35644531 63.45581055 C-131.3656601 62.48156631 -131.37487488 61.50732208 -131.3843689 60.5035553 C-131.35213914 55.27061933 -131.02197153 51.48313566 -128 47 C-125.26953125 45.41796875 -125.26953125 45.41796875 -121.8125 44.1875 C-121.17465576 43.95232666 -120.53681152 43.71715332 -119.87963867 43.47485352 C-118.42551942 42.94006923 -116.96796704 42.41456326 -115.5078125 41.89648438 C-111.64795959 40.51667714 -107.81449128 39.06761174 -103.97729492 37.6262207 C-101.85865747 36.83044459 -99.73901712 36.03733368 -97.6184082 35.24682617 C-91.81442357 33.07987721 -86.0779594 30.81846918 -80.3828125 28.37890625 C-74.24376125 25.87649853 -68.01579839 23.60282799 -61.80078125 21.296875 C-55.49566777 18.95403622 -49.2328229 16.52875699 -43 14 C-38.76319406 12.28834921 -34.52384952 10.58455123 -30.27490234 8.90332031 C-28.64347232 8.25551058 -27.0137855 7.60330419 -25.38525391 6.94824219 C-22.59477326 5.82851083 -19.79808218 4.72558062 -17 3.625 C-16.11594482 3.26696289 -15.23188965 2.90892578 -14.32104492 2.54003906 C-9.46588114 0.64979393 -5.27803762 -0.91046149 0 0 Z " fill="#29B6F7" transform="translate(439,103)"/>
<path d="M0 0 C1.28970703 -0.03867187 1.28970703 -0.03867187 2.60546875 -0.078125 C11.74056927 0.85652597 20.29174685 4.94528023 28.6875 8.4375 C31.08047819 9.42378623 33.47370964 10.40945822 35.8671875 11.39453125 C37.62820801 12.1208374 37.62820801 12.1208374 39.42480469 12.86181641 C44.20576267 14.8209204 49.00829551 16.72381887 53.8125 18.625 C59.57188862 20.91189925 65.23393286 23.31491409 70.8515625 25.93359375 C74.75500985 27.66903143 78.71674694 29.23838004 82.6875 30.8125 C86.3968952 32.28901317 90.10508141 33.76853074 93.8125 35.25 C95.02711914 35.7351709 96.24173828 36.2203418 97.49316406 36.72021484 C100.7827376 38.03719635 104.06697481 39.36691419 107.34869385 40.70333862 C108.65037917 41.23139605 109.95355449 41.75579641 111.25823975 42.27639771 C113.10310733 43.01320414 114.94229522 43.76418275 116.78125 44.515625 C117.84794922 44.94649414 118.91464844 45.37736328 120.01367188 45.82128906 C122.94109424 47.31564319 124.74879807 48.70136458 126.8125 51.25 C127.375 54.75 127.375 54.75 126.8125 58.25 C123.50153805 61.39252585 120.17809079 63.1478655 115.95703125 64.80859375 C114.21172119 65.50166626 114.21172119 65.50166626 112.43115234 66.20874023 C111.1625348 66.70191721 109.89381449 67.19482993 108.625 67.6875 C107.3039665 68.20782426 105.98317033 68.72875141 104.66259766 69.25024414 C92.95699436 73.85829797 81.20290685 78.34569111 69.43676758 82.79663086 C61.49866526 85.80398107 53.6337425 88.94894264 45.8125 92.25 C40.83020554 94.29372838 35.82062492 96.27058172 30.8125 98.25 C30.03374512 98.5579248 29.25499023 98.86584961 28.45263672 99.18310547 C26.01141063 100.14630042 23.56851897 101.10513825 21.125 102.0625 C20.35849121 102.36462402 19.59198242 102.66674805 18.80224609 102.97802734 C18.0798877 103.25984863 17.3575293 103.54166992 16.61328125 103.83203125 C15.97559814 104.08186768 15.33791504 104.3317041 14.6809082 104.58911133 C3.29385626 108.61691083 -9.329826 106.79625414 -20.1875 102.25 C-21.72680891 101.63537033 -23.26727366 101.02363114 -24.80859375 100.4140625 C-28.25813664 99.04590483 -31.70103588 97.66250824 -35.140625 96.26953125 C-40.79344391 93.99144952 -46.49611308 91.86487729 -52.21875 89.76953125 C-55.45430446 88.55785043 -58.63812266 87.2384232 -61.82421875 85.90234375 C-68.34458226 83.16830963 -74.91524668 80.57436451 -81.5 78 C-83.30803101 77.29037109 -83.30803101 77.29037109 -85.15258789 76.56640625 C-91.07760142 74.24235231 -97.00696609 71.93040369 -102.9453125 69.640625 C-103.99033936 69.23618164 -105.03536621 68.83173828 -106.11206055 68.41503906 C-108.07032994 67.65781829 -110.0300561 66.90435043 -111.99145508 66.15527344 C-123.1243623 61.84470655 -123.1243623 61.84470655 -126.1875 57.25 C-125.85691703 51.07911792 -125.85691703 51.07911792 -123.89556885 48.64985657 C-122.00640213 47.10158032 -120.30887307 46.26712542 -118.04589844 45.35229492 C-117.21362732 45.01151413 -116.3813562 44.67073334 -115.52386475 44.31962585 C-114.62395813 43.96020401 -113.72405151 43.60078217 -112.796875 43.23046875 C-111.86006897 42.84941483 -110.92326294 42.4683609 -109.95806885 42.07575989 C-106.95405322 40.85585562 -103.94588354 39.64658688 -100.9375 38.4375 C-98.95805383 37.6354551 -96.97888404 36.83272772 -95 36.02929688 C-85.4327679 32.14977741 -75.85137266 28.30554197 -66.26098633 24.48364258 C-59.16974959 21.63734666 -52.13630534 18.66207533 -45.125 15.625 C-37.82108246 12.49122457 -30.47688909 9.45682618 -23.125 6.4375 C-21.93447021 5.94491699 -20.74394043 5.45233398 -19.51733398 4.94482422 C-18.38626221 4.48221191 -17.25519043 4.01959961 -16.08984375 3.54296875 C-15.07398193 3.1255542 -14.05812012 2.70813965 -13.01147461 2.27807617 C-8.66996799 0.69753806 -4.60561069 0.08163564 0 0 Z " fill="#FEC006" transform="translate(299.1875,29.75)"/>
<path d="M0 0 C3.38467116 1.26748256 6.72449878 2.61640565 10.06298828 4.00097656 C11.30837519 4.50549552 12.55431661 5.00864763 13.80078125 5.51049805 C16.34900238 6.53875669 18.89405213 7.57430555 21.43652344 8.61669922 C26.86276554 10.83675406 32.30657186 13.01221758 37.75048828 15.18847656 C38.7567627 15.59267822 39.76303711 15.99687988 40.79980469 16.41333008 C49.53123322 19.91355453 58.30565534 23.29752875 67.09863281 26.63989258 C72.14391404 28.56411868 77.15605222 30.53927616 82.13330078 32.63378906 C86.13628235 34.31779298 90.15692461 35.91734672 94.22314453 37.44238281 C95.20863281 37.81427734 96.19412109 38.18617188 97.20947266 38.56933594 C99.22725932 39.32749447 101.24821959 40.07725043 103.27197266 40.81933594 C104.24585938 41.18994141 105.21974609 41.56054688 106.22314453 41.94238281 C107.53037476 42.42880249 107.53037476 42.42880249 108.86401367 42.92504883 C111.47929687 44.31386218 112.61347454 45.59892151 114.12548828 48.12597656 C114.62548828 51.06347656 114.62548828 51.06347656 114.12548828 54.12597656 C110.0908018 59.14473292 105.15618703 61.31558935 99.37548828 63.93847656 C97.31098254 64.89920551 95.24722574 65.86154491 93.18408203 66.82519531 C91.49774658 67.60902588 91.49774658 67.60902588 89.77734375 68.40869141 C85.82243942 70.25889882 81.89663991 72.16727454 77.97314453 74.08300781 C76.92617149 74.59414879 76.92617149 74.59414879 75.85804749 75.11561584 C74.43407647 75.81106253 73.01015194 76.50660442 71.58627319 77.20223999 C61.02114531 82.35985942 50.43458111 87.42328867 39.68115234 92.17944336 C34.78395977 94.35300476 29.96840054 96.64416914 25.18798828 99.06347656 C18.80787725 102.28351458 12.42186848 105.48879254 6.00048828 108.62597656 C4.66642944 109.29487915 4.66642944 109.29487915 3.30541992 109.97729492 C-5.27794338 114.13855393 -5.27794338 114.13855393 -9.87451172 113.12597656 C-12.66395021 111.1020988 -14.58038761 109.48512004 -15.33090019 106.01701164 C-15.50536769 103.35758069 -15.51556831 100.73988634 -15.47387695 98.07495117 C-15.47781967 97.06627487 -15.48176239 96.05759857 -15.48582458 95.01835632 C-15.49253156 91.68783741 -15.4633788 88.35869229 -15.43310547 85.02832031 C-15.42885508 82.71334601 -15.42652676 80.39836744 -15.42604065 78.08338928 C-15.41987538 73.2337002 -15.39717417 68.38447299 -15.36157227 63.53491211 C-15.31627485 57.31491518 -15.30154496 51.09533641 -15.29783535 44.87518978 C-15.29340914 40.09599169 -15.27810983 35.31688157 -15.25895882 30.53772163 C-15.25007279 28.24397061 -15.24334465 25.95021019 -15.23879814 23.65644646 C-15.22976648 20.4533392 -15.20738514 17.25061194 -15.1809082 14.04760742 C-15.18024353 13.09736694 -15.17957886 12.14712646 -15.17889404 11.16809082 C-15.16891891 10.29474594 -15.15894379 9.42140106 -15.14866638 8.52159119 C-15.14401587 7.76484069 -15.13936537 7.00809019 -15.13457394 6.22840786 C-14.83455238 3.80293166 -14.15852734 2.19800625 -12.87451172 0.12597656 C-8.64816101 -1.98719879 -4.36443657 -1.32704968 0 0 Z " fill="#ED324B" transform="translate(171.87451171875,103.8740234375)"/>
<path d="M0 0 C7.82779154 -0.74732894 13.78200512 1.90740341 20.9375 4.875 C22.18288691 5.37951895 23.42882833 5.88267107 24.67529297 6.38452148 C27.2235141 7.41278013 29.76856385 8.44832898 32.31103516 9.49072266 C37.73727726 11.7107775 43.18108358 13.88624102 48.625 16.0625 C49.63127441 16.46670166 50.63754883 16.87090332 51.67431641 17.28735352 C60.40574493 20.78757797 69.18016706 24.17155219 77.97314453 27.51391602 C83.01842576 29.43814212 88.03056394 31.4132996 93.0078125 33.5078125 C97.01079407 35.19181642 101.03143633 36.79137016 105.09765625 38.31640625 C106.08314453 38.68830078 107.06863281 39.06019531 108.08398438 39.44335938 C110.10177104 40.2015179 112.12273131 40.95127386 114.14648438 41.69335938 C115.12037109 42.06396484 116.09425781 42.43457031 117.09765625 42.81640625 C118.40488647 43.30282593 118.40488647 43.30282593 119.73852539 43.79907227 C122.35380859 45.18788561 123.48798626 46.47294495 125 49 C125.5 51.9375 125.5 51.9375 125 55 C120.7270539 60.5042897 114.78093946 62.78674048 108.5625 65.625 C106.5220131 66.57525822 104.48164501 67.52577162 102.44140625 68.4765625 C101.48250488 68.91387695 100.52360352 69.35119141 99.53564453 69.80175781 C96.8534323 71.02544873 96.8534323 71.02544873 93.83984375 72.8359375 C89.80315963 74.49058931 86.29289681 74.85197491 82 74 C79.31623337 72.56484202 77.29197459 70.68120669 75.125 68.5625 C73.90988207 67.44809691 72.69372598 66.3348248 71.4765625 65.22265625 C70.88649414 64.67109863 70.29642578 64.11954102 69.68847656 63.55126953 C67.37612356 61.42682029 64.95040714 59.46249422 62.5 57.5 C57.09923828 53.11287098 51.825323 48.58776588 46.55078125 44.05078125 C31.75796575 30.89084039 31.75796575 30.89084039 16 19 C16 18.34 16 17.68 16 17 C15.42765625 16.731875 14.8553125 16.46375 14.265625 16.1875 C11.92115366 14.95867364 9.87595062 13.57477824 7.75 12 C7.04359375 11.484375 6.3371875 10.96875 5.609375 10.4375 C4.81273437 9.7259375 4.81273437 9.7259375 4 9 C4 8.34 4 7.68 4 7 C3.360625 6.731875 2.72125 6.46375 2.0625 6.1875 C0 5 0 5 -1 2 C-0.67 1.34 -0.34 0.68 0 0 Z " fill="#CA314A" transform="translate(161,103)"/>
<path d="M0 0 C2.52609961 2.14187661 3.8209978 3.90275196 4.36075974 7.21138573 C4.50823563 10.02648489 4.51728628 12.81469296 4.48583984 15.63354492 C4.48963654 16.70395523 4.49343323 17.77436554 4.49734497 18.87721252 C4.50474898 22.41193016 4.48337315 25.9458243 4.4609375 29.48046875 C4.45855341 31.93475752 4.45764768 34.38904814 4.4581604 36.84333801 C4.45503289 41.98380983 4.43846767 47.12400264 4.41162109 52.2644043 C4.37758788 58.865726 4.36999404 65.46674183 4.37151146 72.06814098 C4.37096872 77.13376302 4.36001787 82.19931769 4.34550858 87.26491737 C4.33912892 89.69987796 4.33519897 92.13484619 4.33372116 94.56981468 C4.32940362 97.96488954 4.31193741 101.35963428 4.29052734 104.75463867 C4.29143372 105.76817413 4.29234009 106.78170959 4.29327393 107.82595825 C4.28474396 108.74703873 4.27621399 109.6681192 4.26742554 110.61711121 C4.26407385 111.41995135 4.26072216 112.2227915 4.25726891 113.04996014 C4 115 4 115 2 117 C0.81232646 114.62465291 0.86254062 113.15875924 0.84178162 110.50753784 C0.8319928 109.56240326 0.82220398 108.61726868 0.81211853 107.64349365 C0.80636307 106.60340149 0.8006076 105.56330933 0.79467773 104.49169922 C0.78477814 103.39900726 0.77487854 102.30631531 0.76467896 101.18051147 C0.7329969 97.55525914 0.70828002 93.92999368 0.68359375 90.3046875 C0.66303001 87.79647473 0.6420337 85.28826548 0.62062073 82.78005981 C0.57099567 76.8444346 0.5257459 70.90878617 0.48259836 64.97311127 C0.42839825 57.55365216 0.36743626 50.13425124 0.30664062 42.71484375 C0.19898582 29.47660181 0.09755715 16.23831994 0 3 C-4.29 3 -8.58 3 -13 3 C-8.57917235 0.05278157 -5.27551947 -0.55531784 0 0 Z " fill="#5BCAFE" transform="translate(439,103)"/>
<path d="M0 0 C2.475 0.495 2.475 0.495 5 1 C0.04214205 4.30523863 -4.47082185 4.18245101 -10.3125 4.1875 C-11.41368164 4.20586914 -11.41368164 4.20586914 -12.53710938 4.22460938 C-17.40201004 4.23755942 -21.38368574 3.54283687 -26 2 C-22.32589215 0.82428549 -18.83070817 0.92633254 -15 1 C-15 1.66 -15 2.32 -15 3 C-10.05 2.67 -5.1 2.34 0 2 C0 1.34 0 0.68 0 0 Z " fill="#FED86B" transform="translate(310,132)"/>
<path d="M0 0 C-1.98 0.66 -3.96 1.32 -6 2 C-6 2.66 -6 3.32 -6 4 C-7.74635165 4.53293835 -9.49727652 5.05090663 -11.25 5.5625 C-12.22453125 5.85253906 -13.1990625 6.14257812 -14.203125 6.44140625 C-17.03164137 7.00631944 -18.30742365 6.78911648 -21 6 C-17.87959957 4.80015399 -14.75304469 3.61725823 -11.625 2.4375 C-10.73554688 2.09525391 -9.84609375 1.75300781 -8.9296875 1.40039062 C-7.65351563 0.92182617 -7.65351563 0.92182617 -6.3515625 0.43359375 C-5.17327881 -0.01415405 -5.17327881 -0.01415405 -3.97119141 -0.47094727 C-2 -1 -2 -1 0 0 Z " fill="#88D8FC" transform="translate(401,117)"/>
<path d="M0 0 C1.65 0 3.3 0 5 0 C0.43132449 4.25359444 -5.14722784 6.9359789 -11 9 C-11.66 8.67 -12.32 8.34 -13 8 C-9.63156663 4.07016106 -5.03391715 1.96806099 0 1 C0 0.67 0 0.34 0 0 Z " fill="#F88A98" transform="translate(244,177)"/>
<path d="M0 0 C0 0.66 0 1.32 0 2 C-1.98 2.33 -3.96 2.66 -6 3 C-6 3.66 -6 4.32 -6 5 C-9.82320557 6.42258812 -12.91281305 7.24042276 -17 7 C-15.41962618 3.83925236 -12.23621052 3.45701825 -9.0625 2.375 C-8.41603516 2.14554688 -7.76957031 1.91609375 -7.10351562 1.6796875 C-2.28941127 0 -2.28941127 0 0 0 Z " fill="#89D8FC" transform="translate(367,129)"/>
<path d="M0 0 C0.99 0.66 1.98 1.32 3 2 C-1.68500773 4.6635577 -5.44218144 6.79397408 -11 6 C-11.66 5.34 -12.32 4.68 -13 4 C-10.03 4.495 -10.03 4.495 -7 5 C-7 4.34 -7 3.68 -7 3 C-3.6875 1.375 -3.6875 1.375 0 0 Z " fill="#FB939D" transform="translate(173,211)"/>
<path d="M0 0 C-2.94786676 1.96524451 -5.90972937 3.57472183 -9.0625 5.1875 C-10.12597656 5.73792969 -11.18945312 6.28835937 -12.28515625 6.85546875 C-13.18105469 7.23316406 -14.07695312 7.61085937 -15 8 C-15.66 7.67 -16.32 7.34 -17 7 C-15.35 6.34 -13.7 5.68 -12 5 C-12 4.34 -12 3.68 -12 3 C-7.77050005 0.58314288 -4.87664009 -0.34833144 0 0 Z " fill="#FB959E" transform="translate(225,189)"/>
<path d="M0 0 C-3.7559214 3.42931954 -8.23466745 4.56429083 -13 6 C-11.56924644 2.57894075 -11.10815374 2.05808256 -7.625 0.1875 C-3.0098832 -1.32434861 -3.0098832 -1.32434861 0 0 Z " fill="#FA7E8F" transform="translate(204,199)"/>
<path d="M0 0 C1.65 0.33 3.3 0.66 5 1 C2.05442083 2.96371945 -0.75038726 4.29765337 -4 5.6875 C-5.051875 6.14511719 -6.10375 6.60273438 -7.1875 7.07421875 C-10 8 -10 8 -13 7 C-10.69 6.34 -8.38 5.68 -6 5 C-6 4.34 -6 3.68 -6 3 C-4.02 2.67 -2.04 2.34 0 2 C0 1.34 0 0.68 0 0 Z " fill="#96DCFD" transform="translate(362,249)"/>
<path d="M0 0 C0.99 0.66 1.98 1.32 3 2 C3.5 5.375 3.5 5.375 3 9 C0.5 11.4375 0.5 11.4375 -2 13 C-2.66 12.67 -3.32 12.34 -4 12 C-3.67 11.34 -3.34 10.68 -3 10 C-2.01 10 -1.02 10 0 10 C0 9.01 0 8.02 0 7 C0.66 7 1.32 7 2 7 C1.34 4.69 0.68 2.38 0 0 Z " fill="#FEE6A3" transform="translate(423,79)"/>
<path d="M0 0 C0.66 0.33 1.32 0.66 2 1 C-2.625 5.875 -2.625 5.875 -6 7 C-6.73323796 9.01508358 -6.73323796 9.01508358 -7 11 C-6.38976378 4.53149606 -6.38976378 4.53149606 -4.625 2.125 C-3 1 -3 1 0 0 Z " fill="#FEDF82" transform="translate(180,76)"/>
<path d="M0 0 C1.65 0.33 3.3 0.66 5 1 C2.50742747 2.66171502 0.20483487 3.9387679 -2.5 5.1875 C-3.2734375 5.55230469 -4.046875 5.91710937 -4.84375 6.29296875 C-7 7 -7 7 -10 6 C-8.68 5.67 -7.36 5.34 -6 5 C-6 4.34 -6 3.68 -6 3 C-4.02 2.67 -2.04 2.34 0 2 C0 1.34 0 0.68 0 0 Z " fill="#FEE28F" transform="translate(343,119)"/>
<path d="M0 0 C7.42857143 -0.28571429 7.42857143 -0.28571429 11 2 C11 2.66 11 3.32 11 4 C12.32 4.66 13.64 5.32 15 6 C11.33827525 5.37321829 8.1181005 4.35548154 4.6875 2.9375 C3.36298828 2.39416016 3.36298828 2.39416016 2.01171875 1.83984375 C1.34785156 1.56269531 0.68398437 1.28554687 0 1 C0 0.67 0 0.34 0 0 Z " fill="#FEE498" transform="translate(251,120)"/>
<path d="M0 0 C-2.70188004 1.80125336 -4.93057703 3.00243753 -8 4 C-8.99 3.67 -9.98 3.34 -11 3 C-8.21756596 -1.17365106 -4.53441502 -0.22300402 0 0 Z " fill="#81D5FC" transform="translate(406,235)"/>
<path d="M0 0 C-7.28571429 4.57142857 -7.28571429 4.57142857 -12 4 C-11 2 -11 2 -9.00390625 1.11328125 C-7.79541016 0.71689453 -7.79541016 0.71689453 -6.5625 0.3125 C-5.75941406 0.04050781 -4.95632813 -0.23148437 -4.12890625 -0.51171875 C-2 -1 -2 -1 0 0 Z " fill="#A8E1FB" transform="translate(380,125)"/>
<path d="M0 0 C1.98 0 3.96 0 6 0 C2.79663178 2.83374881 0.21912747 3.5205537 -4 4 C-2.68 3.34 -1.36 2.68 0 2 C0 1.34 0 0.68 0 0 Z " fill="#A0DFFC" transform="translate(389,239)"/>
<path d="M0 0 C1.65 0.33 3.3 0.66 5 1 C2.09907498 2.93395001 1.10325263 3.30131941 -2.1875 3.625 C-3.445625 3.74875 -4.70375 3.8725 -6 4 C-5.34 3.34 -4.68 2.68 -4 2 C-2.68 2 -1.36 2 0 2 C0 1.34 0 0.68 0 0 Z " fill="#FEE08E" transform="translate(310,132)"/>
<path d="M0 0 C4.21912747 0.4794463 6.79663178 1.16625119 10 4 C7.36 3.67 4.72 3.34 2 3 C2 2.34 2 1.68 2 1 C1.34 0.67 0.68 0.34 0 0 Z " fill="#FEE189" transform="translate(373,58)"/>
<path d="M0 0 C4.21912747 0.4794463 6.79663178 1.16625119 10 4 C7.36 3.67 4.72 3.34 2 3 C2 2.34 2 1.68 2 1 C1.34 0.67 0.68 0.34 0 0 Z " fill="#FEE189" transform="translate(356,51)"/>
</svg>
