<?xml version="1.0" encoding="UTF-8"?>
<svg version="1.1" xmlns="http://www.w3.org/2000/svg" width="500" height="500">
<path d="M0 0 C0.67627441 0.33757324 1.35254883 0.67514648 2.04931641 1.02294922 C22.8720167 11.47015935 43.08192629 24.8548371 59 42 C61.44223935 44.46579792 63.90419413 46.90700735 66.39453125 49.32421875 C72.09123243 54.89207693 77.22302055 60.62767257 82 67 C82.38655762 67.51546387 82.77311523 68.03092773 83.17138672 68.56201172 C92.94675376 81.68760371 101.08295205 95.49147056 108.15380859 110.24267578 C108.87517713 111.74077467 109.61712106 113.22893735 110.36328125 114.71484375 C133.60752884 162.64190801 135.6185653 224.56211225 120 275 C119.35033918 276.67336877 118.68803878 278.34204196 118 280 C101.86448285 280.84340467 85.72563792 281.40851659 69.57519913 281.8755722 C67.38453735 281.93903429 65.19390123 282.00333771 63.00326538 282.06768799 C43.9388586 282.62465864 24.87400237 283.0824696 5.8046875 283.43359375 C4.8471073 283.451285 3.88952709 283.46897625 2.90292931 283.4872036 C-1.062216 283.56036792 -5.02736697 283.63322079 -8.99252033 283.70594692 C-57.79753907 284.60138769 -106.5782484 285.97841648 -155.36572266 287.53198242 C-156.04706032 287.55367473 -156.72839799 287.57536704 -157.43038225 287.59771669 C-158.79926125 287.64129901 -160.16814018 287.68488389 -161.53701901 287.72847134 C-162.89511955 287.77171358 -164.25322029 287.81494982 -165.61132121 287.85817999 C-168.95946718 287.9647595 -172.30760961 288.07144663 -175.65574646 288.1783123 C-192.66395073 288.72037779 -209.67243594 289.22791484 -226.68359375 289.66796875 C-228.04896774 289.70347021 -228.04896774 289.70347021 -229.44192505 289.73968887 C-237.63114751 289.95218318 -245.82046115 290.15942777 -254.01018047 290.35187817 C-256.13777556 290.40245328 -258.26531126 290.45499207 -260.39283752 290.50837708 C-262.90261606 290.57098207 -265.41249406 290.62977243 -267.92247009 290.68388367 C-268.98969803 290.71110001 -270.05692596 290.73831635 -271.15649414 290.76635742 C-272.53690636 290.79822395 -272.53690636 290.79822395 -273.94520569 290.83073425 C-275.99192652 290.7763706 -275.99192652 290.7763706 -277 292 C-275.90439255 292.03092239 -274.8087851 292.06184479 -273.67997742 292.09370422 C-260.54065881 292.46471205 -247.40139208 292.83753532 -234.26214218 293.21096802 C-230.67628099 293.31281866 -227.09041451 293.41448125 -223.50454712 293.51611328 C-198.21036541 294.23345268 -172.91664583 294.95941399 -147.625 295.76171875 C-92.40343348 297.50790673 -37.17905699 298.88085132 18.05646992 300.08813858 C62.41164778 301.05769603 62.41164778 301.05769603 77.81451607 301.4643364 C79.27408685 301.50264299 80.73368462 301.53994007 82.19331169 301.57603836 C90.82369576 301.7913755 99.39907606 302.25073518 108 303 C107.43220974 306.64456169 106.93240052 309.65350869 105.13671875 312.890625 C104.75008057 313.59179443 104.36344238 314.29296387 103.96508789 315.01538086 C103.54348389 315.75280518 103.12187988 316.49022949 102.6875 317.25 C102.25107178 318.0241626 101.81464355 318.7983252 101.36499023 319.59594727 C87.98534412 342.950923 87.98534412 342.950923 82 348 C80.11035156 348.3604126 80.11035156 348.3604126 77.890625 348.33691406 C77.01784912 348.3338324 76.14507324 348.33075073 75.24584961 348.32757568 C73.76290405 348.2969101 73.76290405 348.2969101 72.25 348.265625 C71.16404541 348.25404358 70.07809082 348.24246216 68.95922852 348.23052979 C64.97219061 348.17679051 60.98628022 348.09242042 57 348 C56.23153748 347.98266815 55.46307495 347.9653363 54.67132568 347.94747925 C42.07227825 347.6608272 29.47521347 347.30720214 16.87811279 346.94622803 C4.66123491 346.59643917 -7.5561326 346.26415929 -19.7734375 345.9296875 C-21.10814814 345.89306993 -22.44285858 345.85644496 -23.77756882 345.81981277 C-56.14508104 344.93187246 -88.51376287 344.08977902 -120.88315201 343.27324677 C-130.32064799 343.03515267 -139.75806979 342.7945493 -149.19538999 342.54958296 C-155.75565635 342.37960817 -162.31602704 342.21403634 -168.87646365 342.05077028 C-172.90792353 341.95015693 -176.93929631 341.84719983 -180.97055817 341.73892212 C-198.66419835 341.26442286 -216.33981315 340.95094313 -234.04047608 341.0062511 C-239.41654937 341.01889604 -244.79265044 341.00796817 -250.16872585 340.99908412 C-255.29577206 340.99473303 -260.41992098 341.03563282 -265.54638481 341.1107502 C-268.70103628 341.14699768 -271.85468939 341.14236705 -275.00947046 341.12692976 C-276.46794199 341.12855009 -277.92651651 341.14755548 -279.38449621 341.18546343 C-290.39202145 341.46085785 -290.39202145 341.46085785 -294.37968826 337.8380394 C-296.18975119 335.29518771 -297.62492233 332.79766074 -299 330 C-299.79306928 328.6664728 -300.59321536 327.33707434 -301.40625 326.015625 C-302.11093883 324.76420609 -302.80882681 323.50893418 -303.5 322.25 C-304.06726807 321.22386597 -304.06726807 321.22386597 -304.64599609 320.17700195 C-305.77359307 318.12304581 -306.88879855 316.06286395 -308 314 C-308.62132812 312.85402344 -309.24265625 311.70804687 -309.8828125 310.52734375 C-317.07286059 296.74373139 -322.08206754 282.0187411 -326 267 C-326.44859375 265.30617188 -326.44859375 265.30617188 -326.90625 263.578125 C-329 255.47453704 -329 255.47453704 -329 252 C-327.71391846 251.98018066 -326.42783691 251.96036133 -325.1027832 251.93994141 C-300.79672151 251.55720547 -276.50172438 251.06326557 -252.20794678 250.19091797 C-232.38104108 249.48029314 -212.55923544 248.91978769 -192.72265625 248.56640625 C-191.73168756 248.548715 -190.74071888 248.53102375 -189.71972084 248.5127964 C-184.52547302 248.42042143 -179.33120554 248.32918769 -174.13693237 248.23825073 C-131.43307294 247.48934466 -88.74998875 246.37397015 -46.0625 245 C-45.37880451 244.97800506 -44.69510901 244.95601011 -43.99069548 244.93334866 C-32.57704481 244.56606549 -21.1634466 244.19713605 -9.7499218 243.82596207 C13.49838523 243.07001559 36.7479685 242.38038514 60 241.75 C61.5197653 241.70866198 63.03953052 241.66732088 64.55929565 241.62597656 C72.37277024 241.41375868 80.18632953 241.20488762 88 241 C80.78445192 240.17413709 73.61492068 239.77002332 66.35717773 239.56689453 C65.22781705 239.53249079 64.09845636 239.49808704 62.93487263 239.46264076 C59.18453935 239.34930157 55.4340786 239.24101083 51.68359375 239.1328125 C49.00359274 239.05302099 46.32360048 238.97297116 43.64361572 238.89263916 C37.16349117 238.69909872 30.68325555 238.50955892 24.20296729 238.32158756 C18.92235354 238.16837011 13.64178315 238.01372979 8.36123657 237.85821533 C-131.67429494 233.66309527 -131.67429494 233.66309527 -332 230 C-342.23443048 182.1938494 -323.89961873 124.53154616 -298.109375 84.484375 C-290.80677979 73.2914608 -282.98510429 62.9601216 -273.85522461 53.19580078 C-271.7774067 50.97143365 -269.78951624 48.73435229 -267.8984375 46.34765625 C-266.17067336 44.21105903 -264.46948181 42.51471233 -262.375 40.75 C-259.34648645 38.17077143 -256.41142308 35.52296626 -253.5 32.8125 C-236.98453369 18.0037992 -218.02775004 6.42632623 -198 -3 C-197.154375 -3.42410156 -196.30875 -3.84820312 -195.4375 -4.28515625 C-135.93121059 -33.20149376 -58.32475519 -29.53171244 0 0 Z " fill="#F17B17" transform="translate(352,42)"/>
<path d="M0 0 C0 2 0 2 -1.9375 4.0625 C-2.95785901 5.04216093 -3.97878202 6.0212345 -5 7 C-6.50271493 8.49728015 -8.00250208 9.99750209 -9.5 11.5 C-11.81837793 13.81837793 -14.1370317 16.13637917 -16.4609375 18.44921875 C-18.15894949 20.15506772 -19.8412822 21.87666322 -21.5078125 23.61328125 C-25.93257551 28.17673087 -30.43428253 32.61608451 -35.375 36.625 C-36.14585937 37.25664062 -36.91671875 37.88828125 -37.7109375 38.5390625 C-46.55602858 42.46787968 -58.36275934 41.20961746 -67.92822266 41.44897461 C-69.27482585 41.48504352 -70.62142142 41.52139777 -71.96800995 41.5580101 C-75.60557927 41.65608817 -79.2432426 41.75013286 -82.88093805 41.84339881 C-86.76312493 41.94362781 -90.6452118 42.04760128 -94.52731323 42.15107727 C-101.99026407 42.3493815 -109.4533034 42.54412903 -116.91638458 42.73745948 C-122.91279332 42.89285086 -128.90916642 43.04955591 -134.90551758 43.20715332 C-157.22859816 43.79374255 -179.55186846 44.37266044 -201.87530708 44.9454565 C-205.17269322 45.03010449 -208.4700742 45.11495325 -211.76745605 45.19976807 C-224.84102517 45.53569673 -237.91470995 45.86635779 -250.98863983 46.18794632 C-253.46878201 46.24922863 -255.9489011 46.31137789 -258.42901611 46.37374878 C-266.78817922 46.58292493 -275.14691203 46.76757927 -283.50732422 46.92016602 C-286.87816142 46.99721507 -290.24432083 47.12115189 -293.61328125 47.25585938 C-295.58591601 47.31195866 -297.55857103 47.36735245 -299.53125 47.421875 C-300.37780151 47.46934875 -301.22435303 47.51682251 -302.09655762 47.56573486 C-308.85304262 47.69739952 -312.78000421 45.08768618 -318 41 C-319.19591334 40.11883914 -320.39239642 39.23845012 -321.58984375 38.359375 C-322.70988271 37.49493845 -323.8257542 36.62507662 -324.9375 35.75 C-325.82973267 35.04883057 -325.82973267 35.04883057 -326.73999023 34.33349609 C-332.24340436 29.93402257 -337.13654419 25.09836333 -342 20 C-344.41041918 17.57169937 -346.82689212 15.16375069 -349.3125 12.8125 C-351 11 -351 11 -351 9 C-347.19241286 8.89679177 -343.38482486 8.79361524 -339.57723618 8.69046402 C-338.15082666 8.65182022 -336.72441726 8.61317221 -335.29800797 8.57452011 C-326.37601979 8.33277618 -317.45401566 8.09163792 -308.53198242 7.8515625 C-305.04996691 7.75783249 -301.56795208 7.66407732 -298.0859375 7.5703125 C-297.20538759 7.54660835 -296.32483768 7.52290421 -295.41760445 7.49848175 C-284.66835062 7.20897512 -273.91921797 6.91557586 -263.17024231 6.61592102 C-255.71772745 6.40820775 -248.26513351 6.20340805 -240.8125 6 C-239.68026945 5.96904173 -239.68026945 5.96904173 -238.52516556 5.93745804 C-218.82665497 5.39987539 -199.12776437 4.92635719 -179.42578125 4.53515625 C-178.4587175 4.51589836 -177.49165375 4.49664047 -176.49528503 4.47679901 C-171.5393623 4.37815076 -166.58343271 4.27984859 -161.62750244 4.18157959 C-160.6366993 4.16191887 -159.64589615 4.14225815 -158.62506866 4.12200165 C-156.62990701 4.08243075 -154.63474405 4.04292542 -152.63957977 4.00348663 C-117.21460982 3.30150762 -81.80552911 2.28250155 -46.39460087 1.06558132 C-43.52363897 0.96695669 -40.65265264 0.86906968 -37.78166199 0.77128601 C-34.30100561 0.65270746 -30.82049393 0.53075079 -27.34004211 0.40632629 C-18.22085254 0.08800873 -9.12608762 -0.07779045 0 0 Z " fill="#ED8215" transform="translate(430,395)"/>
<path d="M0 0 C14.24906132 -0.1646686 28.4735118 0.29701594 42.71383667 0.74050903 C78.13172624 1.84017518 113.55499783 2.59847398 148.98266602 3.30224609 C152.87256231 3.37969769 156.76245429 3.45736243 160.65234375 3.53515625 C161.59103113 3.55387535 162.52971851 3.57259445 163.49685097 3.5918808 C182.99996415 3.98255426 202.50012515 4.47354651 222 5 C221 8 221 8 219.38378906 9.05566406 C218.68479492 9.37245117 217.98580078 9.68923828 217.265625 10.015625 C216.47534912 10.37615967 215.68507324 10.73669434 214.87084961 11.1081543 C214.00596924 11.48496338 213.14108887 11.86177246 212.25 12.25 C211.34967041 12.64550049 210.44934082 13.04100098 209.52172852 13.44848633 C153.99526089 37.35150123 89.36593694 39.17100086 32.84765625 17.43359375 C21.6356519 12.90533008 10.80561035 7.41147741 0 2 C0 1.34 0 0.68 0 0 Z " fill="#E87F14" transform="translate(134,449)"/>
<path d="M0 0 C0 2 0 2 -2.375 4.5625 C-5 7 -5 7 -7 8 C-6.67 6.35 -6.34 4.7 -6 3 C-12.93 2.67 -19.86 2.34 -27 2 C-27 1.67 -27 1.34 -27 1 C-17.97746114 0.16069406 -9.0598059 -0.12224626 0 0 Z " fill="#6A3A09" transform="translate(430,395)"/>
<path d="M0 0 C5.61 0 11.22 0 17 0 C16.67 0.99 16.34 1.98 16 3 C10.72 2.67 5.44 2.34 0 2 C0 1.34 0 0.68 0 0 Z " fill="#7E450B" transform="translate(339,454)"/>
<path d="M0 0 C5.61 0 11.22 0 17 0 C17 0.33 17 0.66 17 1 C16.28972656 1.04898437 15.57945312 1.09796875 14.84765625 1.1484375 C13.46900391 1.26058594 13.46900391 1.26058594 12.0625 1.375 C11.14597656 1.44460938 10.22945312 1.51421875 9.28515625 1.5859375 C8.15400391 1.79089844 8.15400391 1.79089844 7 2 C6.67 2.66 6.34 3.32 6 4 C4.02 3.34 2.04 2.68 0 2 C0 1.34 0 0.68 0 0 Z " fill="#7C430B" transform="translate(134,449)"/>
<path d="M0 0 C3.94949704 0.62816498 7.19892028 1.8645529 10.8125 3.5625 C12.27623047 4.24505859 12.27623047 4.24505859 13.76953125 4.94140625 C14.87361328 5.46541016 14.87361328 5.46541016 16 6 C16 6.33 16 6.66 16 7 C8.25 6.125 8.25 6.125 6 5 C6 4.34 6 3.68 6 3 C4.02 2.34 2.04 1.68 0 1 C0 0.67 0 0.34 0 0 Z " fill="#9F3C13" transform="translate(332,34)"/>
<path d="M0 0 C1.98 0 3.96 0 6 0 C6 2 6 2 3.625 4.5625 C1 7 1 7 -1 8 C-0.67 5.36 -0.34 2.72 0 0 Z " fill="#A75B0F" transform="translate(424,395)"/>
<path d="M0 0 C1.79323253 0.28187936 3.58457126 0.5758281 5.375 0.875 C6.37273437 1.03742187 7.37046875 1.19984375 8.3984375 1.3671875 C11 2 11 2 13 4 C10.36 4 7.72 4 5 4 C5 3.34 5 2.68 5 2 C3.35 2 1.7 2 0 2 C0 1.34 0 0.68 0 0 Z " fill="#9B3912" transform="translate(286,21)"/>
<path d="M0 0 C5.94 0 11.88 0 18 0 C18 0.33 18 0.66 18 1 C15.56257869 1.16789126 13.12507454 1.33436133 10.6875 1.5 C9.99720703 1.54769531 9.30691406 1.59539062 8.59570312 1.64453125 C5.72337641 1.83879489 2.87986212 2 0 2 C0 1.34 0 0.68 0 0 Z " fill="#B96510" transform="translate(79,404)"/>
</svg>
