<?xml version="1.0" encoding="UTF-8"?>
<svg version="1.1" xmlns="http://www.w3.org/2000/svg" width="512" height="512">
<path d="M0 0 C1.45108658 0.00273422 1.45108658 0.00273422 2.93148804 0.00552368 C17.26440977 0.05095174 31.21023917 0.55983928 45.3125 3.3125 C46.65803955 3.55395752 46.65803955 3.55395752 48.03076172 3.80029297 C107.84088904 14.62287989 165.35495829 48.68064457 202.3125 97.3125 C202.72918945 97.85277832 203.14587891 98.39305664 203.57519531 98.94970703 C211.2584873 108.9447116 218.00092968 119.40459036 224.3125 130.3125 C224.70679199 130.98974121 225.10108398 131.66698242 225.50732422 132.36474609 C238.68961173 155.2833756 247.29510918 180.85822563 252.625 206.6875 C252.77243652 207.39817627 252.91987305 208.10885254 253.07177734 208.84106445 C256.05713787 224.48358366 256.6873098 240.11919606 256.625 256 C256.62226578 257.45108658 256.62226578 257.45108658 256.61947632 258.93148804 C256.57404826 273.26440977 256.06516072 287.21023917 253.3125 301.3125 C253.15152832 302.20952637 252.99055664 303.10655273 252.82470703 304.03076172 C242.00212011 363.84088904 207.94435543 421.35495829 159.3125 458.3125 C158.77222168 458.72918945 158.23194336 459.14587891 157.67529297 459.57519531 C147.6802884 467.2584873 137.22040964 474.00092968 126.3125 480.3125 C125.63525879 480.70679199 124.95801758 481.10108398 124.26025391 481.50732422 C101.3416244 494.68961173 75.76677437 503.29510918 49.9375 508.625 C49.22682373 508.77243652 48.51614746 508.91987305 47.78393555 509.07177734 C32.14141634 512.05713787 16.50580394 512.6873098 0.625 512.625 C-0.34239105 512.62317719 -1.3097821 512.62135437 -2.30648804 512.61947632 C-16.63940977 512.57404826 -30.58523917 512.06516072 -44.6875 509.3125 C-45.58452637 509.15152832 -46.48155273 508.99055664 -47.40576172 508.82470703 C-107.21588904 498.00212011 -164.72995829 463.94435543 -201.6875 415.3125 C-202.10418945 414.77222168 -202.52087891 414.23194336 -202.95019531 413.67529297 C-210.6334873 403.6802884 -217.37592968 393.22040964 -223.6875 382.3125 C-224.08179199 381.63525879 -224.47608398 380.95801758 -224.88232422 380.26025391 C-238.06461173 357.3416244 -246.67010918 331.76677437 -252 305.9375 C-252.14743652 305.22682373 -252.29487305 304.51614746 -252.44677734 303.78393555 C-255.43213787 288.14141634 -256.0623098 272.50580394 -256 256.625 C-255.99817719 255.65760895 -255.99635437 254.6902179 -255.99447632 253.69351196 C-255.94904826 239.36059023 -255.44016072 225.41476083 -252.6875 211.3125 C-252.44604248 209.96696045 -252.44604248 209.96696045 -252.19970703 208.59423828 C-241.37712011 148.78411096 -207.31935543 91.27004171 -158.6875 54.3125 C-158.14722168 53.89581055 -157.60694336 53.47912109 -157.05029297 53.04980469 C-147.0552884 45.3665127 -136.59540964 38.62407032 -125.6875 32.3125 C-125.01025879 31.91820801 -124.33301758 31.52391602 -123.63525391 31.11767578 C-100.7166244 17.93538827 -75.14177437 9.32989082 -49.3125 4 C-48.60182373 3.85256348 -47.89114746 3.70512695 -47.15893555 3.55322266 C-31.51641634 0.56786213 -15.88080394 -0.0623098 0 0 Z M1.55322266 94.89477539 C-0.01791667 96.4596384 -1.58924137 98.0243153 -3.16073608 99.58882141 C-8.28518008 104.69238438 -13.4044322 109.80113913 -18.5234375 114.91015625 C-20.29213903 116.67480606 -22.06087318 118.43942317 -23.82963943 120.2040081 C-31.6571461 128.01359491 -39.48288602 135.82494532 -47.30537049 143.63956275 C-48.73075408 145.06350806 -50.15614423 146.4874468 -51.58154297 147.91137695 C-52.28923413 148.6183425 -52.28923413 148.6183425 -53.01122208 149.33959018 C-60.67034272 156.99039323 -68.3379563 164.63262567 -76.00910918 172.27136249 C-83.90442882 180.13359212 -91.79201959 188.00352246 -99.67257655 195.88055223 C-104.08980327 200.29542946 -108.51026865 204.7069444 -112.93888474 209.11039925 C-117.0993024 213.24755402 -121.25011493 217.39410863 -125.39377213 221.54804802 C-126.91407595 223.06884751 -128.43779738 224.58623948 -129.9651947 226.09991455 C-132.05271379 228.16972535 -134.12746398 230.25156706 -136.19955444 232.33680725 C-136.80363361 232.92991717 -137.40771277 233.52302709 -138.03009737 234.13411003 C-144.87214377 241.08115843 -147.79534354 248.22170385 -148 257.9375 C-147.90017124 267.56099261 -145.3074737 274.48794442 -138.671875 281.4921875 C-130.4435949 289.04017672 -122.23819238 291.59918996 -111.25195312 291.63134766 C-110.45099213 291.64139328 -109.65003113 291.6514389 -108.82479858 291.66178894 C-106.2061223 291.69241022 -103.58754724 291.70959687 -100.96875 291.7265625 C-99.1417149 291.74529113 -97.3146883 291.76486579 -95.4876709 291.7852478 C-90.70053128 291.83639596 -85.91336368 291.87611397 -81.12609863 291.91339111 C-76.23243382 291.95353978 -71.3388837 292.00458238 -66.4453125 292.0546875 C-56.85945577 292.15124155 -47.27353402 292.23571151 -37.6875 292.3125 C-38.29223145 292.90675781 -38.89696289 293.50101563 -39.52001953 294.11328125 C-41.79421357 296.35307718 -44.06363232 298.59758084 -46.33007812 300.84521484 C-47.30577386 301.81094794 -48.28326846 302.77486754 -49.26269531 303.73681641 C-59.32137178 313.6206488 -68.55223189 322.96840178 -69.1875 337.8125 C-68.27918517 357.16235841 -50.35616855 369.8436332 -37.66015625 382.61328125 C-36.79828642 383.48047476 -35.93641659 384.34766827 -35.04842949 385.24114037 C-30.49487776 389.8212638 -25.93776384 394.39781207 -21.37817383 398.97192383 C-17.62079177 402.74268694 -13.87086506 406.52056738 -10.12719727 410.30493164 C-5.58272835 414.8987743 -1.02605458 419.48016752 3.53961372 424.05293846 C5.26892887 425.78894704 6.99400232 427.52919225 8.71461296 429.27382851 C11.12350446 431.71445637 13.54782262 434.13871358 15.97631836 436.55981445 C16.67428528 437.27418671 17.3722522 437.98855896 18.09136963 438.72457886 C25.22435771 445.76951522 33.30954504 450.33307137 43.5 450.5625 C53.58484193 450.39497771 60.80638054 446.51272394 68 439.71875 C74.1064881 433.24587262 76.5248589 426.14308178 76.8125 417.3125 C76.26757155 401.10527317 65.60225718 392.44209147 54.72644043 381.77353668 C52.35959739 379.44923214 50.00246751 377.11517615 47.6446228 374.78174973 C43.26993042 370.45262175 38.89122142 366.12773387 34.49658203 361.81884766 C31.42386892 358.80535726 28.36336574 355.77993783 25.31069946 352.74614716 C24.14772622 351.59493357 22.98022654 350.44827429 21.80819702 349.30628204 C20.17820888 347.71709239 18.56422236 346.113188 16.953125 344.50488281 C16.03047852 343.59635559 15.10783203 342.68782837 14.15722656 341.75177002 C12.3125 339.3125 12.3125 339.3125 12.19329834 337.3344574 C13.84812499 334.34483622 16.14617494 332.12209599 18.57910156 329.76879883 C19.12716965 329.22671783 19.67523773 328.68463684 20.23991394 328.12612915 C21.43053199 326.95026795 22.62456175 325.77785358 23.82157135 324.60849953 C25.72078616 322.75226981 27.60998043 320.88635971 29.49676514 319.01750183 C34.86324463 313.70601226 40.24912319 308.41431566 45.63720703 303.12475586 C48.93419608 299.88670707 52.22115261 296.63873043 55.50267792 293.38501549 C57.35441612 291.55530932 59.21750171 289.73771661 61.08111572 287.92012024 C70.04377969 279.08948205 76.35166965 271.66349883 76.625 258.6875 C76.52514026 249.06102097 73.92925542 242.14451751 67.30078125 235.1328125 C59.34451449 227.84868615 51.51890462 224.98413943 40.80688477 225.08544922 C39.98656265 225.08515717 39.16624054 225.08486511 38.32106018 225.08456421 C35.63189816 225.08594836 32.94301938 225.10146616 30.25390625 225.1171875 C28.38061169 225.12092089 26.50731516 225.12376632 24.63401794 225.12576294 C19.72016951 225.13337376 14.8064406 225.15300022 9.89263916 225.1751709 C4.87180193 225.19568442 -0.14905475 225.20477641 -5.16992188 225.21484375 C-15.0091669 225.23624861 -24.84832348 225.2703536 -34.6875 225.3125 C-29.38332973 219.03791804 -23.70792079 213.21836004 -17.8684082 207.44335938 C-16.89825756 206.48005532 -15.92836548 205.5164908 -14.95870972 204.5526886 C-12.88552588 202.49273815 -10.81091424 200.43424063 -8.73525429 198.37678528 C-5.44880466 195.11839005 -2.16795441 191.85439546 1.11177063 188.5892334 C2.23889123 187.46725519 3.36601893 186.34528411 4.49315357 185.22332001 C5.057174 184.66188514 5.62119443 184.10045027 6.20230639 183.52200222 C13.82758209 175.93266327 21.45764951 168.3481898 29.09790039 160.77392578 C34.26826119 155.64813024 39.43141074 150.51518722 44.58657581 145.37410784 C47.30873195 142.65999944 50.03444407 139.9496923 52.76914024 137.24821472 C55.33954509 134.70898635 57.90038627 132.16048829 60.45438004 129.60475731 C61.83282111 128.23027137 63.22119663 126.86577068 64.60990906 125.50166321 C73.13649763 116.93335182 76.65964678 109.46176637 76.76782227 97.31054688 C76.55910374 88.67936102 72.77831555 81.68819294 67.0625 75.375 C59.7108044 68.67824387 51.07621279 65.89107107 41.3125 66.046875 C24.40405133 67.54397723 12.83017972 83.63776303 1.55322266 94.89477539 Z " fill="#0A0B09" transform="translate(255.6875,-0.3125)"/>
</svg>
