<?xml version="1.0" encoding="UTF-8"?>
<svg version="1.1" xmlns="http://www.w3.org/2000/svg" width="640" height="640">
<path d="M0 0 C2.74101052 1.18950995 5.39066652 2.49202462 8.04877281 3.85679245 C9.05657295 4.35434036 10.06437309 4.85188828 11.10271263 5.3645134 C14.41090136 7.00431994 17.70379578 8.67251132 20.99677086 10.34263229 C23.30153423 11.49545547 25.60698055 12.64691417 27.9130764 13.79706955 C32.73493849 16.20739912 37.54980194 18.63092537 42.35931969 21.06577682 C47.90698387 23.87410631 53.46632113 26.65812253 59.03267604 29.42919886 C64.40643425 32.10496704 69.77199471 34.79669842 75.13405991 37.49584198 C77.40831839 38.63906973 79.68449464 39.77849076 81.96261597 40.91400146 C85.14559063 42.5036594 88.31886757 44.11120702 91.49017906 45.72397995 C92.89836403 46.42098007 92.89836403 46.42098007 94.33499718 47.132061 C100.24731296 50.1702567 104.39690178 53.08039414 107.44598961 59.17856979 C109.44113496 69.79037809 104.18739242 78.18529707 99.52655602 87.28208542 C98.67391185 88.98590604 97.82320433 90.69069698 96.9742794 92.39637375 C94.6710453 97.01024863 92.34091571 101.61005026 90.00554514 106.20772362 C87.55490212 111.04364225 85.12910937 115.89199668 82.70047569 120.7389946 C78.09065856 129.9296193 73.45821746 139.10864588 68.81773984 148.28382063 C63.57443468 158.65394629 58.35826082 169.03763252 53.14358068 179.4221735 C45.42474278 194.79063618 37.69646763 210.1543885 29.94039345 225.50409698 C29.1087524 227.15033828 28.27761834 228.79683583 27.44708061 230.44363403 C23.18280599 238.89712728 18.86331273 247.31607446 14.4352932 255.6850853 C9.61890169 264.7933377 4.98762973 273.98600565 0.40375328 283.21299362 C-0.44653528 284.92042747 -1.29703639 286.6277555 -2.14772987 288.33498764 C-3.95640467 291.96550447 -5.76390638 295.59660189 -7.57052994 299.22813988 C-10.42998252 304.97522186 -13.29399847 310.72002219 -16.15891457 316.46438217 C-17.14492936 318.44155291 -18.13093796 320.41872674 -19.1169405 322.39590359 C-19.61002402 323.38465618 -20.10310754 324.37340878 -20.61113298 325.39212358 C-27.26464039 338.7350442 -33.91415861 352.07994257 -40.55571938 365.42881393 C-45.05933095 374.48052945 -49.56863281 383.5293854 -54.08440417 392.575041 C-56.4669348 397.34816095 -58.84648365 402.12271607 -61.21896744 406.90083885 C-63.44395998 411.38187942 -65.67635984 415.85914936 -67.91448021 420.33364677 C-68.73277676 421.97293302 -69.54833251 423.61359078 -70.36090469 425.25572205 C-71.472264 427.5006578 -72.59346291 429.74040994 -73.71717262 431.9791832 C-74.03429972 432.62577088 -74.35142682 433.27235856 -74.67816383 433.9385398 C-77.48646816 439.48790249 -80.40804882 443.98636892 -85.92901039 447.05356979 C-93.90400996 449.52856966 -98.9497939 447.50932667 -106.05401039 443.92856979 C-107.03265053 443.44823288 -108.01129066 442.96789597 -109.01958656 442.47300339 C-120.35524632 436.86722223 -131.58836795 431.04857681 -142.82305336 425.24375534 C-151.9207231 420.54795524 -161.04724525 415.92127892 -170.22979164 411.39341354 C-171.19055107 410.91847458 -172.1513105 410.44353561 -173.14118385 409.95420456 C-177.80861526 407.64736004 -182.48048408 405.35047722 -187.16069984 403.06968307 C-188.85713281 402.2327372 -190.55335168 401.39535721 -192.24932289 400.55747604 C-193.0183947 400.1874295 -193.78746651 399.81738297 -194.57984352 399.43612289 C-200.18965267 396.64520231 -205.32661358 393.34832933 -207.55401039 387.17856979 C-208.80394231 379.39330407 -206.4574126 373.68878789 -202.99151039 366.86606979 C-202.51786899 365.92781546 -202.04422758 364.98956112 -201.55623341 364.02287483 C-198.2916711 357.57324084 -194.98665055 351.1464645 -191.64773273 344.73504829 C-182.02470676 326.24008434 -172.70500913 307.59638669 -163.40037322 288.93975782 C-161.11933753 284.36749616 -158.83556131 279.79660377 -156.55201149 275.22559738 C-150.77942468 263.66946247 -145.01028165 252.11160977 -139.24151039 240.55356979 C-132.99061903 228.02962506 -126.73907055 215.50601052 -120.48360854 202.98434794 C-118.22425044 198.46150985 -115.96573577 193.93825494 -113.70928955 189.41396332 C-97.60889855 157.13249115 -97.60889855 157.13249115 -91.18616581 145.09324455 C-85.44461882 134.28247551 -80.08135304 123.27330845 -74.64236641 112.30818558 C-72.52659165 108.04342842 -70.40565294 103.78125196 -68.28368568 99.51957321 C-67.55138851 98.0487219 -66.81909252 96.57787 -66.08679771 95.10701752 C-65.72077493 94.37185583 -65.35475215 93.63669414 -64.97763777 92.87925482 C-60.05485874 82.99095919 -55.13602332 73.10072781 -50.2283268 63.20493698 C-46.89269528 56.47913141 -43.54991639 49.75693123 -40.19898009 43.03873706 C-38.43408156 39.49960696 -36.67284911 35.95875968 -34.9204731 32.41341019 C-33.27754433 29.08957346 -31.62524808 25.77056389 -29.9658165 22.45493698 C-29.07525489 20.66945745 -28.19465282 18.87902096 -27.31443214 17.08842087 C-21.31513913 5.15006074 -14.83625619 -4.77169123 0 0 Z " fill="#D118F2" transform="translate(207.55401039123535,99.82143020629883)"/>
<path d="M0 0 C1.52034851 -0.01073296 1.52034851 -0.01073296 3.07141113 -0.02168274 C4.1826384 -0.02437164 5.29386566 -0.02706055 6.43876648 -0.02983093 C8.19524002 -0.03968773 8.19524002 -0.03968773 9.98719788 -0.04974365 C13.87038013 -0.06948851 17.75354887 -0.08114317 21.63676453 -0.09111023 C22.97484546 -0.09515868 24.31292619 -0.09927563 25.6510067 -0.10346031 C31.93756712 -0.12250578 38.22411585 -0.13673849 44.51069957 -0.14507228 C51.76216215 -0.15484453 59.01331946 -0.18116602 66.26467448 -0.22157317 C71.87327751 -0.25175159 77.48179311 -0.26654275 83.09047574 -0.26985329 C86.43872278 -0.27220178 89.78638459 -0.28311198 93.13459206 -0.30631447 C96.87164887 -0.33060465 100.60790525 -0.32975895 104.34501648 -0.32279968 C105.45017105 -0.33560974 106.55532562 -0.3484198 107.69396973 -0.36161804 C113.63775684 -0.32123492 117.53827176 -0.09226875 122.08598328 4.14717102 C125.69072216 8.70794421 126.58640484 11.67479735 126.58934784 17.45922852 C126.5951616 18.1768477 126.60097537 18.89446688 126.6069653 19.6338321 C126.62156706 22.03925568 126.60768002 24.44365912 126.59391785 26.84907532 C126.59852671 28.59064855 126.60487953 30.3322179 126.61282682 32.07377911 C126.62954532 36.86020919 126.62126232 41.64632081 126.60888195 46.43275213 C126.59984411 51.59438595 126.6137949 56.75596441 126.62480164 61.91758728 C126.64260496 72.02948339 126.63873878 82.14126087 126.62715107 92.25316167 C126.61812416 100.46998778 126.61688954 108.68678059 126.62124634 116.90361023 C126.62185927 118.0722674 126.6224722 119.24092456 126.62310371 120.44499558 C126.62438259 122.818966 126.62567944 125.19293641 126.62699407 127.56690681 C126.63840519 149.83709016 126.62527782 172.10720769 126.60379261 194.37738025 C126.58592116 213.49371066 126.58902512 232.60994392 126.60746765 251.72627258 C126.62886497 273.915783 126.6373065 296.10523569 126.6250186 318.29475498 C126.62374438 320.66008058 126.62248689 323.02540619 126.62124634 325.39073181 C126.62032068 327.13649231 126.62032068 327.13649231 126.61937633 328.9175207 C126.61592002 337.12619547 126.62175784 345.3348337 126.63116455 353.54350281 C126.64237325 363.54467983 126.63936823 373.54573124 126.61804157 383.54689384 C126.607516 388.65142084 126.60343505 393.75573829 126.61663818 398.86026382 C126.62853662 403.53095281 126.62204165 408.20123752 126.60072798 412.87188971 C126.59625109 414.5635919 126.59855247 416.25532807 126.60823113 417.94700849 C126.62036478 420.24353166 126.60795244 422.5386634 126.58934784 424.83511353 C126.58869843 426.1115186 126.58804902 427.38792368 126.58737993 428.7030077 C125.83051412 433.90202419 123.37662422 436.95332814 119.58598328 440.45967102 C115.83511893 442.99150446 112.68046954 443.27186769 108.21702576 443.29434204 C107.23863235 443.30149734 106.26023895 443.30865265 105.25219727 443.31602478 C104.18511032 443.31871368 103.11802338 443.32140259 102.01860046 443.32417297 C100.88969894 443.33074417 99.76079742 443.33731537 98.59768677 443.34408569 C94.85940993 443.36380664 91.12117323 443.37547826 87.38285828 443.38545227 C85.46712383 443.39156556 85.46712383 443.39156556 83.51268768 443.39780235 C77.45037475 443.41650781 71.3880861 443.43107516 65.32575202 443.43941432 C58.34202646 443.44918118 51.3586183 443.47549111 44.37500453 443.51591522 C38.3148331 443.54978297 32.25481509 443.5615649 26.19454193 443.56561852 C23.62216793 443.57048797 21.04979742 443.58211206 18.47748566 443.60065651 C14.87504844 443.62501454 11.27343864 443.62408848 7.67094421 443.61714172 C6.08245918 443.63635681 6.08245918 443.63635681 4.46188354 443.65596008 C-1.77982605 443.61216652 -6.77018717 442.89401983 -11.91401672 439.14717102 C-16.50625932 433.49518013 -17.03837092 429.31689336 -17.04544449 422.1961174 C-17.04852344 421.14177687 -17.04852344 421.14177687 -17.05166459 420.06613654 C-17.0573415 417.69906724 -17.05587649 415.332056 -17.05445862 412.96498108 C-17.05704186 411.25543757 -17.0600549 409.54589466 -17.06346202 407.83635259 C-17.07154009 403.12917874 -17.07332204 398.42202013 -17.07405949 393.71484017 C-17.07590863 388.64176794 -17.08345525 383.56870364 -17.0901947 378.49563599 C-17.10378412 367.39858325 -17.10980364 356.30153412 -17.11420536 345.20447445 C-17.11696666 338.27752798 -17.1212038 331.35058291 -17.12570953 324.42363739 C-17.13790282 305.2508592 -17.14820213 286.07808213 -17.15158463 266.90530014 C-17.15180419 265.67789445 -17.15202376 264.45048876 -17.15224998 263.18588896 C-17.15246825 261.95552162 -17.15268653 260.72515428 -17.15291142 259.45750308 C-17.15335489 256.96424786 -17.15380146 254.47099264 -17.1542511 251.97773743 C-17.15447253 250.74099279 -17.15469396 249.50424815 -17.1549221 248.23002639 C-17.15887089 228.18620315 -17.17632712 208.14241624 -17.19961062 188.09860703 C-17.22331387 167.52769458 -17.235786 146.95680037 -17.23695254 126.38587403 C-17.23786986 114.83291537 -17.24363653 103.28000405 -17.26177216 91.72705841 C-17.27715925 81.89024349 -17.28230181 72.05349056 -17.27403405 62.21666589 C-17.27012268 57.1969898 -17.27108098 52.17743858 -17.2850914 47.15777779 C-17.2978009 42.56222871 -17.29665877 37.96689872 -17.28450069 33.37135008 C-17.28253857 31.70915587 -17.28564581 30.0469463 -17.29434505 28.3847737 C-17.38490587 9.91108633 -17.38490587 9.91108633 -12.49748349 4.61104846 C-8.458992 1.03695965 -5.25797261 0.02548361 0 0 Z " fill="#7706D0" transform="translate(513.9140167236328,101.85282897949219)"/>
<path d="M0 0 C1.04330978 0.20975967 2.08661957 0.41951935 3.1615448 0.63563538 C6.59232562 1.32763758 10.02066285 2.03098299 13.44897461 2.73510742 C15.84206346 3.22163122 18.23524839 3.70768267 20.62852478 4.19328308 C25.63686309 5.21135144 30.64401367 6.23502665 35.65039062 7.26269531 C42.05948313 8.57784797 48.47128818 9.87918269 54.88404179 11.17635059 C59.82400976 12.17716197 64.76248006 13.18520738 69.7005291 14.19544029 C72.06391977 14.67805931 74.42776492 15.15845835 76.79207039 15.6365757 C80.09860722 16.30638347 83.40300623 16.98589373 86.70703125 17.66796875 C87.67917572 17.86289917 88.65132019 18.05782959 89.65292358 18.25866699 C103.8817433 21.22803819 103.8817433 21.22803819 108.3604002 27.18107414 C111.6578225 33.74099072 110.1760935 41.76211033 108.73876953 48.63305664 C108.5586819 49.55202508 108.37859426 50.47099352 108.19304943 51.41780949 C107.58616219 54.49648596 106.9589044 57.57064937 106.33178711 60.64526367 C105.88476313 62.89163832 105.4390539 65.13827493 104.99453735 67.38514709 C104.02198785 72.28661744 103.04038042 77.18615785 102.0519104 82.08444214 C100.58143886 89.37198222 99.12700137 96.66263137 97.67730701 103.95432937 C95.80304154 113.38109666 93.92552228 122.80720794 92.04017639 132.23176575 C87.28097271 156.02342074 82.560955 179.82267398 77.85913086 203.62573242 C77.68018736 204.53161338 77.50124387 205.43749434 77.31687784 206.37082624 C75.67765506 214.6694127 74.03866768 222.96804564 72.40003395 231.26674843 C70.0216968 243.31081534 67.63969706 255.35415312 65.25527978 267.39701772 C58.90915844 299.45019163 52.56673327 331.50382094 46.33342934 363.57915688 C45.57000387 367.50739717 44.80527017 371.43538159 44.04032898 375.36332703 C43.55567093 377.85256498 43.07103604 380.34180743 42.58642578 382.83105469 C42.35427966 384.02345229 42.12213354 385.2158499 41.88295269 386.44438076 C40.55102854 393.2907338 39.22724587 400.1385974 37.90988731 406.98776722 C37.12118601 411.07964291 36.32557991 415.17015306 35.52805328 419.26031685 C35.16904436 421.10995278 34.81312108 422.96019091 34.46062469 424.81107903 C33.98760235 427.29373259 33.50393999 429.77408122 33.01757812 432.25415039 C32.88532743 432.9633258 32.75307673 433.6725012 32.61681843 434.40316677 C31.07784437 442.11629173 28.44357604 446.44474598 22.28881836 451.02807617 C15.59070038 454.37713516 5.61880338 451.60532918 -1.37988281 450.14794922 C-2.3830101 449.94794312 -3.38613739 449.74793701 -4.41966248 449.54187012 C-7.7000281 448.88495256 -10.97704961 448.21279428 -14.25415039 447.53979492 C-16.55081969 447.07541537 -18.84764147 446.61178935 -21.14460754 446.14888 C-25.94284333 445.17950681 -30.73952648 444.20288562 -35.53515625 443.22070312 C-41.66916651 441.96474825 -47.80616132 440.72417254 -53.94431591 439.48865032 C-58.68178941 438.53380113 -63.41788151 437.57224496 -68.15355873 436.60853004 C-70.41574408 436.1487248 -72.67828274 435.69065413 -74.94118309 435.23438072 C-78.1057287 434.59496179 -81.26837733 433.94687269 -84.43066406 433.29638672 C-85.35709717 433.11080704 -86.28353027 432.92522736 -87.23803711 432.73402405 C-95.18563551 431.08251889 -102.31146713 429.53949661 -107.71118164 423.02807617 C-112.60408436 414.57736104 -108.67112865 403.54512862 -106.85083008 394.55273438 C-106.54026556 392.98592319 -106.23046229 391.41896095 -105.92135334 389.85186195 C-105.07563846 385.57559316 -104.21933506 381.30150485 -103.36125302 377.02770305 C-102.4439491 372.44904898 -101.53667467 367.86840761 -100.62828064 363.28797913 C-99.0656399 355.41541157 -97.49698492 347.54406268 -95.92416382 339.67352295 C-93.44847817 327.28446453 -90.98477299 314.89303994 -88.52294922 302.5012207 C-87.69223642 298.32047921 -86.86142618 294.13975709 -86.03056335 289.95904541 C-85.82451141 288.92221477 -85.61845946 287.88538413 -85.40616351 286.81713438 C-83.94002404 279.44061243 -82.47216813 272.06443326 -81.00349426 264.68841553 C-74.30608236 231.05075539 -67.65348715 197.40441737 -61.02777195 163.75256824 C-59.14614577 154.19595282 -57.26220895 144.63979628 -55.37626898 135.08403122 C-50.66988315 111.23692372 -45.9668912 87.3892749 -41.3281765 63.5288887 C-40.25352533 58.00502342 -39.17488932 52.48193464 -38.09618092 46.9588604 C-37.15835804 42.1537149 -36.22809127 37.34719996 -35.3047123 32.53925896 C-34.89373771 30.40614085 -34.47889532 28.27382147 -34.06219482 26.14181519 C-33.57585611 23.65316566 -33.09570164 21.16329434 -32.62359619 18.67190552 C-30.90728529 9.97375068 -28.97416672 4.32400279 -21.71118164 -0.97192383 C-14.52442832 -3.36750827 -7.20643974 -1.49313122 0 0 Z " fill="#9227DB" transform="translate(371.711181640625,97.971923828125)"/>
</svg>
