<?xml version="1.0" encoding="UTF-8"?>
<svg version="1.1" xmlns="http://www.w3.org/2000/svg" width="150" height="150">
<path d="M0 0 C1.26263672 -0.01998047 2.52527344 -0.03996094 3.82617188 -0.06054688 C15.39688118 -0.05444096 15.39688118 -0.05444096 20.0625 4.4375 C24.56846444 9.22304647 23.54749089 15.00598326 23.50854492 21.22705078 C23.50005319 23.29951931 23.52877683 25.36921112 23.56054688 27.44140625 C23.55990234 28.75753906 23.55925781 30.07367188 23.55859375 31.4296875 C23.56137329 33.22962158 23.56137329 33.22962158 23.56420898 35.06591797 C22.95751467 39.14302187 21.67402619 41.27516562 19.0625 44.4375 C14.3890813 47.89233569 7.8165258 46.8479766 2.27294922 46.86303711 C0.2002918 46.87492662 -1.86937729 46.92412614 -3.94140625 46.97460938 C-15.12833242 47.03487195 -15.12833242 47.03487195 -18.7578125 44.16015625 C-23.97373295 37.64492946 -23.3042899 31.68229064 -23.3125 23.5625 C-23.33699219 22.29535156 -23.36148438 21.02820313 -23.38671875 19.72265625 C-23.42384238 7.95446588 -23.42384238 7.95446588 -18.9375 3.4375 C-13.0283661 -0.82245361 -7.02747602 -0.03933956 0 0 Z " fill="#197770" transform="translate(99.9375,76.5625)"/>
<path d="M0 0 C1.26714844 -0.02449219 2.53429687 -0.04898438 3.83984375 -0.07421875 C15.60803412 -0.11134238 15.60803412 -0.11134238 20.125 4.375 C24.38495361 10.2841339 23.60183956 16.28502398 23.5625 23.3125 C23.5924707 25.20645508 23.5924707 25.20645508 23.62304688 27.13867188 C23.61694096 38.70938118 23.61694096 38.70938118 19.125 43.375 C14.33945353 47.88096444 8.55651674 46.85999089 2.33544922 46.82104492 C0.26298069 46.81255319 -1.80671112 46.84127683 -3.87890625 46.87304688 C-5.19503906 46.87240234 -6.51117188 46.87175781 -7.8671875 46.87109375 C-9.06714355 46.87294678 -10.26709961 46.8747998 -11.50341797 46.87670898 C-15.58052187 46.27001467 -17.71266562 44.98652619 -20.875 42.375 C-24.32983569 37.7015813 -23.2854766 31.1290258 -23.30053711 25.58544922 C-23.31242662 23.5127918 -23.36162614 21.44312271 -23.41210938 19.37109375 C-23.47237195 8.18416758 -23.47237195 8.18416758 -20.59765625 4.5546875 C-14.08242946 -0.66123295 -8.11979064 0.0082101 0 0 Z " fill="#197770" transform="translate(49.875,76.625)"/>
<path d="M0 0 C4.10490988 2.05245494 6.37549673 3.72624345 8 8 C8.41912175 12.25800979 8.41391692 16.512309 8.42553711 20.78955078 C8.43742662 22.8622082 8.48662614 24.93187729 8.53710938 27.00390625 C8.59737195 38.19083242 8.59737195 38.19083242 5.72265625 41.8203125 C-0.79257054 47.03623295 -6.75520936 46.3667899 -14.875 46.375 C-16.14214844 46.39949219 -17.40929687 46.42398438 -18.71484375 46.44921875 C-30.26605844 46.48565791 -30.26605844 46.48565791 -35 42 C-37.85457586 38.57450897 -38.35683824 35.69542146 -38.49609375 31.2578125 C-36.72511745 23.19777863 -30.21142624 17.79185789 -24.5625 12.25 C-23.71623047 11.40050781 -22.86996094 10.55101562 -21.99804688 9.67578125 C-15.01584466 2.7537233 -10.18540866 -1.4829955 0 0 Z " fill="#197770" transform="translate(115,27)"/>
<path d="M0 0 C0.79921875 -0.0515625 1.5984375 -0.103125 2.421875 -0.15625 C10.31418304 1.6751143 16.54439637 9.45754463 22.0625 15 C22.81208984 15.73347656 23.56167969 16.46695313 24.33398438 17.22265625 C33.67302782 26.55335381 33.67302782 26.55335381 33.6875 33.5 C33.50887909 37.74630623 32.0373166 40.26068611 29.25 43.5 C23.38179527 47.79024301 17.3123299 46.9766848 10.3125 46.9375 C9.04986328 46.95748047 7.78722656 46.97746094 6.48632812 46.99804688 C-5.08438118 46.99194096 -5.08438118 46.99194096 -9.75 42.5 C-14.25596444 37.71445353 -13.23499089 31.93151674 -13.19604492 25.71044922 C-13.18755319 23.63798069 -13.21627683 21.56828888 -13.24804688 19.49609375 C-13.24740234 18.17996094 -13.24675781 16.86382812 -13.24609375 15.5078125 C-13.24794678 14.30785645 -13.2497998 13.10790039 -13.25170898 11.87158203 C-12.65214808 7.84241605 -11.25658706 5.67179108 -8.75 2.5 C-5.91269004 0.54793075 -3.41510389 0.13051352 0 0 Z " fill="#197770" transform="translate(39.75,26.5)"/>
</svg>
