<?xml version="1.0" encoding="UTF-8"?>
<svg version="1.1" xmlns="http://www.w3.org/2000/svg" width="192" height="192">
<path d="M0 0 C4.32677642 2.10743852 6.46293538 4.91710949 8.33984375 9.3046875 C9.57046077 13.17858249 9.77797918 16.41082249 8.26953125 20.234375 C6.20700304 24.19106177 3.89366787 27.08200876 0 29.3828125 C-5.99157035 30.85614947 -10.63000035 30.6025125 -16 27.3828125 C-17.97395658 25.50380573 -19.38759374 23.61172703 -21 21.3828125 C-23.86136867 18.52144383 -26.12754163 19.09231677 -30.04101562 19.06054688 C-31.41290039 19.06538086 -31.41290039 19.06538086 -32.8125 19.0703125 C-33.71548828 19.05419922 -34.61847656 19.03808594 -35.54882812 19.02148438 C-42.31089988 18.98798992 -42.31089988 18.98798992 -48 22.3828125 C-48.87695206 24.3903201 -48.87695206 24.3903201 -49.0625 26.6328125 C-49.84912444 31.29909923 -51.46265444 34.40763778 -54 38.3828125 C-53.34 38.3828125 -52.68 38.3828125 -52 38.3828125 C-49.0554321 43.37577545 -48.36504064 47.71838876 -48 53.3828125 C-44.29068515 54.61925078 -41.89482988 54.92003041 -38 54.3828125 C-36.48360802 52.75280037 -35.40986214 51.0261277 -34.23046875 49.140625 C-32.24940094 46.31052813 -30.24454474 45.44352905 -27 44.3828125 C-21.71340826 43.60963638 -17.0441838 43.93583344 -12.51171875 46.92578125 C-9.00123676 50.30926906 -7.19463752 54.70168066 -6.84375 59.53515625 C-7.21544827 64.37652618 -8.9276412 67.7130506 -12 71.3828125 C-15.83658074 74.47339143 -20.09260555 75.68105194 -25 75.3828125 C-30.34768209 73.74259785 -33.90509913 71.08706183 -37 66.3828125 C-37.33 65.7228125 -37.66 65.0628125 -38 64.3828125 C-39.92806341 64.06625586 -39.92806341 64.06625586 -42.1875 64.0078125 C-48.11644534 63.45256206 -51.42016268 61.26984041 -55.25 56.6953125 C-57.10375429 53.18642045 -57.82153001 50.22483894 -58.41015625 46.3359375 C-58.8907983 43.99616918 -58.8907983 43.99616918 -62 42.3828125 C-64.5 41.89322917 -64.5 41.89322917 -67 42.3828125 C-68.71842621 44.04267808 -68.71842621 44.04267808 -70 46.2578125 C-72.38660053 49.67759959 -73.72988246 51.58837203 -78 52.3828125 C-82.82742404 52.93913274 -86.02453127 52.90667534 -90.375 50.5703125 C-95.76923077 46.07512019 -95.76923077 46.07512019 -97 42.3828125 C-100.74866215 41.9692123 -104.26695638 41.76945123 -108 42.3828125 C-109.79899719 43.98383392 -110.72377812 45.53878175 -111.90625 47.625 C-113.70957067 50.52319393 -115.8309829 51.32647347 -119 52.3828125 C-124.38641996 53.14921694 -128.39728512 52.45128909 -133 49.3828125 C-136.72755871 45.69555172 -138.75341229 42.47880803 -139.375 37.1953125 C-138.82307957 31.58412149 -136.31627248 27.46648858 -132.1328125 23.703125 C-128.36511181 21.37073886 -124.35584177 21.27926634 -120 21.3828125 C-114.7071467 23.08052016 -112.22259455 26.0553284 -109 30.3828125 C-108.67 31.0428125 -108.34 31.7028125 -108 32.3828125 C-104.5492626 32.87382652 -101.43234446 33.06825066 -98 32.3828125 C-96.03378619 30.54109695 -94.79132359 28.63571258 -93.35546875 26.36328125 C-91.35915702 23.44647996 -89.3194198 22.46670468 -86 21.3828125 C-80.74053483 20.81929838 -77.48160559 21.59425791 -73 24.3828125 C-70.19961443 26.79425563 -68.45538439 28.98691559 -67 32.3828125 C-64.0957107 32.27488429 -64.0957107 32.27488429 -61 31.3828125 C-58.62592147 28.58479138 -57.83743737 25.88658916 -57.0625 22.3828125 C-56.15982142 18.51730989 -54.9454603 16.16905873 -52 13.3828125 C-45.63248015 9.77397291 -39.75329529 10.02887866 -32.5625 10.1953125 C-31.44939453 10.20884766 -30.33628906 10.22238281 -29.18945312 10.23632812 C-26.45912788 10.27148253 -23.72982256 10.32069144 -21 10.3828125 C-20.88269531 9.77695313 -20.76539063 9.17109375 -20.64453125 8.546875 C-19.50559341 4.7228049 -16.46798248 2.25272805 -13.1015625 0.2578125 C-8.88871406 -1.49623592 -4.33345606 -1.33727746 0 0 Z M-11.875 7.9453125 C-14.40714682 10.84983386 -14.83765112 12.56761391 -15 16.3828125 C-14.67 17.3728125 -14.34 18.3628125 -14 19.3828125 C-13.34 19.3828125 -12.68 19.3828125 -12 19.3828125 C-12 20.0428125 -12 20.7028125 -12 21.3828125 C-9.14675563 22.80943469 -7.16545451 22.69315118 -4 22.3828125 C-1.0098357 20.97403154 -1.0098357 20.97403154 1 18.3828125 C1.52368962 14.71698513 1.45259656 12.39449893 -0.0625 9.0078125 C-3.87644659 5.80901859 -7.57734133 5.60962844 -11.875 7.9453125 Z M-131 33.3828125 C-131.63210717 37.31592377 -131.60020266 39.40748318 -129.5 42.8203125 C-126.46962931 44.71429418 -124.44169066 45.02615497 -120.91015625 44.828125 C-118.72073563 44.46330726 -118.72073563 44.46330726 -116.4375 42.3203125 C-114.55389029 38.47119701 -114.792356 36.45861099 -116 32.3828125 C-118.23225897 29.8198485 -119.58051369 29.44528919 -122.9375 28.9453125 C-126.83940315 29.50272724 -128.40973731 30.41162882 -131 33.3828125 Z M-90 34.3828125 C-90.83333333 37.3828125 -90.83333333 37.3828125 -90 40.3828125 C-88.08333333 43.46614583 -88.08333333 43.46614583 -85 45.3828125 C-80.70752394 45.5334257 -78.77949504 45.04538329 -75.5 42.2578125 C-73.51200241 38.44748379 -73.79100564 36.46316846 -75 32.3828125 C-77.22165544 29.83202292 -78.60829443 29.44948579 -81.9375 28.8828125 C-86.11411135 29.56470823 -87.50915752 31.01284915 -90 34.3828125 Z M-30 55.3828125 C-30.66529824 58.18165337 -30.61506241 60.57766805 -30 63.3828125 C-28.54002013 66.00997827 -28.54002013 66.00997827 -26 67.3828125 C-23.04308291 68.13296445 -23.04308291 68.13296445 -20 67.3828125 C-16.67725596 64.92687125 -15.22381992 63.4571481 -14.375 59.3828125 C-15.21746209 55.33899445 -16.73399981 53.85045709 -20 51.3828125 C-24.50444973 50.36931131 -27.03506276 51.99431279 -30 55.3828125 Z " fill="#EE6A59" transform="translate(162,63.6171875)"/>
<path d="M0 0 C0.77601563 -0.00515625 1.55203125 -0.0103125 2.3515625 -0.015625 C4.375 0.25 4.375 0.25 6.375 2.25 C3.405 2.25 0.435 2.25 -2.625 2.25 C-2.625 2.91 -2.625 3.57 -2.625 4.25 C-1.305 4.91 0.015 5.57 1.375 6.25 C0.055 6.25 -1.265 6.25 -2.625 6.25 C-2.955 6.91 -3.285 7.57 -3.625 8.25 C-4.615 7.59 -5.605 6.93 -6.625 6.25 C-6.625 5.26 -6.625 4.27 -6.625 3.25 C-7.285 2.92 -7.945 2.59 -8.625 2.25 C-5.63092177 0.52737965 -3.44750407 -0.02306023 0 0 Z " fill="#EE7063" transform="translate(155.625,62.75)"/>
<path d="M0 0 C0.33 1.65 0.66 3.3 1 5 C-1.40545638 6.20272819 -2.94996953 6.10071472 -5.625 6.0625 C-6.85089844 6.04896484 -6.85089844 6.04896484 -8.1015625 6.03515625 C-9.04128906 6.01775391 -9.04128906 6.01775391 -10 6 C-10.33 5.34 -10.66 4.68 -11 4 C-9.68 3.67 -8.36 3.34 -7 3 C-7 2.34 -7 1.68 -7 1 C-2.25 0 -2.25 0 0 0 Z " fill="#EB7162" transform="translate(85,110)"/>
<path d="M0 0 C0.69265421 2.33770797 0.99600003 4.16799856 0.9375 6.625 C0.73240775 9.19124804 0.73240775 9.19124804 3 11 C1.35 11.33 -0.3 11.66 -2 12 C-2.33 12.99 -2.66 13.98 -3 15 C-3.66 14.34 -4.32 13.68 -5 13 C-5 12.01 -5 11.02 -5 10 C-3.68 9.67 -2.36 9.34 -1 9 C-1.020625 7.88625 -1.04125 6.7725 -1.0625 5.625 C-1 2 -1 2 0 0 Z " fill="#EF6554" transform="translate(112,108)"/>
<path d="M0 0 C0.66 0.33 1.32 0.66 2 1 C2 1.66 2 2.32 2 3 C2.66 3 3.32 3 4 3 C4.33 2.34 4.66 1.68 5 1 C5.33 1.66 5.66 2.32 6 3 C4.68 4.32 3.36 5.64 2 7 C1.01 6.67 0.02 6.34 -1 6 C-0.67 5.01 -0.34 4.02 0 3 C-0.66 2.34 -1.32 1.68 -2 1 C-1.34 0.67 -0.68 0.34 0 0 Z " fill="#ED6F5C" transform="translate(160,84)"/>
<path d="M0 0 C0.66 0.33 1.32 0.66 2 1 C2.1875 3.875 2.1875 3.875 2 7 C-2.1795645 9.78637633 -4.14668677 8.79562512 -9 8 C-9 7.67 -9 7.34 -9 7 C-6.36 6.67 -3.72 6.34 -1 6 C-0.67 4.02 -0.34 2.04 0 0 Z " fill="#F07160" transform="translate(125,119)"/>
<path d="M0 0 C4.29 0.66 8.58 1.32 13 2 C13 2.33 13 2.66 13 3 C11.58566794 3.2236337 10.16832382 3.42826476 8.75 3.625 C7.96109375 3.74101563 7.1721875 3.85703125 6.359375 3.9765625 C3.67847541 4.00319395 2.27305911 3.36592084 0 2 C0 1.34 0 0.68 0 0 Z " fill="#ED6250" transform="translate(111,123)"/>
<path d="M0 0 C0.33 0 0.66 0 1 0 C1.309375 1.11375 1.61875 2.2275 1.9375 3.375 C2.82326483 6.7945155 2.82326483 6.7945155 4 9 C2.35 8.67 0.7 8.34 -1 8 C-0.67 5.36 -0.34 2.72 0 0 Z " fill="#F07769" transform="translate(131,121)"/>
<path d="" fill="#E5584D" transform="translate(0,0)"/>
<path d="" fill="#E5584D" transform="translate(0,0)"/>
</svg>
