<?xml version="1.0" encoding="UTF-8"?>
<svg version="1.1" xmlns="http://www.w3.org/2000/svg" width="404" height="470">
<path d="M0 0 C0.99 0.495 0.99 0.495 2 1 C2.51151113 13.29034389 2.90146554 25.57813087 3.13986778 37.87697887 C3.25435209 43.58971567 3.40929141 49.29513815 3.65966797 55.00366211 C5.23767446 91.91833494 5.23767446 91.91833494 -0.10949707 100.3109436 C-5.14640977 105.09265726 -10.71656259 107.4306764 -17.35372925 109.21928406 C-21.17494593 110.34663838 -24.13573897 112.19642637 -27.5 114.3125 C-29.66580391 115.54318622 -31.83243282 116.77242203 -34 118 C-42.55631899 122.85715852 -51.068504 127.78465109 -59.5625 132.75 C-71.85007777 139.93155204 -84.20060689 146.999252 -96.57421875 154.03125 C-106.99142066 159.96239511 -117.35338434 165.98795667 -127.69042969 172.05761719 C-129.96312465 173.39145911 -132.23701523 174.72303658 -134.51269531 176.05175781 C-137.9942715 178.08585169 -141.46614707 180.13600722 -144.9375 182.1875 C-146.57295776 183.14088257 -146.57295776 183.14088257 -148.24145508 184.11352539 C-149.24329834 184.7089917 -150.2451416 185.30445801 -151.27734375 185.91796875 C-152.16671631 186.44156982 -153.05608887 186.9651709 -153.97241211 187.50463867 C-156.29138447 188.91447909 -156.29138447 188.91447909 -157 192 C-141.98913165 200.83121849 -126.96633208 209.63432643 -111.828125 218.24609375 C-107.07802175 220.94969101 -102.35027575 223.6908099 -97.625 226.4375 C-90.57258931 230.5348199 -83.48187261 234.56046972 -76.375 238.5625 C-68.36831547 243.07419796 -60.41197515 247.6578542 -52.50390625 252.33984375 C-45.99026809 256.19521737 -39.44367501 259.99433417 -32.90307617 263.80371094 C-28.22798118 266.52820025 -23.55592732 269.25721992 -18.8984375 272.01171875 C-18.12757813 272.46740234 -17.35671875 272.92308594 -16.5625 273.39257812 C-15.15778995 274.22411631 -13.75405707 275.05730868 -12.3515625 275.89257812 C-10.57647018 276.94333009 -8.78862335 277.97245002 -7 279 C-5.96101562 279.60457031 -4.92203125 280.20914062 -3.8515625 280.83203125 C-0.51783948 282.19748767 0.59273193 281.93397196 4 281 C6.22921277 280.02493156 6.22921277 280.02493156 8.40625 278.77734375 C9.63613647 278.09901489 9.63613647 278.09901489 10.89086914 277.40698242 C11.75188232 276.92205322 12.61289551 276.43712402 13.5 275.9375 C14.39130615 275.44161377 15.2826123 274.94572754 16.20092773 274.43481445 C22.28076856 271.02977391 28.22965126 267.4643377 34.1328125 263.76171875 C37.73282256 261.54972347 41.42271228 259.54473453 45.14453125 257.546875 C53.98128652 252.75979554 62.64289465 247.64424216 71.3125 242.5625 C72.06031738 242.12518555 72.80813477 241.68787109 73.57861328 241.23730469 C76.98308949 239.38240449 76.98308949 239.38240449 80 237 C80.12529188 234.07882268 80.18610672 231.18014759 80.20532227 228.25756836 C80.21522186 227.3405867 80.22512146 226.42360504 80.23532104 225.47883606 C80.26703649 222.43253201 80.29173299 219.38621233 80.31640625 216.33984375 C80.33696712 214.23376549 80.35796334 212.12769144 80.37937927 210.0216217 C80.43468957 204.46661782 80.4840592 198.91157615 80.53222656 193.35650635 C80.58237635 187.69271464 80.63809638 182.02897809 80.69335938 176.36523438 C80.80105045 165.24353666 80.90247094 154.12179114 81 143 C84 142 84 142 86.05859375 142.90527344 C86.84363281 143.38512695 87.62867188 143.86498047 88.4375 144.359375 C89.32228027 144.89232178 90.20706055 145.42526855 91.11865234 145.97436523 C92.06949707 146.56032471 93.0203418 147.14628418 94 147.75 C96.0125448 148.96563219 98.02557351 150.18046359 100.0390625 151.39453125 C101.55161621 152.31226318 101.55161621 152.31226318 103.09472656 153.24853516 C107.15793871 155.69807162 111.26189067 158.07304057 115.375 160.4375 C116.91948503 161.32905613 118.46375072 162.22099232 120.0078125 163.11328125 C120.80348633 163.57299316 121.59916016 164.03270508 122.41894531 164.50634766 C134.29472363 171.37884215 146.16322278 178.26714035 157.9375 185.3125 C158.55206055 185.67939941 159.16662109 186.04629883 159.79980469 186.42431641 C163.87602615 188.87602615 163.87602615 188.87602615 165 190 C165.12725818 192.96131859 165.18928093 195.89979449 165.20874023 198.86254883 C165.21852402 199.79261246 165.2283078 200.72267609 165.23838806 201.68092346 C165.26841571 204.77294465 165.28974725 207.8649224 165.30859375 210.95703125 C165.31516558 212.01024755 165.3217374 213.06346386 165.32850838 214.14859581 C165.36113363 219.72282951 165.38557723 225.29704381 165.4050293 230.87133789 C165.42285485 235.49368995 165.45769088 240.11543338 165.50756836 244.73754883 C165.56762361 250.30843715 165.59848516 255.87876025 165.60820198 261.44995689 C165.61678295 263.57631689 165.63566551 265.70266073 165.6649456 267.82883644 C165.70369924 270.8029888 165.70491575 273.77492433 165.69702148 276.74926758 C165.71702209 277.63098633 165.73702271 278.51270508 165.75762939 279.42114258 C165.7296358 281.76563916 165.65007638 283.74689662 165 286 C162.11268616 288.48930359 162.11268616 288.48930359 159 290 C158.175 290.46921875 157.35 290.9384375 156.5 291.421875 C155.2625 292.07929687 155.2625 292.07929687 154 292.75 C142.39184675 299.01127358 131.03762787 305.71961541 119.65161133 312.37304688 C112.1155344 316.77398103 104.56234448 321.14437935 97 325.5 C84.63974056 332.62080413 72.3153263 339.80183403 60 347 C44.23349035 356.21534277 28.46207592 365.42347218 12.60888672 374.48925781 C11.01959987 375.40957477 9.44004451 376.34734517 7.87939453 377.31542969 C4.34322091 379.48875266 2.13477578 380.40930728 -2 380 C-4.38989258 378.93701172 -4.38989258 378.93701172 -6.89453125 377.4296875 C-7.83748047 376.87023437 -8.78042969 376.31078125 -9.75195312 375.734375 C-11.26692383 374.81398438 -11.26692383 374.81398438 -12.8125 373.875 C-14.98550657 372.5804429 -17.15868849 371.28618012 -19.33203125 369.9921875 C-20.99613037 368.99396973 -20.99613037 368.99396973 -22.69384766 367.97558594 C-27.77139 364.9415088 -32.88595248 361.97197845 -38 359 C-40.00543902 357.83112486 -42.01064681 356.66185293 -44.015625 355.4921875 C-45.5015918 354.6254541 -45.5015918 354.6254541 -47.01757812 353.74121094 C-49.96613311 352.01977232 -52.9129776 350.29544097 -55.859375 348.5703125 C-67.67621302 341.65603795 -79.53520204 334.81914167 -91.42773438 328.03613281 C-107.99851969 318.58408031 -124.51777667 309.04315303 -141 299.4375 C-141.96067383 298.87788574 -142.92134766 298.31827148 -143.91113281 297.74169922 C-146.61038123 296.16610909 -149.30615956 294.58481652 -152 293 C-152.93585938 292.45102051 -153.87171875 291.90204102 -154.8359375 291.33642578 C-156.18558594 290.53760986 -156.18558594 290.53760986 -157.5625 289.72265625 C-158.36816406 289.24707275 -159.17382812 288.77148926 -160.00390625 288.28149414 C-162 287 -162 287 -164 285 C-164.23006451 282.50372275 -164.33504848 280.11398151 -164.35490417 277.61364746 C-164.36860764 276.84311932 -164.38231111 276.07259118 -164.39642984 275.2787137 C-164.43971718 272.68260445 -164.46838747 270.08654587 -164.49682617 267.49023438 C-164.52407848 265.63425788 -164.55197146 263.7782907 -164.58045959 261.92233276 C-164.82687709 244.96123631 -164.9491824 227.99763077 -165.04506969 211.03508759 C-165.11719586 198.49585676 -165.24502411 185.95986174 -165.44712847 173.42203665 C-165.58442536 164.60667468 -165.65645772 155.79219455 -165.68084508 146.97580576 C-165.69726011 141.70996035 -165.74255926 136.44806793 -165.85854149 131.18339539 C-165.9665252 126.22418418 -165.99343865 121.27097095 -165.95941734 116.31076431 C-165.96089556 114.49572855 -165.99127928 112.68043919 -166.05340958 110.86646652 C-166.41568732 99.70325158 -166.41568732 99.70325158 -164 95 C-159.84264995 90.74294979 -154.50226239 88.31083792 -149.1160351 85.95595646 C-145.98056209 84.53945081 -143.08518231 82.81425921 -140.125 81.0625 C-138.990625 80.41667969 -137.85625 79.77085937 -136.6875 79.10546875 C-126.14103416 73.09409811 -115.65786562 66.97136126 -105.17724609 60.84619141 C-95.78917875 55.35993161 -86.37986318 49.91566681 -76.9296875 44.53710938 C-70.30078613 40.75843593 -63.70930431 36.91826436 -57.125 33.0625 C-48.31549814 27.9046308 -39.45657666 22.84442353 -30.55053711 17.85522461 C-25.5720509 15.05587668 -20.63496571 12.20215766 -15.73828125 9.26171875 C-14.7239502 8.65336182 -13.70961914 8.04500488 -12.66455078 7.41821289 C-10.7145426 6.2436344 -8.76871809 5.06207548 -6.82763672 3.87280273 C-5.96025879 3.35016846 -5.09288086 2.82753418 -4.19921875 2.2890625 C-3.43440186 1.82193848 -2.66958496 1.35481445 -1.8815918 0.87353516 C-1.2606665 0.58526855 -0.63974121 0.29700195 0 0 Z " fill="#30A78A" transform="translate(191,75)"/>
<path d="M0 0 C0.99 0.495 0.99 0.495 2 1 C2.51151113 13.29034389 2.90146554 25.57813087 3.13986778 37.87697887 C3.25435209 43.58971567 3.40929141 49.29513815 3.65966797 55.00366211 C5.23767446 91.91833494 5.23767446 91.91833494 -0.10949707 100.3109436 C-5.14640977 105.09265726 -10.71656259 107.4306764 -17.35372925 109.21928406 C-21.17494593 110.34663838 -24.13573897 112.19642637 -27.5 114.3125 C-29.66580391 115.54318622 -31.83243282 116.77242203 -34 118 C-42.55631899 122.85715852 -51.068504 127.78465109 -59.5625 132.75 C-71.85007777 139.93155204 -84.20060689 146.999252 -96.57421875 154.03125 C-106.99142066 159.96239511 -117.35338434 165.98795667 -127.69042969 172.05761719 C-129.96312465 173.39145911 -132.23701523 174.72303658 -134.51269531 176.05175781 C-137.9942715 178.08585169 -141.46614707 180.13600722 -144.9375 182.1875 C-146.57295776 183.14088257 -146.57295776 183.14088257 -148.24145508 184.11352539 C-149.24329834 184.7089917 -150.2451416 185.30445801 -151.27734375 185.91796875 C-152.16671631 186.44156982 -153.05608887 186.9651709 -153.97241211 187.50463867 C-156.29138447 188.91447909 -156.29138447 188.91447909 -157 192 C-135.50670131 204.65200041 -135.50670131 204.65200041 -113.8762207 217.06738281 C-112.35417839 217.93091212 -110.83492547 218.79938118 -109.31884766 219.67333984 C-107.64683015 220.62993525 -105.96255674 221.56522003 -104.27099609 222.48681641 C-103.37074707 222.9926123 -102.47049805 223.4984082 -101.54296875 224.01953125 C-100.31163208 224.69592651 -100.31163208 224.69592651 -99.05541992 225.38598633 C-96.56690657 227.3400856 -96.0927309 229.08857689 -95 232 C-93.00822259 232.37938617 -91.00569659 232.70285977 -89 233 C-85.92677396 234.23443143 -83.3958463 235.69993612 -81 238 C-79.86750006 241.03931218 -79.98325663 243.89088482 -80.09179688 247.10473633 C-80.09062866 248.01254852 -80.08946045 248.92036072 -80.08825684 249.85568237 C-80.0938204 252.84936804 -80.15598755 255.839044 -80.21875 258.83203125 C-80.23367475 260.90994592 -80.24506067 262.98788877 -80.25305176 265.06584167 C-80.28356715 270.5295513 -80.36212616 275.9915538 -80.45068359 281.45458984 C-80.53258731 287.03134058 -80.56907298 292.60836778 -80.609375 298.18554688 C-80.69512002 309.12444713 -80.8316208 320.0620815 -81 331 C-81.66 331 -82.32 331 -83 331 C-83 330.34 -83 329.68 -83 329 C-83.93199219 329.12503906 -84.86398438 329.25007813 -85.82421875 329.37890625 C-91.60077694 329.35721705 -96.05327693 325.88214767 -100.8125 322.9375 C-102.9616243 321.64480986 -105.11138615 320.35317919 -107.26171875 319.0625 C-108.3707959 318.39089844 -109.47987305 317.71929687 -110.62255859 317.02734375 C-116.07840173 313.7524181 -121.60358723 310.60014278 -127.125 307.4375 C-135.60333084 302.55485853 -144.06595329 297.64628445 -152.5 292.6875 C-153.89822998 291.86946899 -153.89822998 291.86946899 -155.32470703 291.03491211 C-156.17661621 290.5322583 -157.02852539 290.02960449 -157.90625 289.51171875 C-158.65197266 289.07303467 -159.39769531 288.63435059 -160.16601562 288.18237305 C-162 287 -162 287 -164 285 C-164.23006451 282.50372275 -164.33504848 280.11398151 -164.35490417 277.61364746 C-164.36860764 276.84311932 -164.38231111 276.07259118 -164.39642984 275.2787137 C-164.43971718 272.68260445 -164.46838747 270.08654587 -164.49682617 267.49023438 C-164.52407848 265.63425788 -164.55197146 263.7782907 -164.58045959 261.92233276 C-164.82687709 244.96123631 -164.9491824 227.99763077 -165.04506969 211.03508759 C-165.11719586 198.49585676 -165.24502411 185.95986174 -165.44712847 173.42203665 C-165.58442536 164.60667468 -165.65645772 155.79219455 -165.68084508 146.97580576 C-165.69726011 141.70996035 -165.74255926 136.44806793 -165.85854149 131.18339539 C-165.9665252 126.22418418 -165.99343865 121.27097095 -165.95941734 116.31076431 C-165.96089556 114.49572855 -165.99127928 112.68043919 -166.05340958 110.86646652 C-166.41568732 99.70325158 -166.41568732 99.70325158 -164 95 C-159.84264995 90.74294979 -154.50226239 88.31083792 -149.1160351 85.95595646 C-145.98056209 84.53945081 -143.08518231 82.81425921 -140.125 81.0625 C-138.990625 80.41667969 -137.85625 79.77085937 -136.6875 79.10546875 C-126.14103416 73.09409811 -115.65786562 66.97136126 -105.17724609 60.84619141 C-95.78917875 55.35993161 -86.37986318 49.91566681 -76.9296875 44.53710938 C-70.30078613 40.75843593 -63.70930431 36.91826436 -57.125 33.0625 C-48.31549814 27.9046308 -39.45657666 22.84442353 -30.55053711 17.85522461 C-25.5720509 15.05587668 -20.63496571 12.20215766 -15.73828125 9.26171875 C-14.7239502 8.65336182 -13.70961914 8.04500488 -12.66455078 7.41821289 C-10.7145426 6.2436344 -8.76871809 5.06207548 -6.82763672 3.87280273 C-5.96025879 3.35016846 -5.09288086 2.82753418 -4.19921875 2.2890625 C-3.43440186 1.82193848 -2.66958496 1.35481445 -1.8815918 0.87353516 C-1.2606665 0.58526855 -0.63974121 0.29700195 0 0 Z " fill="#C72A30" transform="translate(191,75)"/>
<path d="M0 0 C4.40960646 1.30655006 7.9436998 3.02559043 11.8125 5.5 C12.97041645 6.22935542 14.12931899 6.95714705 15.2890625 7.68359375 C16.20026855 8.2556958 16.20026855 8.2556958 17.12988281 8.83935547 C20.28578759 10.79799402 23.48433844 12.68244217 26.6875 14.5625 C27.7242688 15.17146118 27.7242688 15.17146118 28.78198242 15.79272461 C35.54257989 19.75132519 42.33536229 23.65400582 49.125 27.5625 C68.33565061 38.62489436 68.33565061 38.62489436 77 44 C78.03489563 44.50797119 79.06979126 45.01594238 80.13604736 45.53930664 C83.1893447 48.16268399 83.42168037 48.38451313 83.76190186 52.09863281 C83.79754541 53.79976366 83.79992855 55.50178391 83.77636719 57.203125 C83.7868811 58.13362671 83.79739502 59.06412842 83.80822754 60.02282715 C83.83464017 63.09923412 83.81715167 66.17357194 83.796875 69.25 C83.80091623 71.38704832 83.8067389 73.52409395 83.81427002 75.66113281 C83.82311825 80.14024105 83.81025089 84.61863144 83.78222656 89.09765625 C83.74804039 94.84174737 83.76772215 100.58415664 83.80366135 106.32818604 C83.82533367 110.7411773 83.81844641 115.15376922 83.80289459 119.56677246 C83.79888953 121.6846944 83.80381301 123.8026525 83.81777191 125.92053223 C83.83299806 128.88029112 83.80980777 131.83731976 83.77636719 134.796875 C83.79458527 136.11238342 83.79458527 136.11238342 83.81317139 137.45446777 C83.76425835 139.78890087 83.66571355 141.76160418 83 144 C80.10772705 146.48632812 80.10772705 146.48632812 77 148 C76.175 148.46921875 75.35 148.9384375 74.5 149.421875 C73.675 149.86015625 72.85 150.2984375 72 150.75 C62.35039343 155.95486122 52.88490651 161.47581783 43.41650391 167.0012207 C41.3439702 168.21060623 39.27072512 169.41877347 37.19677734 170.62573242 C32.2727909 173.493485 27.36011863 176.37635253 22.4765625 179.3125 C21.62280029 179.82063232 20.76903809 180.32876465 19.8894043 180.85229492 C18.30449622 181.79616978 16.72480531 182.74888563 15.15161133 183.7121582 C10.6799851 186.35947843 7.19993294 187.63784961 2 188 C0.75340183 178.36366675 0.87302815 168.783106 0.90234375 159.0859375 C0.90421186 157.26177001 0.90563391 155.43760201 0.90663147 153.61343384 C0.91042569 148.84269799 0.92022911 144.07199321 0.93133545 139.30126953 C0.94161655 134.42090271 0.94614336 129.54053081 0.95117188 124.66015625 C0.96185453 115.10675728 0.97889321 105.55338124 1 96 C0.21625 96.515625 -0.5675 97.03125 -1.375 97.5625 C-2.24125 98.036875 -3.1075 98.51125 -4 99 C-4.66 98.67 -5.32 98.34 -6 98 C-5.35093185 97.68966827 -4.70186371 97.37933655 -4.03312683 97.05960083 C-1.3998948 94.39208064 -1.50720123 92.31567931 -1.44996643 88.67248535 C-1.45656784 87.8058728 -1.46316925 86.93926025 -1.4699707 86.04638672 C-1.46123932 85.1307193 -1.45250793 84.21505188 -1.44351196 83.27163696 C-1.419086 80.24078925 -1.42254969 77.21062128 -1.42578125 74.1796875 C-1.41334351 72.07885569 -1.39901137 69.97803431 -1.38285828 67.87722778 C-1.34476712 62.34395205 -1.32963239 56.81085552 -1.32006836 51.27746582 C-1.30034959 42.41260657 -1.243633 33.54788449 -1.19130516 24.68317032 C-1.17589765 21.57814599 -1.16875634 18.47318945 -1.16316223 15.36813354 C-1.15614955 13.47703009 -1.14904891 11.58592696 -1.1418457 9.69482422 C-1.14237442 8.82416321 -1.14290314 7.9535022 -1.14344788 7.05645752 C-1.11321629 1.11321629 -1.11321629 1.11321629 0 0 Z " fill="#3AAF4B" transform="translate(273,217)"/>
<path d="M0 0 C3.30927972 1.29666499 6.34203282 2.67861605 9.3984375 4.49609375 C10.61273438 5.21055664 10.61273438 5.21055664 11.8515625 5.93945312 C13.52636292 6.93370384 15.20084515 7.92849075 16.875 8.92382812 C20.31811631 10.94870843 23.6535672 12.85216701 27.33203125 14.421875 C32.88299463 16.81014891 38.05626366 19.84050136 43.3125 22.8125 C44.38951172 23.41642578 45.46652344 24.02035156 46.57617188 24.64257812 C48.70565875 25.84081756 50.83093279 27.04657869 52.95166016 28.26025391 C54.9409196 29.39556248 56.94031775 30.51333911 58.95068359 31.61083984 C60.29573975 32.3661499 60.29573975 32.3661499 61.66796875 33.13671875 C62.45840576 33.57072998 63.24884277 34.00474121 64.06323242 34.4519043 C66.45606959 36.36454523 66.92983409 38.18200367 68 41 C69.99177741 41.37938617 71.99430341 41.70285977 74 42 C77.07322604 43.23443143 79.6041537 44.69993612 82 47 C83.13249994 50.03931218 83.01674337 52.89088482 82.90820312 56.10473633 C82.90937134 57.01254852 82.91053955 57.92036072 82.91174316 58.85568237 C82.9061796 61.84936804 82.84401245 64.839044 82.78125 67.83203125 C82.76632525 69.90994592 82.75493933 71.98788877 82.74694824 74.06584167 C82.71643285 79.5295513 82.63787384 84.9915538 82.54931641 90.45458984 C82.46741269 96.03134058 82.43092702 101.60836778 82.390625 107.18554688 C82.30487998 118.12444713 82.1683792 129.0620815 82 140 C81.34 140 80.68 140 80 140 C80 139.34 80 138.68 80 138 C79.06800781 138.12503906 78.13601562 138.25007812 77.17578125 138.37890625 C71.39922306 138.35721705 66.94672307 134.88214767 62.1875 131.9375 C60.0383757 130.64480986 57.88861385 129.35317919 55.73828125 128.0625 C54.07466553 127.05509766 54.07466553 127.05509766 52.37744141 126.02734375 C46.92160172 122.75242018 41.39648647 119.60000859 35.875 116.4375 C27.3707308 111.5423628 18.88927754 106.61025532 10.4375 101.625 C9.49696777 101.07126709 8.55643555 100.51753418 7.58740234 99.94702148 C6.30470459 99.18820679 6.30470459 99.18820679 4.99609375 98.4140625 C4.24513428 97.9701416 3.4941748 97.5262207 2.72045898 97.06884766 C1 96 1 96 0 95 C-0.09526806 92.04753646 -0.12552452 89.11851579 -0.11352539 86.16577148 C-0.11367142 85.23903625 -0.11381744 84.31230103 -0.1139679 83.35748291 C-0.11326838 80.27866313 -0.10547421 77.19990303 -0.09765625 74.12109375 C-0.09579221 71.99259982 -0.09436824 69.86410547 -0.09336853 67.73561096 C-0.08954228 62.1213768 -0.07971108 56.50716832 -0.06866455 50.89294434 C-0.05845273 45.16886747 -0.0538714 39.44478647 -0.04882812 33.72070312 C-0.03808891 22.48045744 -0.0210112 11.24023085 0 0 Z " fill="#7D348E" transform="translate(28,266)"/>
<path d="M0 0 C10.14241063 4.05696425 19.34851181 9.32334336 28.66162109 14.97753906 C35.78081481 19.29291825 42.96940957 23.47741245 50.1875 27.625 C57.82655821 32.01792021 65.46285389 36.41414068 73.0625 40.875 C73.76463623 41.28572754 74.46677246 41.69645508 75.19018555 42.11962891 C79.87906299 44.87906299 79.87906299 44.87906299 81 46 C81.09523905 48.89143151 81.12553027 51.75892064 81.11352539 54.65063477 C81.11367142 55.55786285 81.11381744 56.46509094 81.1139679 57.39981079 C81.11326841 60.41369985 81.10547434 63.42752793 81.09765625 66.44140625 C81.0957922 68.52505967 81.09436824 70.60871354 81.09336853 72.69236755 C81.08954234 78.18823446 81.0797112 83.68407513 81.06866455 89.17993164 C81.0584526 94.78336227 81.05387137 100.38679713 81.04882812 105.99023438 C81.03808902 116.99350114 81.02101139 127.99674839 81 139 C79.57688352 138.71252752 78.15539441 138.41699275 76.73461914 138.11816406 C75.94285782 137.95447327 75.1510965 137.79078247 74.33534241 137.62213135 C70.63477046 136.63630511 67.65227408 134.78123142 64.4375 132.75 C62.94856604 131.8426835 61.45894171 130.93649927 59.96875 130.03125 C59.17210937 129.54269531 58.37546875 129.05414063 57.5546875 128.55078125 C52.88778669 125.71781547 48.15842576 122.991626 43.4375 120.25 C41.38652002 119.05502852 39.33574129 117.85971157 37.28515625 116.6640625 C35.73658936 115.76155762 35.73658936 115.76155762 34.15673828 114.84082031 C30.97720521 112.98670745 27.79896325 111.13040001 24.62109375 109.2734375 C14.10890499 103.13216191 3.59124385 97.00419106 -7 91 C-7 90.67 -7 90.34 -7 90 C-5.35 90 -3.7 90 -2 90 C-2 90.66 -2 91.32 -2 92 C-1.34 92 -0.68 92 0 92 C0 61.64 0 31.28 0 0 Z " fill="#1783B7" transform="translate(110,314)"/>
<path d="M0 0 C1.0254546 2.05090919 2.01311652 4.03531371 2.8125 6.1875 C3.86646487 8.24642929 3.86646487 8.24642929 6.3125 8.5625 C7.199375 8.706875 8.08625 8.85125 9 9 C11.44119633 10.27872189 13.46881146 11.43845783 15.3671875 13.4453125 C17.26413237 15.25149446 19.17924606 16.29320795 21.5 17.5 C24.49776783 19.05883927 26.68224081 20.54941793 29 23 C31.74935187 24.85767018 34.06486029 26.01995701 37.25 27 C38.1575 27.33 39.065 27.66 40 28 C40.495 29.485 40.495 29.485 41 31 C42.093125 31.309375 43.18625 31.61875 44.3125 31.9375 C48.28791094 33.08295739 49.18081866 34.18081866 52 37 C53.5951675 37.43202453 55.19249008 37.85801284 56.80078125 38.23828125 C60.91335545 39.66270748 64.52260063 42.09713414 68.23046875 44.34375 C70.45479429 45.67395315 72.6634607 46.88470678 75 48 C75 48.99 75 49.98 75 51 C81.11747804 47.64774562 87.13341769 44.15639708 93.10546875 40.55078125 C96.0157877 38.99154154 98.84364091 37.94924577 102 37 C99.92957718 39.21671569 97.92033203 40.77680542 95.2890625 42.27734375 C94.55034912 42.70176758 93.81163574 43.12619141 93.05053711 43.56347656 C92.25010986 44.0169043 91.44968262 44.47033203 90.625 44.9375 C89.35958374 45.66211426 89.35958374 45.66211426 88.06860352 46.40136719 C85.38162219 47.938765 82.69097631 49.46960771 80 51 C78.3291698 51.95397662 76.65859209 52.90839559 74.98828125 53.86328125 C72.44107746 55.31925104 69.8937396 56.77498003 67.34570312 58.22949219 C43.43760769 71.8215257 43.43760769 71.8215257 19.81103516 85.89355469 C18.48726758 86.70230565 17.16107838 87.50709664 15.83349609 88.30957031 C13.57174116 89.67790553 11.31646652 91.0563809 9.0625 92.4375 C8.00361572 93.07619019 8.00361572 93.07619019 6.92333984 93.7277832 C5.24719737 94.76388679 3.6180032 95.87526453 2 97 C2 97.66 2 98.32 2 99 C3.907885 100.42502528 3.907885 100.42502528 6.375 101.8203125 C7.72851562 102.62275391 7.72851562 102.62275391 9.109375 103.44140625 C10.06328125 103.99699219 11.0171875 104.55257812 12 105.125 C12.95390625 105.68832031 13.9078125 106.25164062 14.890625 106.83203125 C17.25662727 108.22797259 19.6264682 109.61691272 22 111 C21.01 111.495 21.01 111.495 20 112 C17.89282227 111.04370117 17.89282227 111.04370117 15.31640625 109.54296875 C14.38892578 109.00736328 13.46144531 108.47175781 12.50585938 107.91992188 C11.04889648 107.06237305 11.04889648 107.06237305 9.5625 106.1875 C8.59505859 105.62740234 7.62761719 105.06730469 6.63085938 104.49023438 C3.02950834 102.39840175 -0.53395978 100.31069348 -4 98 C-4 129.02 -4 160.04 -4 192 C-4.33 192 -4.66 192 -5 192 C-5.06999525 167.26163906 -5.12294157 142.5232929 -5.15543652 117.78485298 C-5.17092365 106.29908061 -5.19204834 94.81336967 -5.22631836 83.32763672 C-5.2561643 73.31990357 -5.27556156 63.31221489 -5.28226548 53.30443847 C-5.28618591 48.00246482 -5.29543757 42.70061843 -5.31719017 37.39868546 C-5.33747951 32.41323921 -5.34384918 27.42797323 -5.33932304 22.44248962 C-5.34015164 20.60822954 -5.34616209 18.77396373 -5.35761642 16.93973923 C-5.37244266 14.44414909 -5.36899021 11.94924838 -5.36076355 9.4536438 C-5.36950207 8.72018931 -5.3782406 7.98673481 -5.38724393 7.23105443 C-5.36914349 5.21339607 -5.36914349 5.21339607 -5 2 C-2 0 -2 0 0 0 Z " fill="#E01669" transform="translate(32,168)"/>
<path d="M0 0 C4.40960646 1.30655006 7.9436998 3.02559043 11.8125 5.5 C12.97041645 6.22935542 14.12931899 6.95714705 15.2890625 7.68359375 C16.20026855 8.2556958 16.20026855 8.2556958 17.12988281 8.83935547 C20.28578759 10.79799402 23.48433844 12.68244217 26.6875 14.5625 C27.7242688 15.17146118 27.7242688 15.17146118 28.78198242 15.79272461 C35.54257989 19.75132519 42.33536229 23.65400582 49.125 27.5625 C68.33565061 38.62489436 68.33565061 38.62489436 77 44 C78.55528915 44.75999298 78.55528915 44.75999298 80.14199829 45.53533936 C83.20343127 48.17543343 83.42068043 48.39032241 83.7215271 52.12554932 C83.73890678 53.83919811 83.72299266 55.55337547 83.68115234 57.26660156 C83.68246658 58.67199188 83.68246658 58.67199188 83.68380737 60.10577393 C83.67962831 63.20157347 83.63296035 66.29520421 83.5859375 69.390625 C83.57474652 71.53723975 83.56620587 73.68386982 83.56021118 75.83050537 C83.5373054 81.47963799 83.478366 87.12784454 83.4119873 92.77661133 C83.35060313 98.54105094 83.32320436 104.30564024 83.29296875 110.0703125 C83.22862535 121.38061515 83.12622383 132.69023056 83 144 C82.67 144 82.34 144 82 144 C82 112.65 82 81.3 82 49 C77.71 51.64 73.42 54.28 69 57 C60.26540674 62.13157354 60.26540674 62.13157354 55 63 C54.67 63.99 54.34 64.98 54 66 C51.5376635 67.52042738 49.13136818 68.87578799 46.5625 70.1875 C45.86833984 70.55552734 45.17417969 70.92355469 44.45898438 71.30273438 C39.28964228 74 39.28964228 74 37 74 C37 74.66 37 75.32 37 76 C36.47535156 76.24492187 35.95070313 76.48984375 35.41015625 76.7421875 C29.69074448 79.50197022 24.20951502 82.5781175 18.75 85.8125 C18.02619141 86.24071045 17.30238281 86.6689209 16.55664062 87.11010742 C13.66818744 88.82120197 10.78113863 90.53461766 7.89697266 92.25292969 C5.95657927 93.4055187 4.0103903 94.54764055 2.0625 95.6875 C0.93972656 96.35136719 -0.18304688 97.01523437 -1.33984375 97.69921875 C-2.65662109 98.34310547 -2.65662109 98.34310547 -4 99 C-4.66 98.67 -5.32 98.34 -6 98 C-5.35093185 97.68966827 -4.70186371 97.37933655 -4.03312683 97.05960083 C-1.3998948 94.39208064 -1.50720123 92.31567931 -1.44996643 88.67248535 C-1.45656784 87.8058728 -1.46316925 86.93926025 -1.4699707 86.04638672 C-1.46123932 85.1307193 -1.45250793 84.21505188 -1.44351196 83.27163696 C-1.419086 80.24078925 -1.42254969 77.21062128 -1.42578125 74.1796875 C-1.41334351 72.07885569 -1.39901137 69.97803431 -1.38285828 67.87722778 C-1.34476712 62.34395205 -1.32963239 56.81085552 -1.32006836 51.27746582 C-1.30034959 42.41260657 -1.243633 33.54788449 -1.19130516 24.68317032 C-1.17589765 21.57814599 -1.16875634 18.47318945 -1.16316223 15.36813354 C-1.15614955 13.47703009 -1.14904891 11.58592696 -1.1418457 9.69482422 C-1.14237442 8.82416321 -1.14290314 7.9535022 -1.14344788 7.05645752 C-1.11321629 1.11321629 -1.11321629 1.11321629 0 0 Z " fill="#A9CC42" transform="translate(273,217)"/>
<path d="M0 0 C0.99 0.495 0.99 0.495 2 1 C2.51151113 13.29034389 2.90146554 25.57813087 3.13986778 37.87697887 C3.25435209 43.58971567 3.40929141 49.29513815 3.65966797 55.00366211 C5.23767446 91.91833494 5.23767446 91.91833494 -0.10949707 100.3109436 C-5.14630123 105.09255422 -10.71636946 107.43073423 -17.35346985 109.21913147 C-21.17443272 110.34652073 -24.13611657 112.19648838 -27.5 114.3125 C-29.66618359 115.54251781 -31.83284921 116.7716871 -34 118 C-36.48026866 119.41474047 -38.95887965 120.83237419 -41.4375 122.25 C-44.71875 124.125 -44.71875 124.125 -48 126 C-48.60577881 126.35537842 -49.21155762 126.71075684 -49.83569336 127.0769043 C-53.38566268 129.14728889 -56.81129436 130.66149687 -60.69140625 132.0078125 C-64.73311102 133.74485651 -68.37293352 136.20573858 -72.0703125 138.57421875 C-75 140 -75 140 -81 140 C-81 110.3 -81 80.6 -81 50 C-79.02 50.33 -77.04 50.66 -75 51 C-75 51.66 -75 52.32 -75 53 C-73.68 53 -72.36 53 -71 53 C-70.67 53.66 -70.34 54.32 -70 55 C-66.39670692 57.2060978 -62.73159782 59.14672914 -58.9375 61 C-54.56153241 63.15824421 -50.46946494 65.53053506 -47 69 C-43.91290284 70.10841076 -40.78996291 71.04491022 -37.65234375 72 C-35 73 -35 73 -34 75 C-33.01 75.33 -32.02 75.66 -31 76 C-31 76.99 -31 77.98 -31 79 C-30.34 79 -29.68 79 -29 79 C-29 79.66 -29 80.32 -29 81 C-28.11248047 81.16435547 -28.11248047 81.16435547 -27.20703125 81.33203125 C-22.64613118 82.24718738 -18.76068565 83.08850143 -15 86 C-15 86.66 -15 87.32 -15 88 C-14.236875 87.938125 -13.47375 87.87625 -12.6875 87.8125 C-10 88 -10 88 -8.1875 89.375 C-7 91 -7 91 -7 93 C-6.195625 93.12375 -5.39125 93.2475 -4.5625 93.375 C-3.716875 93.58125 -2.87125 93.7875 -2 94 C-1.67 94.66 -1.34 95.32 -1 96 C-2.65 96 -4.3 96 -6 96 C-5.67 96.99 -5.34 97.98 -5 99 C-2.37259066 98.14228195 -2.37259066 98.14228195 0 96 C0.51465572 92.83642692 0.69091792 90.20044443 0.65942383 87.03051758 C0.66990753 86.11324387 0.68039124 85.19597015 0.69119263 84.25090027 C0.72002362 81.21510323 0.71364164 78.18044111 0.70703125 75.14453125 C0.72014139 73.04130111 0.7354435 70.93808358 0.75285339 68.83488464 C0.79279608 63.29624831 0.80289983 57.75794063 0.80688477 52.21917725 C0.81619872 46.56854218 0.85360133 40.91810165 0.88867188 35.26757812 C0.95334216 24.17839458 0.98650483 13.0893556 1 2 C-0.32 2.33 -1.64 2.66 -3 3 C-2.01 2.01 -1.02 1.02 0 0 Z " fill="#EA2232" transform="translate(191,75)"/>
<path d="M0 0 C1.32 0.33 2.64 0.66 4 1 C4 1.66 4 2.32 4 3 C5.051875 3.1546875 5.051875 3.1546875 6.125 3.3125 C9.39137647 4.09359003 12.0471852 5.42058743 15 7 C15 7.66 15 8.32 15 9 C15.57363281 9.13019531 16.14726562 9.26039063 16.73828125 9.39453125 C23.41810321 11.1827392 29.10608774 14.58832247 34.74609375 18.4921875 C36.96598289 19.97724332 39.21853287 21.28397247 41.5625 22.5625 C44.5964674 24.21836249 47.60110108 25.90440417 50.5625 27.6875 C51.22378906 28.08324219 51.88507813 28.47898437 52.56640625 28.88671875 C53.03949219 29.25410156 53.51257813 29.62148438 54 30 C54 30.66 54 31.32 54 32 C54.928125 32.185625 54.928125 32.185625 55.875 32.375 C58 33 58 33 60 35 C61.66039323 35.73057302 63.3230565 36.4566983 65 37.1484375 C70.22145611 39.37163561 75.1610685 42.04287519 80 45 C81.32942919 45.67441846 82.66220019 46.34234211 84 47 C82.53125 47.85677083 81.0625 48.71354167 79.59375 49.5703125 C78.63484863 50.12968506 77.67594727 50.68905762 76.68798828 51.26538086 C74.53015772 52.52408781 72.37227872 53.78271172 70.21435547 55.04125977 C64.80065333 58.19879625 59.38753124 61.35731168 53.9765625 64.51953125 C40.21781595 72.55778305 26.43657677 80.55651979 12.61767578 88.4909668 C11.00725132 89.41934151 9.4005609 90.35427449 7.80029297 91.30004883 C1.91449985 94.76115275 1.91449985 94.76115275 -2 94 C-3.8125 92.5 -3.8125 92.5 -5 91 C-3.68 91 -2.36 91 -1 91 C-0.67 60.97 -0.34 30.94 0 0 Z " fill="#1BAADE" transform="translate(191,361)"/>
<path d="M0 0 C0.66 0 1.32 0 2 0 C2 30.36 2 60.72 2 92 C1.34 92 0.68 92 0 92 C0 91.34 0 90.68 0 90 C-0.93199219 90.12503906 -1.86398438 90.25007813 -2.82421875 90.37890625 C-8.60080739 90.35721693 -13.05322698 86.88212259 -17.8125 83.9375 C-19.95773455 82.64744126 -22.10358985 81.35841432 -24.25 80.0703125 C-25.35859375 79.3990332 -26.4671875 78.72775391 -27.609375 78.03613281 C-33.13334591 74.71888646 -38.7244387 71.52014723 -44.3125 68.3125 C-46.47526488 67.06120564 -48.63802537 65.80990368 -50.80078125 64.55859375 C-54.77873697 62.26402336 -58.7739099 60.00688921 -62.79296875 57.78515625 C-63.67750732 57.29039795 -64.5620459 56.79563965 -65.47338867 56.28588867 C-67.10613818 55.37414267 -68.7452839 54.47371669 -70.3918457 53.5871582 C-75.66720815 50.62225143 -75.66720815 50.62225143 -77.5 47.1953125 C-77.665 46.47085938 -77.83 45.74640625 -78 45 C-77.34 45 -76.68 45 -76 45 C-76 44.34 -76 43.68 -76 43 C-72.63316085 40.56839395 -71.26649636 40 -67 40 C-67 39.34 -67 38.68 -67 38 C-60.5 34 -60.5 34 -56 34 C-55.67 33.01 -55.34 32.02 -55 31 C-53.35 30.67 -51.7 30.34 -50 30 C-50 29.34 -50 28.68 -50 28 C-49.44570313 27.74605469 -48.89140625 27.49210937 -48.3203125 27.23046875 C-47.59585938 26.88628906 -46.87140625 26.54210937 -46.125 26.1875 C-45.40570313 25.85105469 -44.68640625 25.51460938 -43.9453125 25.16796875 C-41.69457194 24.00532903 -41.69457194 24.00532903 -40 21 C-38.35598013 20.53028004 -36.70933499 20.06784065 -35.05078125 19.65234375 C-31.07486961 18.38762519 -27.5851299 16.09730099 -24 14 C-22.37773924 13.07849428 -20.75280491 12.16167645 -19.125 11.25 C-18.40570313 10.84265625 -17.68640625 10.4353125 -16.9453125 10.015625 C-15 9 -15 9 -12 8 C-12 7.34 -12 6.68 -12 6 C-7.9811485 4.18757677 -4.38889325 2.66498383 0 2 C0 1.34 0 0.68 0 0 Z " fill="#563662" transform="translate(108,314)"/>
<path d="M0 0 C0 28.71 0 57.42 0 87 C-4.80470002 88.201175 -6.66413469 86.98993071 -10.75 84.75 C-14.66168463 82.69039072 -18.51342172 80.67213492 -22.6875 79.1875 C-26 78 -26 78 -29 76 C-29 75.34 -29 74.68 -29 74 C-30.11375 73.9175 -31.2275 73.835 -32.375 73.75 C-34.169375 73.37875 -34.169375 73.37875 -36 73 C-37.0625 71.0625 -37.0625 71.0625 -38 69 C-39.97583715 68.26480478 -41.98177598 67.60927518 -44 67 C-46.39917261 65.75954602 -48.682015 64.390791 -51 63 C-51 62.34 -51 61.68 -51 61 C-51.70125 60.7525 -52.4025 60.505 -53.125 60.25 C-56.97169711 58.577523 -60.55963323 56.5499599 -63.4375 53.453125 C-65.22401037 51.79167036 -66.54755751 51.35313044 -68.875 50.6875 C-73.3953541 49.13623457 -75.26280513 46.84918029 -78 43 C-76.55437983 39.30481531 -74.9321476 38.07703252 -71.44921875 36.265625 C-70.52963379 35.77811768 -69.61004883 35.29061035 -68.66259766 34.78833008 C-67.68081543 34.28068115 -66.6990332 33.77303223 -65.6875 33.25 C-63.66655054 32.17845173 -61.64700996 31.10424199 -59.62890625 30.02734375 C-58.16541748 29.24786377 -58.16541748 29.24786377 -56.67236328 28.45263672 C-52.38095159 26.11992161 -48.276062 23.53813673 -44.14453125 20.93359375 C-39.75285563 18.23312241 -35.25685217 15.73323074 -30.75097656 13.22949219 C-26.90434846 11.08789651 -23.12106604 8.87773781 -19.375 6.5625 C-14.17915105 3.42062149 -10.07211938 2 -4 2 C-1 0 -1 0 0 0 Z " fill="#A3252E" transform="translate(109,127)"/>
<path d="M0 0 C0.66 0 1.32 0 2 0 C2 0.66 2 1.32 2 2 C2.969375 2.22558594 3.93875 2.45117188 4.9375 2.68359375 C9.72224707 4.05632615 13.7532724 6.51784763 18 9.0625 C18.82725586 9.54984619 19.65451172 10.03719238 20.50683594 10.53930664 C23.00999034 12.0172841 25.50601379 13.50661308 28 15 C28.73541016 15.43924805 29.47082031 15.87849609 30.22851562 16.33105469 C32.82732558 17.88429692 35.42546509 19.4384694 38.015625 21.00610352 C41.37146324 23.03698768 44.754601 25.01082351 48.16503906 26.94848633 C50.82683039 28.47381034 53.46375673 30.04030026 56.10327148 31.60375977 C63.96155408 36.25724293 71.82697264 40.91348632 80 45 C79.67 45.99 79.34 46.98 79 48 C77 48.66666667 75 49.33333333 73 50 C72.67 50.99 72.34 51.98 72 53 C69.73286466 54.55384602 67.50243775 55.94896953 65.125 57.3125 C64.50625 57.67794922 63.8875 58.04339844 63.25 58.41992188 C59.47432745 60.63258828 55.64802231 62.74279265 51.80078125 64.828125 C45.49069751 68.25489036 39.27555511 71.83854115 33.0625 75.4375 C31.97259766 76.06720703 30.88269531 76.69691406 29.75976562 77.34570312 C28.67501953 77.97283203 27.59027344 78.59996094 26.47265625 79.24609375 C25.4038623 79.86331299 24.33506836 80.48053223 23.23388672 81.11645508 C21.03496517 82.3971949 18.84410881 83.69186147 16.66064453 84.9987793 C15.60087402 85.63082275 14.54110352 86.26286621 13.44921875 86.9140625 C12.02935669 87.76991943 12.02935669 87.76991943 10.58081055 88.64306641 C7.26165906 90.38820348 4.72046831 90.9154439 1 91 C-0.2331047 81.43383828 -0.1271271 71.93073027 -0.09765625 62.3046875 C-0.09578808 60.50294026 -0.09436606 58.70119251 -0.09336853 56.89944458 C-0.08957474 52.1878923 -0.07977172 47.4763715 -0.06866455 42.76483154 C-0.0583825 37.94478786 -0.05385643 33.12473902 -0.04882812 28.3046875 C-0.03814624 18.86977794 -0.0211081 9.4348916 0 0 Z " fill="#186E3F" transform="translate(274,314)"/>
<path d="M0 0 C10.14107134 4.02354883 19.35980699 9.33020092 28.66162109 14.97753906 C35.78081069 19.29291575 42.96931561 23.47758123 50.1875 27.625 C60.1606763 33.35738286 70.10097632 39.14055005 80 45 C79.1953125 46.953125 79.1953125 46.953125 78 49 C74.875 49.75 74.875 49.75 72 50 C72 50.66 72 51.32 72 52 C71.34 52 70.68 52 70 52 C70 52.66 70 53.32 70 54 C68.96875 54.433125 67.9375 54.86625 66.875 55.3125 C60.90261512 57.89257027 55.57463561 60.86482746 50.24609375 64.59765625 C47.89962688 66.06266774 45.56484926 66.97809943 43 68 C41.59953662 68.8772714 40.22422203 69.79579735 38.875 70.75 C34.70911353 73.59600165 30.41131648 75.99082596 25.9609375 78.359375 C22.68979853 80.17187944 19.53986051 82.13312975 16.375 84.125 C11.37627023 87.24248738 6.45276267 89.78192705 1 92 C0.03379684 81.1649124 -0.13269666 70.43850198 -0.09765625 59.5703125 C-0.09578601 57.84154298 -0.09436498 56.11277293 -0.09336853 54.38400269 C-0.08959103 49.88293944 -0.07980278 45.38190962 -0.06866455 40.88085938 C-0.05834662 36.26823376 -0.0538489 31.65560263 -0.04882812 27.04296875 C-0.03817513 18.02863133 -0.02115767 9.01431847 0 0 Z " fill="#1B6795" transform="translate(110,314)"/>
<path d="M0 0 C3.24026426 0.51881636 5.74720025 1.83538374 8.578125 3.44921875 C9.93019043 4.21613037 9.93019043 4.21613037 11.30957031 4.99853516 C12.27991211 5.55589355 13.25025391 6.11325195 14.25 6.6875 C15.26416992 7.2654834 16.27833984 7.8434668 17.32324219 8.43896484 C25.6597638 13.20177623 33.96415011 18.02074884 42.24316406 22.8828125 C47.0505083 25.70599717 51.86887391 28.50069174 56.734375 31.22265625 C57.62479492 31.72458496 58.51521484 32.22651367 59.43261719 32.74365234 C61.10516008 33.68425891 62.78270183 34.61604862 64.46582031 35.53759766 C66.36031 36.60808842 68.18911754 37.79345685 70 39 C70 39.99 70 40.98 70 42 C68.81470703 42.67482422 68.81470703 42.67482422 67.60546875 43.36328125 C60.70147398 47.30053084 53.81234993 51.26207229 46.9375 55.25 C39.15140521 59.76498546 31.34990153 64.25236957 23.52563477 68.70092773 C19.55395221 70.95996438 15.59277617 73.23061141 11.66796875 75.5703125 C11.01997314 75.95292236 10.37197754 76.33553223 9.7043457 76.72973633 C8.00440667 77.73590603 6.31053374 78.75230527 4.6171875 79.76953125 C2 81 2 81 -1 80 C-1.02312376 69.71695462 -1.04091525 59.43391538 -1.05181217 49.15084934 C-1.05704093 44.3765172 -1.06413844 39.60220279 -1.07543945 34.82788086 C-1.0862686 30.22433738 -1.09227689 25.62081101 -1.09487724 21.01725578 C-1.09673144 19.25690377 -1.10035196 17.49655274 -1.10573006 15.73620796 C-1.11294086 13.27927723 -1.11399093 10.82241805 -1.11352539 8.36547852 C-1.11712067 7.63036545 -1.12071594 6.89525238 -1.12442017 6.13786316 C-1.11405216 1.11405216 -1.11405216 1.11405216 0 0 Z " fill="#EF612D" transform="translate(209,75)"/>
<path d="M0 0 C0 23.43 0 46.86 0 71 C-3.92820066 70.21435987 -5.64110988 69.8661306 -8.8203125 67.9609375 C-9.51503662 67.5486792 -10.20976074 67.1364209 -10.92553711 66.71166992 C-11.65135986 66.27056885 -12.37718262 65.82946777 -13.125 65.375 C-13.87982666 64.92423096 -14.63465332 64.47346191 -15.41235352 64.0090332 C-19.63593929 61.47452102 -23.80370629 58.86648219 -27.9375 56.1875 C-31.92712412 53.61161656 -35.9763116 51.44822549 -40.25 49.38671875 C-43.67149354 47.66139175 -46.99011511 45.78273674 -50.3125 43.875 C-50.89942627 43.53799072 -51.48635254 43.20098145 -52.09106445 42.85375977 C-55.41451232 40.93600268 -58.71577018 38.98409381 -62 37 C-60.49370222 32.78606266 -58.0337601 31.58053927 -54.1875 29.5 C-52.90979997 28.79621935 -51.63247997 28.09174847 -50.35546875 27.38671875 C-49.65728027 27.00563965 -48.9590918 26.62456055 -48.23974609 26.23193359 C-44.13288314 23.97302467 -40.06889354 21.63888107 -36 19.3125 C-35.12384033 18.81395508 -34.24768066 18.31541016 -33.3449707 17.80175781 C-28.48866314 15.03022212 -23.66347335 12.21412761 -18.8671875 9.33984375 C-17.86558594 8.74067139 -16.86398438 8.14149902 -15.83203125 7.52416992 C-13.89101862 6.3595944 -11.95338871 5.18935839 -10.01953125 4.01293945 C-9.14425781 3.48788818 -8.26898438 2.96283691 -7.3671875 2.421875 C-6.20872314 1.71949707 -6.20872314 1.71949707 -5.02685547 1.00292969 C-3 0 -3 0 0 0 Z " fill="#B82482" transform="translate(111,230)"/>
<path d="M0 0 C0.15371555 8.04915301 0.30189705 16.09838053 0.4429636 24.14776421 C0.50863748 27.88518741 0.57623581 31.62255536 0.64819336 35.35986328 C0.71753258 38.96482565 0.78186742 42.56984541 0.84269524 46.17496109 C0.86681885 47.55213808 0.89276262 48.92928441 0.92053413 50.30639267 C0.95904661 52.23135306 0.99055769 54.1564497 1.02172852 56.08154297 C1.04171402 57.17852509 1.06169952 58.2755072 1.08229065 59.4057312 C1 62 1 62 0 64 C-4.86929975 63.48476858 -7.96632733 62.08370004 -12.0625 59.4375 C-13.20828107 58.70955315 -14.35411594 57.98169097 -15.5 57.25390625 C-16.08007812 56.88023926 -16.66015625 56.50657227 -17.2578125 56.12158203 C-25.02672511 51.1201268 -32.81301878 46.48016022 -41.12890625 42.44921875 C-44.88599616 40.55278289 -48.45827598 38.40679102 -52.0390625 36.19921875 C-53.97528687 34.97688952 -53.97528687 34.97688952 -56 34 C-55.70605469 32.13476562 -55.70605469 32.13476562 -55 30 C-52.43508496 28.32247263 -49.96162981 26.9003028 -47.25 25.5 C-45.60468105 24.61865643 -43.960183 23.73577907 -42.31640625 22.8515625 C-41.01533936 22.15788574 -41.01533936 22.15788574 -39.68798828 21.45019531 C-35.14551732 18.99948891 -30.6667315 16.43896829 -26.1875 13.875 C-25.30368652 13.37129883 -24.41987305 12.86759766 -23.50927734 12.34863281 C-17.36731401 8.83205773 -11.34387554 5.16691176 -5.3984375 1.328125 C-3 0 -3 0 0 0 Z " fill="#38B24E" transform="translate(356,186)"/>
<path d="M0 0 C0 17.82 0 35.64 0 54 C-4.26804563 54 -5.36560772 53.47987614 -8.90234375 51.359375 C-9.86591797 50.78848145 -10.82949219 50.21758789 -11.82226562 49.62939453 C-12.85029297 49.00919434 -13.87832031 48.38899414 -14.9375 47.75 C-17.09191039 46.47044869 -19.24686998 45.19182168 -21.40234375 43.9140625 C-22.49530762 43.2634082 -23.58827148 42.61275391 -24.71435547 41.94238281 C-29.77849243 38.94860412 -34.88666727 36.03370495 -40 33.125 C-41.36112915 32.34914551 -41.36112915 32.34914551 -42.74975586 31.55761719 C-44.83257317 30.37068995 -46.91595693 29.18477322 -49 28 C-49 27.01 -49 26.02 -49 25 C-48.30664551 24.60321045 -47.61329102 24.2064209 -46.89892578 23.79760742 C-44.23621407 22.2721276 -41.57473166 20.74453062 -38.91415405 19.21533203 C-37.72395047 18.53158467 -36.53337961 17.84847623 -35.34243774 17.16601562 C-29.3158743 13.71080648 -23.30999358 10.23988362 -17.44140625 6.51953125 C-16.62849121 6.00559814 -15.81557617 5.49166504 -14.97802734 4.9621582 C-13.48439559 4.00869832 -11.99854788 3.0428993 -10.52197266 2.06323242 C-6.16820703 -0.71325814 -5.35659554 -1.07131911 0 0 Z " fill="#E71969" transform="translate(382,86)"/>
<path d="M0 0 C4.337384 0.8674768 6.32632531 1.54760966 9.94921875 3.73046875 C10.88056641 4.28669922 11.81191406 4.84292969 12.77148438 5.41601562 C14.21491211 6.29290039 14.21491211 6.29290039 15.6875 7.1875 C16.63044922 7.75275391 17.57339844 8.31800781 18.54492188 8.90039062 C21.36724314 10.59378339 24.18423973 12.29572405 27 14 C32.32616332 17.22131558 37.64294801 20.42312585 43.125 23.375 C44.05570312 23.87773438 44.98640625 24.38046875 45.9453125 24.8984375 C46.62335938 25.26195313 47.30140625 25.62546875 48 26 C48 27.32 48 28.64 48 30 C46.01904297 31.61230469 46.01904297 31.61230469 43.2421875 33.171875 C42.23019287 33.75018066 41.21819824 34.32848633 40.17553711 34.92431641 C39.08635986 35.52679199 37.99718262 36.12926758 36.875 36.75 C35.77873291 37.37181152 34.68246582 37.99362305 33.55297852 38.63427734 C31.36810855 39.87212837 29.17975922 41.10386042 26.98779297 42.32910156 C23.86103591 44.07771452 20.75173896 45.85437379 17.64697266 47.64160156 C15.10378349 49.10460727 12.55119155 50.55100561 10 52 C9.40074707 52.37350586 8.80149414 52.74701172 8.18408203 53.13183594 C6.49905772 54.16179328 4.75170018 55.08804302 3 56 C2.01 55.67 1.02 55.34 0 55 C0 36.85 0 18.7 0 0 Z " fill="#F27D28" transform="translate(296,40)"/>
<path d="M0 0 C0 17.16 0 34.32 0 52 C-3 53 -3 53 -4.93505859 52.20239258 C-5.66547363 51.77079834 -6.39588867 51.3392041 -7.1484375 50.89453125 C-7.97939941 50.41105225 -8.81036133 49.92757324 -9.66650391 49.42944336 C-10.56030762 48.89585205 -11.45411133 48.36226074 -12.375 47.8125 C-14.26534486 46.70525076 -16.15597873 45.5984948 -18.046875 44.4921875 C-19.02333984 43.91694336 -19.99980469 43.34169922 -21.00585938 42.74902344 C-23.97325487 41.01562313 -26.95817261 39.31809099 -29.953125 37.6328125 C-30.90396973 37.0968042 -31.85481445 36.5607959 -32.83447266 36.00854492 C-34.66599218 34.97741385 -36.49895641 33.94884383 -38.33349609 32.9230957 C-39.57993896 32.21672974 -39.57993896 32.21672974 -40.8515625 31.49609375 C-41.58197754 31.08544678 -42.31239258 30.6747998 -43.06494141 30.25170898 C-44.98711534 29.00833455 -46.45134826 27.67755368 -48 26 C-45.08161131 22.80564075 -42.2824934 20.89759442 -38.4375 18.9375 C-32.60527184 15.88283751 -26.88255212 12.67845252 -21.1875 9.375 C-20.00595337 8.69232056 -20.00595337 8.69232056 -18.80053711 7.99584961 C-18.03491455 7.55120361 -17.26929199 7.10655762 -16.48046875 6.6484375 C-15.7332959 6.21499023 -14.98612305 5.78154297 -14.21630859 5.33496094 C-12.71740228 4.43211673 -11.24095945 3.49106926 -9.78759766 2.51660156 C-9.09069824 2.04963867 -8.39379883 1.58267578 -7.67578125 1.1015625 C-6.75599487 0.46081787 -6.75599487 0.46081787 -5.81762695 -0.19287109 C-4 -1 -4 -1 0 0 Z " fill="#26BCE3" transform="translate(307,131)"/>
<path d="M0 0 C0.99 0.33 1.98 0.66 3 1 C3 15.52 3 30.04 3 45 C-1.45271567 44.10945687 -3.6138796 43.28859108 -7.38671875 41.05078125 C-8.9190918 40.14875977 -8.9190918 40.14875977 -10.48242188 39.22851562 C-11.54009766 38.59623047 -12.59777344 37.96394531 -13.6875 37.3125 C-14.72583984 36.69955078 -15.76417969 36.08660156 -16.83398438 35.45507812 C-18.89501254 34.23655176 -20.95222307 33.01154276 -23.00537109 31.77978516 C-24.98972954 30.60042978 -26.98755552 29.44342458 -28.99853516 28.31005859 C-29.91296387 27.78879395 -30.82739258 27.2675293 -31.76953125 26.73046875 C-32.58655518 26.27438232 -33.4035791 25.8182959 -34.24536133 25.34838867 C-34.82439209 24.90342041 -35.40342285 24.45845215 -36 24 C-36 23.01 -36 22.02 -36 21 C-35.37134033 20.64808594 -34.74268066 20.29617187 -34.0949707 19.93359375 C-31.16591133 18.29184164 -28.2389452 16.64640742 -25.3125 15 C-24.26352539 14.4107373 -23.21455078 13.82147461 -22.13378906 13.21435547 C-15.3897788 9.40691686 -8.78984979 5.46281523 -2.328125 1.1953125 C-1.55984375 0.80085938 -0.7915625 0.40640625 0 0 Z " fill="#3692BF" transform="translate(376,19)"/>
<path d="M0 0 C0 0.66 0 1.32 0 2 C-0.99 2.33 -1.98 2.66 -3 3 C-3.33 34.02 -3.66 65.04 -4 97 C10.76396415 88.48232838 25.51367748 79.95240623 40.23046875 71.35546875 C49.81498976 65.77001207 59.45894381 60.2881546 69.10205078 54.8046875 C74.86968427 51.52446244 80.63242497 48.24312636 86.3125 44.8125 C89.53053753 42.87635841 92.74941304 40.94360279 96 39.0625 C96.721875 38.64097656 97.44375 38.21945313 98.1875 37.78515625 C98.785625 37.52605469 99.38375 37.26695312 100 37 C100.66 37.33 101.32 37.66 102 38 C90.1257081 45.22307157 78.0846522 52.13597713 66 59 C54.38505956 65.59778344 42.82866052 72.2938888 31.30957031 79.05761719 C29.03687535 80.39145911 26.76298477 81.72303658 24.48730469 83.05175781 C21.0057285 85.08585169 17.53385293 87.13600722 14.0625 89.1875 C12.42704224 90.14088257 12.42704224 90.14088257 10.75854492 91.11352539 C9.75670166 91.7089917 8.7548584 92.30445801 7.72265625 92.91796875 C6.83328369 93.44156982 5.94391113 93.9651709 5.02758789 94.50463867 C2.70861553 95.91447909 2.70861553 95.91447909 2 99 C8.6 102.96 15.2 106.92 22 111 C21.01 111.495 21.01 111.495 20 112 C17.89282227 111.04370117 17.89282227 111.04370117 15.31640625 109.54296875 C14.38892578 109.00736328 13.46144531 108.47175781 12.50585938 107.91992188 C11.04889648 107.06237305 11.04889648 107.06237305 9.5625 106.1875 C8.59505859 105.62740234 7.62761719 105.06730469 6.63085938 104.49023438 C3.02950834 102.39840175 -0.53395978 100.31069348 -4 98 C-4 129.02 -4 160.04 -4 192 C-4.33 192 -4.66 192 -5 192 C-5.06999525 167.26163906 -5.12294157 142.5232929 -5.15543652 117.78485298 C-5.17092365 106.29908061 -5.19204834 94.81336967 -5.22631836 83.32763672 C-5.2561643 73.31990357 -5.27556156 63.31221489 -5.28226548 53.30443847 C-5.28618591 48.00246482 -5.29543757 42.70061843 -5.31719017 37.39868546 C-5.33747951 32.41323921 -5.34384918 27.42797323 -5.33932304 22.44248962 C-5.34015164 20.60822954 -5.34616209 18.77396373 -5.35761642 16.93973923 C-5.37244266 14.44414909 -5.36899021 11.94924838 -5.36076355 9.4536438 C-5.36950207 8.72018931 -5.3782406 7.98673481 -5.38724393 7.23105443 C-5.36914349 5.21339607 -5.36914349 5.21339607 -5 2 C-2 0 -2 0 0 0 Z " fill="#F3D1E5" transform="translate(32,168)"/>
<path d="M0 0 C2.375 0.75 2.375 0.75 5 2 C5.33 2.680625 5.66 3.36125 6 4.0625 C6.33 4.701875 6.66 5.34125 7 6 C9.36195411 6.60602665 9.36195411 6.60602665 12 7 C15.18856289 8.67019961 17.47959896 10.47959896 20 13 C22.09989652 14.17574711 22.09989652 14.17574711 24 15 C21 16 21 16 18.3125 14.6875 C17.549375 14.130625 16.78625 13.57375 16 13 C16 12.34 16 11.68 16 11 C9.2154697 8.06907613 9.2154697 8.06907613 2 7 C1.67 35.05 1.34 63.1 1 92 C1.99 92.33 2.98 92.66 4 93 C1.525 93.99 1.525 93.99 -1 95 C-1.02312166 82.76119671 -1.04091418 70.52239857 -1.05181217 58.28357792 C-1.05704139 52.60123488 -1.06413973 46.91890673 -1.07543945 41.23657227 C-1.08626696 35.75770864 -1.09227654 30.27885938 -1.09487724 24.79998589 C-1.09673174 22.70470389 -1.10035282 20.60942272 -1.10573006 18.5141468 C-1.11293868 15.59022416 -1.11399102 12.66636167 -1.11352539 9.74243164 C-1.11712067 8.8670575 -1.12071594 7.99168335 -1.12442017 7.08978271 C-1.11405216 1.11405216 -1.11405216 1.11405216 0 0 Z " fill="#D83B7E" transform="translate(29,170)"/>
<path d="M0 0 C4.6593982 1.3613302 8.40044394 3.28837534 12.5 5.875 C13.5828125 6.55304688 14.665625 7.23109375 15.78125 7.9296875 C18.87749814 9.92120632 21.94410827 11.94739802 25 14 C24.01 14.495 24.01 14.495 23 15 C20.71676253 13.84040302 18.56138354 12.63487243 16.375 11.3125 C12.55855235 9.03842934 8.7473389 6.83648544 4.76416016 4.86401367 C4.05570953 4.5123967 3.34725891 4.16077972 2.61734009 3.79850769 C1.81675674 3.40324638 1.81675674 3.40324638 1 3 C1.01110306 4.15844925 1.02220612 5.3168985 1.03364563 6.51045227 C1.13489142 17.41409431 1.20990283 28.31764131 1.25906086 39.22164631 C1.28518304 44.82789473 1.32062938 50.43376448 1.37719727 56.03979492 C1.43142285 61.44738181 1.46140077 66.85460391 1.47438622 72.26244164 C1.48364306 74.32821588 1.50171916 76.39396958 1.52865028 78.459589 C1.5648148 81.34760707 1.56995062 84.23410734 1.56762695 87.12231445 C1.58560333 87.98114731 1.60357971 88.83998016 1.62210083 89.72483826 C1.60127258 92.1085968 1.60127258 92.1085968 1 96 C-1.41047668 98.11735535 -1.41047668 98.11735535 -4 99 C-4.66 98.67 -5.32 98.34 -6 98 C-5.35093185 97.68966827 -4.70186371 97.37933655 -4.03312683 97.05960083 C-1.3998948 94.39208064 -1.50720123 92.31567931 -1.44996643 88.67248535 C-1.45656784 87.8058728 -1.46316925 86.93926025 -1.4699707 86.04638672 C-1.46123932 85.1307193 -1.45250793 84.21505188 -1.44351196 83.27163696 C-1.419086 80.24078925 -1.42254969 77.21062128 -1.42578125 74.1796875 C-1.41334351 72.07885569 -1.39901137 69.97803431 -1.38285828 67.87722778 C-1.34476712 62.34395205 -1.32963239 56.81085552 -1.32006836 51.27746582 C-1.30034959 42.41260657 -1.243633 33.54788449 -1.19130516 24.68317032 C-1.17589765 21.57814599 -1.16875634 18.47318945 -1.16316223 15.36813354 C-1.15614955 13.47703009 -1.14904891 11.58592696 -1.1418457 9.69482422 C-1.14237442 8.82416321 -1.14290314 7.9535022 -1.14344788 7.05645752 C-1.11321629 1.11321629 -1.11321629 1.11321629 0 0 Z " fill="#E5F0C9" transform="translate(273,217)"/>
<path d="M0 0 C0.66 0.33 1.32 0.66 2 1 C2.51151113 13.29034389 2.90146554 25.57813087 3.13986778 37.87697887 C3.25435209 43.58971567 3.40929141 49.29513815 3.65966797 55.00366211 C5.23767446 91.91833494 5.23767446 91.91833494 -0.10949707 100.3109436 C-5.14630123 105.09255422 -10.71636946 107.43073423 -17.35346985 109.21913147 C-21.17443272 110.34652073 -24.13611657 112.19648838 -27.5 114.3125 C-29.66618359 115.54251781 -31.83284921 116.7716871 -34 118 C-36.48026866 119.41474047 -38.95887965 120.83237419 -41.4375 122.25 C-44.71875 124.125 -44.71875 124.125 -48 126 C-48.62535645 126.38220703 -49.25071289 126.76441406 -49.89501953 127.15820312 C-51.56324189 128.16318751 -53.27903132 129.0882839 -55 130 C-55.66 129.67 -56.32 129.34 -57 129 C-53.25 126 -53.25 126 -51 126 C-51 125.34 -51 124.68 -51 124 C-50.34 124 -49.68 124 -49 124 C-49 123.34 -49 122.68 -49 122 C-48.030625 121.71125 -47.06125 121.4225 -46.0625 121.125 C-42.89335797 120.35785318 -42.89335797 120.35785318 -42 118 C-40.3203125 117.39453125 -40.3203125 117.39453125 -38.125 116.8125 C-33.04049423 115.2281389 -29.02487543 112.6149036 -24.609375 109.6875 C-22.49369706 108.31927714 -20.45350564 107.1470839 -18.1875 106.0625 C-17.606586 105.76178589 -17.025672 105.46107178 -16.42715454 105.15124512 C-14 104 -14 104 -10.58432007 102.7989502 C-6.50730837 101.1792935 -2.86133196 99.41037536 0 96 C2.61304384 89.35744597 1.76592898 81.65282609 1.5859375 74.65625 C1.58226036 72.5601825 1.58476251 70.46409585 1.59317017 68.36804199 C1.5987107 62.86890016 1.52066093 57.37404015 1.42486572 51.87585449 C1.34189096 46.25855426 1.33840482 40.6412579 1.328125 35.0234375 C1.29631539 24.01418633 1.17614885 13.00782198 1 2 C-0.32 2.33 -1.64 2.66 -3 3 C-2.01 2.01 -1.02 1.02 0 0 Z " fill="#F7D8DA" transform="translate(191,75)"/>
<path d="M0 0 C0 17.82 0 35.64 0 54 C-4.66150198 54 -6.99573061 52.44233789 -10.75 50 C-11.35199219 49.6184375 -11.95398438 49.236875 -12.57421875 48.84375 C-14.05458854 47.90383267 -15.52799967 46.95297131 -17 46 C-16.01 45.505 -16.01 45.505 -15 45 C-10.71 47.31 -6.42 49.62 -2 52 C-2 35.17 -2 18.34 -2 1 C-8.88137322 3.93289868 -8.88137322 3.93289868 -13 9 C-15.0625 9.625 -15.0625 9.625 -17 10 C-17.61875 10.7425 -17.61875 10.7425 -18.25 11.5 C-21.11402515 13.9548787 -24.30324285 13.69698712 -28 14 C-25.28198533 10.82733561 -21.79446893 9.04538868 -18.1875 7.0625 C-16.97143148 6.38892522 -15.75657564 5.71315622 -14.54296875 5.03515625 C-13.94790527 4.70531738 -13.3528418 4.37547852 -12.73974609 4.03564453 C-10.71301673 2.86803358 -10.71301673 2.86803358 -7.86328125 0.68359375 C-5 -1 -5 -1 0 0 Z " fill="#F0B9D3" transform="translate(382,86)"/>
<path d="M0 0 C3.84327483 0.69358389 6.52140267 1.67440809 9.86328125 3.72265625 C11.19262695 4.52993164 11.19262695 4.52993164 12.54882812 5.35351562 C13.46083984 5.91748047 14.37285156 6.48144531 15.3125 7.0625 C16.24384766 7.63033203 17.17519531 8.19816406 18.13476562 8.78320312 C20.42730656 10.18224093 22.71543753 11.58798481 25 13 C23 14 23 14 21.16015625 13.546875 C20.12181641 13.15242188 20.12181641 13.15242188 19.0625 12.75 C18.37285156 12.49734375 17.68320312 12.2446875 16.97265625 11.984375 C15 11 15 11 12 8 C8.7 6.02 5.4 4.04 2 2 C2 19.16 2 36.32 2 54 C6.62 51.36 11.24 48.72 16 46 C18.31 44.68 20.62 43.36 23 42 C23.66 42.33 24.32 42.66 25 43 C21.75509618 44.98761533 18.50325563 46.96358939 15.25 48.9375 C14.32960938 49.50146484 13.40921875 50.06542969 12.4609375 50.64648438 C11.12675781 51.45375977 11.12675781 51.45375977 9.765625 52.27734375 C8.94868164 52.77484131 8.13173828 53.27233887 7.29003906 53.78491211 C5.1505004 54.92014494 3.38952518 55.63800082 1 56 C0 55 0 55 -0.12025452 52.79173279 C-0.11803391 51.81688431 -0.11581329 50.84203583 -0.11352539 49.83764648 C-0.11344986 48.73658066 -0.11337433 47.63551483 -0.11329651 46.50108337 C-0.10813522 45.3031868 -0.10297394 44.10529022 -0.09765625 42.87109375 C-0.0962413 41.65172623 -0.09482635 40.4323587 -0.09336853 39.17604065 C-0.08774967 35.2631693 -0.07519396 31.35035419 -0.0625 27.4375 C-0.05748743 24.79231853 -0.0529241 22.14713617 -0.04882812 19.50195312 C-0.03777411 13.00128274 -0.02101764 6.50064539 0 0 Z " fill="#FBE9D1" transform="translate(296,40)"/>
<path d="M0 0 C3.49171665 0.49881666 6.06073923 2.12213895 9 4 C8.01 4.495 8.01 4.495 7 5 C5.02 4.01 3.04 3.02 1 2 C1 27.41 1 52.82 1 79 C4.63 77.02 8.26 75.04 12 73 C12.66 73.33 13.32 73.66 14 74 C12.42065361 74.98558449 10.83634827 75.96322541 9.25 76.9375 C8.36828125 77.48277344 7.4865625 78.02804688 6.578125 78.58984375 C4.30991146 79.83048782 2.54695352 80.63860795 0 81 C-1.70563104 79.29436896 -1.12587612 77.1483787 -1.13552856 74.87324524 C-1.13350433 74.13970322 -1.1314801 73.40616119 -1.12939453 72.65039062 C-1.13114685 71.88131882 -1.13289917 71.11224701 -1.13470459 70.31987 C-1.1391234 67.76530737 -1.13618502 65.21081339 -1.1328125 62.65625 C-1.13348553 60.88887519 -1.13445555 59.12150047 -1.13571167 57.35412598 C-1.13718868 53.64509197 -1.13503398 49.936082 -1.13037109 46.22705078 C-1.1246738 41.46177507 -1.12795279 36.69655568 -1.13394356 31.93128204 C-1.13754908 28.28028943 -1.13641062 24.62931027 -1.13381577 20.97831726 C-1.13314647 19.22075901 -1.133975 17.46319955 -1.13629532 15.7056427 C-1.13882171 13.25359846 -1.13498146 10.80164669 -1.12939453 8.34960938 C-1.13141876 7.61606735 -1.13344299 6.88252533 -1.13552856 6.12675476 C-1.11426264 1.11426264 -1.11426264 1.11426264 0 0 Z " fill="#EDC0AA" transform="translate(209,75)"/>
<path d="M0 0 C0 23.43 0 46.86 0 71 C-5.625 69.875 -5.625 69.875 -8 67 C-6.02 67 -4.04 67 -2 67 C-2 45.88 -2 24.76 -2 3 C-3.98 3.33 -5.96 3.66 -8 4 C-3.375 0 -3.375 0 0 0 Z " fill="#D69AC2" transform="translate(111,230)"/>
<path d="M0 0 C0 17.16 0 34.32 0 52 C-3 53 -3 53 -4.7175293 52.28735352 C-5.63659058 51.71392212 -5.63659058 51.71392212 -6.57421875 51.12890625 C-7.24130859 50.71962891 -7.90839844 50.31035156 -8.59570312 49.88867188 C-9.28599609 49.45103516 -9.97628906 49.01339844 -10.6875 48.5625 C-11.7403418 47.9118457 -11.7403418 47.9118457 -12.81445312 47.24804688 C-14.54865372 46.17449413 -16.27508744 45.08841346 -18 44 C-13.29148227 42.66021268 -11.35949259 43.9040901 -7 46 C-7 46.99 -7 47.98 -7 49 C-5.35 49.66 -3.7 50.32 -2 51 C-2 34.5 -2 18 -2 1 C-5.63 2.98 -9.26 4.96 -13 7 C-13.66 6.67 -14.32 6.34 -15 6 C-13.26041859 4.79728941 -11.50790255 3.6132699 -9.75 2.4375 C-8.28820312 1.44556641 -8.28820312 1.44556641 -6.796875 0.43359375 C-4 -1 -4 -1 0 0 Z " fill="#AEE7F2" transform="translate(307,131)"/>
<path d="M0 0 C0 0.66 0 1.32 0 2 C-0.99 2 -1.98 2 -3 2 C-3 2.99 -3 3.98 -3 5 C-3.66 5 -4.32 5 -5 5 C-5.66 6.98 -6.32 8.96 -7 11 C-5.68 11 -4.36 11 -3 11 C-3 11.66 -3 12.32 -3 13 C-1.68 13.33 -0.36 13.66 1 14 C1 14.99 1 15.98 1 17 C2.98 17 4.96 17 7 17 C7 17.66 7 18.32 7 19 C8.32 19 9.64 19 11 19 C11 19.66 11 20.32 11 21 C11.99 21 12.98 21 14 21 C14.103125 21.639375 14.20625 22.27875 14.3125 22.9375 C14.539375 23.618125 14.76625 24.29875 15 25 C15.99 25.33 16.98 25.66 18 26 C17.34 26.33 16.68 26.66 16 27 C13.55737305 25.87597656 13.55737305 25.87597656 10.51171875 24.140625 C9.41279297 23.51929687 8.31386719 22.89796875 7.18164062 22.2578125 C6.0168538 21.58866921 4.85214093 20.91939718 3.6875 20.25 C2.54603516 19.60289063 1.40457031 18.95578125 0.22851562 18.2890625 C-2.85458405 16.53758799 -5.93259179 14.77880576 -9 13 C-9.94641357 12.49694336 -10.89282715 11.99388672 -11.86791992 11.47558594 C-12.57150635 10.98864258 -13.27509277 10.50169922 -14 10 C-14 9.01 -14 8.02 -14 7 C-11.4453125 5.17578125 -11.4453125 5.17578125 -8.125 3.3125 C-7.03445313 2.68988281 -5.94390625 2.06726563 -4.8203125 1.42578125 C-2 0 -2 0 0 0 Z " fill="#F09EC3" transform="translate(347,104)"/>
<path d="M0 0 C4.02511566 1.21689543 7.59257117 2.49453762 11 5 C11 5.99 11 6.98 11 8 C10.20980469 8.44988281 9.41960937 8.89976563 8.60546875 9.36328125 C2.48635957 12.8529218 -3.62447667 16.35582813 -9.71777344 19.89038086 C-12.10217237 21.27300452 -14.48852569 22.65221219 -16.875 24.03125 C-20.52845784 26.14340532 -24.1718619 28.27208284 -27.8125 30.40625 C-29.72901644 31.52109162 -31.64567984 32.63568065 -33.5625 33.75 C-34.47330322 34.28786133 -35.38410645 34.82572266 -36.32250977 35.37988281 C-37.16612061 35.86811523 -38.00973145 36.35634766 -38.87890625 36.859375 C-39.6272876 37.29733398 -40.37566895 37.73529297 -41.14672852 38.18652344 C-42.0640979 38.58919434 -42.0640979 38.58919434 -43 39 C-43.66 38.67 -44.32 38.34 -45 38 C-38.56338208 33.51820678 -31.92437635 29.67376634 -25 26 C-17.8705225 22.20728377 -10.96192578 18.17022202 -4.10546875 13.90234375 C-0.1384355 11.47222401 3.90284453 9.20208873 8 7 C5.56010763 4.43847077 3.03995783 2.80754249 0 1 C0 0.67 0 0.34 0 0 Z " fill="#F8D4C1" transform="translate(268,109)"/>
<path d="M0 0 C0.15371555 8.04915301 0.30189705 16.09838053 0.4429636 24.14776421 C0.50863748 27.88518741 0.57623581 31.62255536 0.64819336 35.35986328 C0.71753258 38.96482565 0.78186742 42.56984541 0.84269524 46.17496109 C0.86681885 47.55213808 0.89276262 48.92928441 0.92053413 50.30639267 C0.95904661 52.23135306 0.99055769 54.1564497 1.02172852 56.08154297 C1.04171402 57.17852509 1.06169952 58.2755072 1.08229065 59.4057312 C1 62 1 62 0 64 C-6.16529701 63.68383092 -10.17268433 60.50784939 -15 57 C-13.1875 56.375 -13.1875 56.375 -11 56 C-10.01 56.66 -9.02 57.32 -8 58 C-8 58.66 -8 59.32 -8 60 C-7.21625 60.309375 -6.4325 60.61875 -5.625 60.9375 C-3 62 -3 62 -1 63 C-1 42.87 -1 22.74 -1 2 C-2.98 2.99 -4.96 3.98 -7 5 C-7.66 5 -8.32 5 -9 5 C-9.33 5.99 -9.66 6.98 -10 8 C-11.32 7.67 -12.64 7.34 -14 7 C-12.23462904 5.82508418 -10.46250287 4.66031316 -8.6875 3.5 C-7.70136719 2.8503125 -6.71523438 2.200625 -5.69921875 1.53125 C-3 0 -3 0 0 0 Z " fill="#A7E5AD" transform="translate(356,186)"/>
<path d="M0 0 C4.92129494 0.98425899 6.40538913 1.8162018 10 5 C7.36 5 4.72 5 2 5 C1.67 34.04 1.34 63.08 1 93 C0.67 93 0.34 93 0 93 C0 62.31 0 31.62 0 0 Z " fill="#B1CA5A" transform="translate(274,220)"/>
<path d="M0 0 C10 3 10 3 13 6 C11.02 6 9.04 6 7 6 C7 5.34 7 4.68 7 4 C5.35 3.67 3.7 3.34 2 3 C1.67 26.43 1.34 49.86 1 74 C3.97 73.505 3.97 73.505 7 73 C2.25 77 2.25 77 0 77 C0 51.59 0 26.18 0 0 Z " fill="#E2663E" transform="translate(210,77)"/>
<path d="M0 0 C0 31.02 0 62.04 0 94 C-0.33 94 -0.66 94 -1 94 C-1.33 63.97 -1.66 33.94 -2 3 C-3.65 3.66 -5.3 4.32 -7 5 C-9.3125 4.625 -9.3125 4.625 -11 4 C-7.34730776 1.66633552 -4.38405624 0 0 0 Z " fill="#CA6566" transform="translate(192,77)"/>
<path d="M0 0 C6.75506677 1.12584446 6.75506677 1.12584446 9.76171875 2.9609375 C10.40560547 3.35023437 11.04949219 3.73953125 11.71289062 4.140625 C12.36451172 4.54796875 13.01613281 4.9553125 13.6875 5.375 C14.68233398 5.97441406 14.68233398 5.97441406 15.69726562 6.5859375 C18.82486265 8.50092138 21.46446891 10.32480593 24 13 C22.39253944 12.57476184 20.78910164 12.13429874 19.1875 11.6875 C17.84751953 11.32205078 17.84751953 11.32205078 16.48046875 10.94921875 C14 10 14 10 11 7 C7.7 5.02 4.4 3.04 1 1 C1 18.16 1 35.32 1 53 C0.67 53 0.34 53 0 53 C0 35.51 0 18.02 0 0 Z " fill="#ECBB90" transform="translate(297,41)"/>
<path d="M0 0 C3.76314135 0.60914159 6.83503926 1.6879685 10.25 3.375 C11.55710937 4.00535156 11.55710937 4.00535156 12.890625 4.6484375 C15 6 15 6 16 9 C16.928125 9.12375 17.85625 9.2475 18.8125 9.375 C22 10 22 10 25 12 C25 12.66 25 13.32 25 14 C25.92232422 14.14695313 25.92232422 14.14695313 26.86328125 14.296875 C33.54716981 15.53344768 33.54716981 15.53344768 36.0625 18.125 C36.371875 18.74375 36.68125 19.3625 37 20 C35.9790625 19.566875 35.9790625 19.566875 34.9375 19.125 C31.92010285 17.91526622 31.92010285 17.91526622 28.375 17 C25 16 25 16 22 14 C22 13.34 22 12.68 22 12 C20.88625 11.9175 19.7725 11.835 18.625 11.75 C17.42875 11.5025 16.2325 11.255 15 11 C13.9375 9.0625 13.9375 9.0625 13 7 C11.02416285 6.26480478 9.01822402 5.60927518 7 5 C4.60082739 3.75954602 2.317985 2.390791 0 1 C0 0.67 0 0.34 0 0 Z " fill="#C4224E" transform="translate(58,189)"/>
<path d="M0 0 C4.3785374 1.75141496 7.97072742 3.62983966 12 6 C11.01 6.33 10.02 6.66 9 7 C6.36 5.68 3.72 4.36 1 3 C1 18.18 1 33.36 1 49 C2.32 49.33 3.64 49.66 5 50 C3.35 50.66 1.7 51.32 0 52 C0 34.84 0 17.68 0 0 Z " fill="#E48A44" transform="translate(298,42)"/>
<path d="M0 0 C0.66 0.33 1.32 0.66 2 1 C-0.35360118 2.41761307 -2.70786228 3.8341104 -5.0625 5.25 C-6.04766602 5.84361328 -6.04766602 5.84361328 -7.05273438 6.44921875 C-9.03177242 7.63859137 -11.01488491 8.82080141 -13 10 C-13.65597168 10.39251953 -14.31194336 10.78503906 -14.98779297 11.18945312 C-19.76745756 14 -19.76745756 14 -22 14 C-22 14.66 -22 15.32 -22 16 C-21.071875 16.28875 -20.14375 16.5775 -19.1875 16.875 C-16 18 -16 18 -13 20 C-11.0103005 20.39013716 -9.00980131 20.73202649 -7 21 C-6.896875 21.639375 -6.79375 22.27875 -6.6875 22.9375 C-6.460625 23.618125 -6.23375 24.29875 -6 25 C-5.01 25.33 -4.02 25.66 -3 26 C-3.66 26.33 -4.32 26.66 -5 27 C-8.16349814 25.71520448 -11.09037872 23.92482123 -14.0625 22.25 C-14.90361328 21.79367188 -15.74472656 21.33734375 -16.61132812 20.8671875 C-17.41119141 20.42117187 -18.21105469 19.97515625 -19.03515625 19.515625 C-20.13935913 18.90122559 -20.13935913 18.90122559 -21.26586914 18.27441406 C-23 17 -23 17 -24 14 C-20.67864491 11.97963653 -17.34195189 9.98609796 -14 8 C-13.4009082 7.64180176 -12.80181641 7.28360352 -12.18457031 6.91455078 C-10.29469756 5.78851377 -8.39820999 4.67441395 -6.5 3.5625 C-5.88882324 3.19640625 -5.27764648 2.8303125 -4.64794922 2.453125 C-3.1331111 1.57318539 -1.56943817 0.7783907 0 0 Z " fill="#CAF3F9" transform="translate(283,142)"/>
<path d="M0 0 C0 16.5 0 33 0 50 C-0.99 49.67 -1.98 49.34 -3 49 C-2.01 48.505 -2.01 48.505 -1 48 C-1 33.15 -1 18.3 -1 3 C-3.64 3.66 -6.28 4.32 -9 5 C-6.45523312 2.20075644 -3.92372883 0 0 0 Z " fill="#37B9DB" transform="translate(305,132)"/>
<path d="M0 0 C0.66 0.33 1.32 0.66 2 1 C0.37829621 2.00533667 -1.24747237 3.00411907 -2.875 4 C-3.77992188 4.556875 -4.68484375 5.11375 -5.6171875 5.6875 C-8 7 -8 7 -10 7 C-8.24782675 10.5043465 -3.58819847 11.42474701 -0.015625 12.71875 C1.875 13.4375 1.875 13.4375 5 15 C5.9375 17.1875 5.9375 17.1875 6 19 C0.82220745 17.63742301 -3.32141763 15.13263665 -7.828125 12.33984375 C-9.93676304 10.99453824 -9.93676304 10.99453824 -12 10 C-11.83984375 8.20703125 -11.83984375 8.20703125 -11 6 C-8.56640625 4.26171875 -8.56640625 4.26171875 -5.5625 2.6875 C-4.57378906 2.15511719 -3.58507812 1.62273437 -2.56640625 1.07421875 C-1.71949219 0.71972656 -0.87257813 0.36523438 0 0 Z " fill="#B3E3BD" transform="translate(312,210)"/>
<path d="M0 0 C0.66 0.33 1.32 0.66 2 1 C-3.79675361 8.73487791 -3.79675361 8.73487791 -8.6875 9.8125 C-9.780625 9.874375 -10.87375 9.93625 -12 10 C-13.33790641 10.99387334 -14.67218122 11.9926892 -16 13 C-18.11328125 12.5859375 -18.11328125 12.5859375 -20 12 C-16.71619398 9.96617319 -13.42178728 7.95020438 -10.125 5.9375 C-9.18785156 5.35677734 -8.25070313 4.77605469 -7.28515625 4.17773438 C-6.38925781 3.63310547 -5.49335937 3.08847656 -4.5703125 2.52734375 C-3.74289551 2.01937256 -2.91547852 1.51140137 -2.06298828 0.98803711 C-1.04180908 0.49895874 -1.04180908 0.49895874 0 0 Z " fill="#CA72AD" transform="translate(101,234)"/>
<path d="M0 0 C-0.1875 1.75 -0.1875 1.75 -1 4 C-1.845625 4.66 -2.69125 5.32 -3.5625 6 C-4.366875 6.66 -5.17125 7.32 -6 8 C-6 9.32 -6 10.64 -6 12 C-7.98 11.34 -9.96 10.68 -12 10 C-12 8.68 -12 7.36 -12 6 C-9.8828125 4.296875 -9.8828125 4.296875 -7.125 2.75 C-5.76761719 1.96882813 -5.76761719 1.96882813 -4.3828125 1.171875 C-2 0 -2 0 0 0 Z " fill="#BF6197" transform="translate(62,258)"/>
<path d="M0 0 C3.63 1.98 7.26 3.96 11 6 C7.87378374 9.39417765 5.43458973 11.6062718 1 13 C1 11 1 9 1 7 C1.99 6.34 2.98 5.68 4 5 C3.01 4.319375 3.01 4.319375 2 3.625 C1.34 3.08875 0.68 2.5525 0 2 C0 1.34 0 0.68 0 0 Z " fill="#A1CA4B" transform="translate(343,259)"/>
<path d="M0 0 C-3.8478296 3.24683526 -7.83473843 5.82455791 -12.1875 8.3125 C-13.13012695 8.8703418 -13.13012695 8.8703418 -14.09179688 9.43945312 C-15.69197857 10.35848796 -17.34324411 11.18737069 -19 12 C-19.66 11.67 -20.32 11.34 -21 11 C-20.67 10.01 -20.34 9.02 -20 8 C-19.34 8 -18.68 8 -18 8 C-17.67 7.34 -17.34 6.68 -17 6 C-13.9375 5.375 -13.9375 5.375 -11 5 C-10.67 3.68 -10.34 2.36 -10 1 C-6.59437148 0.22157062 -3.49234244 -0.09978121 0 0 Z " fill="#80CFE7" transform="translate(248,423)"/>
<path d="M0 0 C4.95 0.99 4.95 0.99 10 2 C10 2.66 10 3.32 10 4 C10.66 4 11.32 4 12 4 C12 4.66 12 5.32 12 6 C13.65 6 15.3 6 17 6 C17.33 7.32 17.66 8.64 18 10 C19.65 10 21.3 10 23 10 C23 10.99 23 11.98 23 13 C18.66742047 11.71934046 15.2511807 10.06867676 11.5 7.5625 C7.74394224 5.10287146 4.07683285 2.87313942 0 1 C0 0.67 0 0.34 0 0 Z " fill="#9CD6A6" transform="translate(318,229)"/>
<path d="M0 0 C0.99 0 1.98 0 3 0 C3 13.53 3 27.06 3 41 C1.35 40.67 -0.3 40.34 -2 40 C-2.33 39.34 -2.66 38.68 -3 38 C-1.68 38 -0.36 38 1 38 C1.33 25.79 1.66 13.58 2 1 C1.34 0.67 0.68 0.34 0 0 Z " fill="#3A8DB5" transform="translate(375,21)"/>
<path d="M0 0 C0.33 0 0.66 0 1 0 C1.33 4.29 1.66 8.58 2 13 C3.32 12.67 4.64 12.34 6 12 C5.67 14.31 5.34 16.62 5 19 C0.69235185 17.43358249 -3.06171464 15.31663844 -7 13 C-7 12.67 -7 12.34 -7 12 C-5.35 12 -3.7 12 -2 12 C-2 12.66 -2 13.32 -2 14 C-1.34 14 -0.68 14 0 14 C0 9.38 0 4.76 0 0 Z " fill="#5B6F93" transform="translate(110,392)"/>
<path d="M0 0 C0.33 0 0.66 0 1 0 C1 7.59 1 15.18 1 23 C2.32 23.33 3.64 23.66 5 24 C1.375 27 1.375 27 -2 27 C-2 26.01 -2 25.02 -2 24 C-2.639375 23.87625 -3.27875 23.7525 -3.9375 23.625 C-4.9584375 23.315625 -4.9584375 23.315625 -6 23 C-6.33 22.34 -6.66 21.68 -7 21 C-5.02 21.33 -3.04 21.66 -1 22 C-0.67 14.74 -0.34 7.48 0 0 Z " fill="#C12E41" transform="translate(109,192)"/>
<path d="M0 0 C0 0.66 0 1.32 0 2 C-1.175625 2.0928125 -1.175625 2.0928125 -2.375 2.1875 C-3.24125 2.455625 -4.1075 2.72375 -5 3 C-6.24714403 5.40952023 -6.24714403 5.40952023 -7 8 C-9.49505962 10.49505962 -10.67328888 10.35948376 -14.125 10.625 C-15.03507812 10.69976562 -15.94515625 10.77453125 -16.8828125 10.8515625 C-17.93082031 10.92503906 -17.93082031 10.92503906 -19 11 C-16.22312644 7.75177521 -12.60938618 5.87816944 -8.9375 3.8125 C-8.30005859 3.44447266 -7.66261719 3.07644531 -7.00585938 2.69726562 C-2.25687036 0 -2.25687036 0 0 0 Z " fill="#BB6E73" transform="translate(65,149)"/>
<path d="M0 0 C0 0.66 0 1.32 0 2 C-0.99 2 -1.98 2 -3 2 C-3 2.99 -3 3.98 -3 5 C-3.66 5 -4.32 5 -5 5 C-5.66 6.98 -6.32 8.96 -7 11 C-8.98 10.34 -10.96 9.68 -13 9 C-11.56356879 5.34646845 -9.94164969 4.06021834 -6.5 2.25 C-5.7059375 1.82203125 -4.911875 1.3940625 -4.09375 0.953125 C-2 0 -2 0 0 0 Z " fill="#E3719C" transform="translate(347,104)"/>
<path d="M0 0 C3.79049707 1.42749981 7.27122456 3.16236542 10.8125 5.125 C12.27623047 5.93324219 12.27623047 5.93324219 13.76953125 6.7578125 C14.50558594 7.16773437 15.24164063 7.57765625 16 8 C16 9.32 16 10.64 16 12 C10.7265625 15.22265625 10.7265625 15.22265625 9 16 C8.34 15.67 7.68 15.34 7 15 C12.75 11 12.75 11 15 11 C11.87886556 7.25251545 7.92395423 6.53206487 3.3984375 5.16015625 C1 4 1 4 0.1640625 1.87109375 C0.10992187 1.25363281 0.05578125 0.63617188 0 0 Z " fill="#F8D4B7" transform="translate(328,58)"/>
<path d="M0 0 C0 0.66 0 1.32 0 2 C-0.99 2 -1.98 2 -3 2 C-3.185625 2.78375 -3.37125 3.5675 -3.5625 4.375 C-5 7 -5 7 -8.4375 8.3125 C-12 9 -12 9 -15 9 C-15 9.66 -15 10.32 -15 11 C-16.32 10.67 -17.64 10.34 -19 10 C-16.21251481 8.32626249 -13.41935573 6.66223733 -10.625 5 C-9.8309375 4.52304687 -9.036875 4.04609375 -8.21875 3.5546875 C-7.45820313 3.10351562 -6.69765625 2.65234375 -5.9140625 2.1875 C-4.8614624 1.55908203 -4.8614624 1.55908203 -3.78759766 0.91796875 C-2 0 -2 0 0 0 Z " fill="#82BCD4" transform="translate(363,28)"/>
<path d="M0 0 C1.98 0 3.96 0 6 0 C6.33 0.66 6.66 1.32 7 2 C9.02463255 2.65213292 9.02463255 2.65213292 11 3 C11 3.66 11 4.32 11 5 C12.32 5 13.64 5 15 5 C15 5.99 15 6.98 15 8 C15.66 8 16.32 8 17 8 C17 8.66 17 9.32 17 10 C12.56473186 8.69047721 9.00013681 6.95266332 5.125 4.4375 C4.15820312 3.81746094 3.19140625 3.19742187 2.1953125 2.55859375 C1.47085938 2.04425781 0.74640625 1.52992188 0 1 C0 0.67 0 0.34 0 0 Z " fill="#70B0CD" transform="translate(169,442)"/>
<path d="M0 0 C2.375 0.75 2.375 0.75 5 2 C5.33 2.680625 5.66 3.36125 6 4.0625 C6.33 4.701875 6.66 5.34125 7 6 C9.36195411 6.60602665 9.36195411 6.60602665 12 7 C15.18856289 8.67019961 17.47959896 10.47959896 20 13 C22.09989652 14.17574711 22.09989652 14.17574711 24 15 C21 16 21 16 18.3125 14.6875 C17.549375 14.130625 16.78625 13.57375 16 13 C16 12.34 16 11.68 16 11 C15.29875 10.731875 14.5975 10.46375 13.875 10.1875 C5.48 6.72 5.48 6.72 3 3 C2.01 2.67 1.02 2.34 0 2 C0 1.34 0 0.68 0 0 Z " fill="#BF2351" transform="translate(29,170)"/>
<path d="M0 0 C0 0.66 0 1.32 0 2 C-0.99 2 -1.98 2 -3 2 C-3.226875 2.804375 -3.45375 3.60875 -3.6875 4.4375 C-4.3371875 5.7059375 -4.3371875 5.7059375 -5 7 C-7.0625 7.625 -7.0625 7.625 -10 8 C-11.61230863 8.49505449 -13.21625576 9.0178695 -14.8125 9.5625 C-15.60269531 9.83191406 -16.39289063 10.10132813 -17.20703125 10.37890625 C-17.79871094 10.58386719 -18.39039062 10.78882813 -19 11 C-16.22312644 7.75177521 -12.60938618 5.87816944 -8.9375 3.8125 C-8.30005859 3.44447266 -7.66261719 3.07644531 -7.00585938 2.69726562 C-2.25687036 0 -2.25687036 0 0 0 Z " fill="#CE9297" transform="translate(84,138)"/>
<path d="M0 0 C1.32 0 2.64 0 4 0 C4 0.66 4 1.32 4 2 C5.32 2 6.64 2 8 2 C8 2.66 8 3.32 8 4 C8.99 4 9.98 4 11 4 C11.103125 4.639375 11.20625 5.27875 11.3125 5.9375 C11.6528125 6.9584375 11.6528125 6.9584375 12 8 C12.99 8.33 13.98 8.66 15 9 C14.01 9.495 14.01 9.495 13 10 C10.21484375 8.671875 10.21484375 8.671875 6.9375 6.75 C5.31134766 5.81414062 5.31134766 5.81414062 3.65234375 4.859375 C1 3 1 3 0 0 Z " fill="#E981AC" transform="translate(350,121)"/>
<path d="M0 0 C10.3125 2.8125 10.3125 2.8125 13 6 C11.02 6 9.04 6 7 6 C7 5.34 7 4.68 7 4 C5.35 3.67 3.7 3.34 2 3 C1.67 7.95 1.34 12.9 1 18 C0.67 18 0.34 18 0 18 C0 12.06 0 6.12 0 0 Z " fill="#E0633E" transform="translate(210,77)"/>
<path d="M0 0 C0 0.99 0 1.98 0 3 C-0.99 3 -1.98 3 -3 3 C-3.33 3.99 -3.66 4.98 -4 6 C-7.55610043 8.56039231 -11.76501798 8.5765018 -16 9 C-13.50506504 6.18368359 -10.73437182 4.59044019 -7.4375 2.8125 C-6.46683594 2.28269531 -5.49617188 1.75289063 -4.49609375 1.20703125 C-2 0 -2 0 0 0 Z " fill="#C27D81" transform="translate(112,122)"/>
<path d="M0 0 C4.71145884 1.37566045 8.52832571 3.34345053 12.6875 5.9375 C13.80511719 6.62714844 14.92273438 7.31679688 16.07421875 8.02734375 C18.36784231 9.57377886 20.17949601 10.94791246 22 13 C20.39253944 12.57476184 18.78910164 12.13429874 17.1875 11.6875 C15.84751953 11.32205078 15.84751953 11.32205078 14.48046875 10.94921875 C11.8591331 9.94609346 10.87139289 9.02568326 9 7 C7.45745249 5.92900846 5.89354647 4.88829549 4.3125 3.875 C2.85810017 2.94251399 1.41521481 1.99094706 0 1 C0 0.67 0 0.34 0 0 Z " fill="#F7CEAC" transform="translate(299,41)"/>
<path d="M0 0 C4.65427178 1.32979194 8.00543887 3.30978536 12 6 C13.24064267 6.52278653 14.49104232 7.02300361 15.75 7.5 C19 9 19 9 20.4375 11.1875 C20.623125 11.785625 20.80875 12.38375 21 13 C13.81543274 11.23774765 13.81543274 11.23774765 11 8 C10.01 7.67 9.02 7.34 8 7 C6.66666667 5.66666667 5.33333333 4.33333333 4 3 C1.86690808 1.76487921 1.86690808 1.76487921 0 1 C0 0.67 0 0.34 0 0 Z " fill="#20A9AF" transform="translate(237,386)"/>
<path d="M0 0 C-2.24447661 2.5811481 -3.7493136 3.1873284 -7 4 C-7.4125 4.495 -7.825 4.99 -8.25 5.5 C-11.11402515 7.9548787 -14.30324285 7.69698712 -18 8 C-14.57630759 3.97212658 -5.32031413 -2.66015707 0 0 Z " fill="#E376A2" transform="translate(372,92)"/>
<path d="M0 0 C1.32 0.33 2.64 0.66 4 1 C0.44145169 3.96655321 -3.1982268 6.45858103 -7.1875 8.8125 C-8.23292969 9.43769531 -9.27835938 10.06289062 -10.35546875 10.70703125 C-11.22816406 11.13371094 -12.10085937 11.56039062 -13 12 C-13.66 11.67 -14.32 11.34 -15 11 C-11.25 8 -11.25 8 -9 8 C-9 7.34 -9 6.68 -9 6 C-8.34 6 -7.68 6 -7 6 C-7 5.34 -7 4.68 -7 4 C-6.030625 3.71125 -5.06125 3.4225 -4.0625 3.125 C-0.89335797 2.35785318 -0.89335797 2.35785318 0 0 Z " fill="#EB959C" transform="translate(149,193)"/>
<path d="M0 0 C0.66 0.33 1.32 0.66 2 1 C0.33042119 2.93319651 -0.82177342 3.9356404 -3.25 4.8125 C-7.12661505 6.48649286 -9.90935462 9.16765063 -13 12 C-14.32 11.34 -15.64 10.68 -17 10 C-16.05125 9.46375 -15.1025 8.9275 -14.125 8.375 C-11.84349597 7.08261428 -9.60349561 5.75240635 -7.37890625 4.36328125 C-6.49074219 3.81027344 -5.60257813 3.25726563 -4.6875 2.6875 C-3.84574219 2.15511719 -3.00398437 1.62273437 -2.13671875 1.07421875 C-1.43160156 0.71972656 -0.72648437 0.36523438 0 0 Z " fill="#1F7CB0" transform="translate(147,385)"/>
<path d="M0 0 C5.18497978 1.24439515 8.58205272 2.9074369 13 6 C15.33411569 7.28178557 17.68307365 8.5277848 20.046875 9.75390625 C22 11 22 11 24 14 C20.01967146 12.52852919 16.47100488 10.64511094 12.8125 8.5 C11.76707031 7.8915625 10.72164062 7.283125 9.64453125 6.65625 C7 5 7 5 5 3 C3.35008418 2.29289322 1.68437744 1.62056011 0 1 C0 0.67 0 0.34 0 0 Z " fill="#21A89F" transform="translate(213,372)"/>
<path d="M0 0 C4.75 0.875 4.75 0.875 7 2 C7 2.66 7 3.32 7 4 C8.175625 4.4640625 8.175625 4.4640625 9.375 4.9375 C12 6 12 6 14 7 C14 5.02 14 3.04 14 1 C14.66 1.33 15.32 1.66 16 2 C15.67 3.98 15.34 5.96 15 8 C8.92838975 7.68863537 4.66140596 4.64625533 0 1 C0 0.67 0 0.34 0 0 Z " fill="#BBE8C5" transform="translate(341,242)"/>
<path d="M0 0 C0.515625 0.2475 1.03125 0.495 1.5625 0.75 C0.758125 1.03875 -0.04625 1.3275 -0.875 1.625 C-3.5701468 2.48262568 -3.5701468 2.48262568 -4.4375 4.75 C-8.02840237 6.44382187 -11.53302275 7.96910455 -15.4375 8.75 C-15.4375 9.41 -15.4375 10.07 -15.4375 10.75 C-16.0975 10.42 -16.7575 10.09 -17.4375 9.75 C-16.07640776 7.02781551 -14.00978499 6.25442612 -11.41015625 4.83984375 C-10.10523731 4.11890834 -8.82000422 3.36101617 -7.55859375 2.56640625 C-2.96055113 -0.30364627 -2.96055113 -0.30364627 0 0 Z " fill="#6F347E" transform="translate(56.4375,343.25)"/>
<path d="M0 0 C0 0.66 0 1.32 0 2 C-0.99 2 -1.98 2 -3 2 C-3 2.99 -3 3.98 -3 5 C-9.96428571 8.34821429 -9.96428571 8.34821429 -14 7 C-12.04480616 5.82807953 -10.0857461 4.6626071 -8.125 3.5 C-7.03445312 2.8503125 -5.94390625 2.200625 -4.8203125 1.53125 C-2 0 -2 0 0 0 Z " fill="#D9888D" transform="translate(150,100)"/>
<path d="M0 0 C-0.38905618 2.72339328 -1.06737567 4.08903214 -2.75 6.3125 C-5 8 -5 8 -7.75 7.75 C-8.4925 7.5025 -9.235 7.255 -10 7 C-9.01 6.67 -8.02 6.34 -7 6 C-6.7834375 5.0409375 -6.7834375 5.0409375 -6.5625 4.0625 C-6 2 -6 2 -4.0625 0.75 C-2 0 -2 0 0 0 Z " fill="#CB5C60" transform="translate(157,96)"/>
<path d="M0 0 C1.32 0.33 2.64 0.66 4 1 C1.4011345 4.03656917 -1.62071728 5.46163739 -5.1875 7.1875 C-6.27417969 7.71730469 -7.36085937 8.24710937 -8.48046875 8.79296875 C-9.31191406 9.19128906 -10.14335937 9.58960938 -11 10 C-11.33 9.01 -11.66 8.02 -12 7 C-9.69 6.34 -7.38 5.68 -5 5 C-5 4.34 -5 3.68 -5 3 C-3.35 3 -1.7 3 0 3 C0 2.01 0 1.02 0 0 Z " fill="#7ECEE7" transform="translate(259,413)"/>
<path d="M0 0 C5.06324896 0.38948069 8.56480768 2.22668522 12.8515625 4.74609375 C14.86544509 5.92146886 16.90382029 6.98036507 19 8 C17.56138706 7.91253716 16.12402492 7.80434652 14.6875 7.6875 C13.88699219 7.62949219 13.08648437 7.57148438 12.26171875 7.51171875 C9.57818681 6.90456386 8.82944156 5.98852343 7 4 C5.19809386 3.02284391 5.19809386 3.02284391 3.3125 2.3125 C2.219375 1.879375 1.12625 1.44625 0 1 C0 0.67 0 0.34 0 0 Z " fill="#2BAAA9" transform="translate(258,399)"/>
<path d="M0 0 C0 0.66 0 1.32 0 2 C-1.6396875 2.8971875 -1.6396875 2.8971875 -3.3125 3.8125 C-5.91074129 5.29044697 -8.04349493 6.69822933 -10 9 C-11.32 8.34 -12.64 7.68 -14 7 C-12.04480616 5.82807953 -10.0857461 4.6626071 -8.125 3.5 C-7.03445313 2.8503125 -5.94390625 2.200625 -4.8203125 1.53125 C-2 0 -2 0 0 0 Z " fill="#A7DAB2" transform="translate(342,194)"/>
<path d="M0 0 C5.23518706 1.43967644 9.63026009 3.81696611 14 7 C14 7.33 14 7.66 14 8 C9.70295375 8.36831825 7.45398977 7.56835136 4 5 C1.6875 2.3125 1.6875 2.3125 0 0 Z " fill="#F1B498" transform="translate(223,83)"/>
<path d="M0 0 C5.63336356 0.38192295 8.90239818 0.77822843 13 5 C13.33 5.99 13.66 6.98 14 8 C9.02790438 6.23570801 4.56561939 3.6060834 0 1 C0 0.67 0 0.34 0 0 Z " fill="#D18AB7" transform="translate(56,270)"/>
<path d="M0 0 C0.66 0.33 1.32 0.66 2 1 C1.67 1.66 1.34 2.32 1 3 C0.34 3 -0.32 3 -1 3 C-1.33 3.99 -1.66 4.98 -2 6 C-4.70879335 7.35439668 -7.00933268 7.06501451 -10 7 C-7.20283196 3.70921407 -3.80471422 1.93694542 0 0 Z " fill="#8ED0BF" transform="translate(251,324)"/>
<path d="M0 0 C0.66 0.33 1.32 0.66 2 1 C1.01 1.33 0.02 1.66 -1 2 C-1.2475 2.639375 -1.495 3.27875 -1.75 3.9375 C-3 6 -3 6 -6.5 7.3125 C-10 8 -10 8 -12 7 C-10.04754815 5.80285445 -8.08785003 4.61751926 -6.125 3.4375 C-5.03445312 2.77621094 -3.94390625 2.11492187 -2.8203125 1.43359375 C-1.88960937 0.96050781 -0.95890625 0.48742187 0 0 Z " fill="#D09B9E" transform="translate(44,160)"/>
<path d="M0 0 C4.08378283 0.74250597 8.01939223 1.82923301 12 3 C12.103125 3.639375 12.20625 4.27875 12.3125 4.9375 C12.6528125 5.9584375 12.6528125 5.9584375 13 7 C13.99 7.33 14.98 7.66 16 8 C15.01 8.495 15.01 8.495 14 9 C11.54961707 7.75717988 9.226675 6.47117661 6.875 5.0625 C6.21628906 4.67642578 5.55757813 4.29035156 4.87890625 3.89257812 C3.248387 2.93553422 1.62363816 1.96867185 0 1 C0 0.67 0 0.34 0 0 Z " fill="#A7E7F2" transform="translate(264,160)"/>
<path d="M0 0 C2.38564077 0.57584432 4.66682784 1.22227595 7 2 C7 2.66 7 3.32 7 4 C7.66 4 8.32 4 9 4 C9 4.66 9 5.32 9 6 C10.32 6 11.64 6 13 6 C13 6.66 13 7.32 13 8 C8.00786149 7.53198701 3.87036007 5.08284263 0 2 C0 1.34 0 0.68 0 0 Z " fill="#39A153" transform="translate(300,327)"/>
<path d="M0 0 C0.66 0.33 1.32 0.66 2 1 C-1.18453477 3.63861452 -4.27084628 6.1832328 -8 8 C-10.15234375 7.57421875 -10.15234375 7.57421875 -12 7 C-10.56542672 6.0165504 -9.12722594 5.03839079 -7.6875 4.0625 C-6.88699219 3.51722656 -6.08648437 2.97195313 -5.26171875 2.41015625 C-3 1 -3 1 0 0 Z " fill="#51B441" transform="translate(304,295)"/>
<path d="M0 0 C0 3.63 0 7.26 0 11 C-0.33 11 -0.66 11 -1 11 C-1.33 8.36 -1.66 5.72 -2 3 C-2.7425 3.350625 -3.485 3.70125 -4.25 4.0625 C-7.1322726 5.04509293 -8.21176345 5.0326802 -11 4 C-7.34730776 1.66633552 -4.38405624 0 0 0 Z " fill="#D37E85" transform="translate(192,77)"/>
<path d="M0 0 C0.66 0.33 1.32 0.66 2 1 C0.04754815 2.19714555 -1.91214997 3.38248074 -3.875 4.5625 C-4.96554687 5.22378906 -6.05609375 5.88507813 -7.1796875 6.56640625 C-8.57574219 7.27603516 -8.57574219 7.27603516 -10 8 C-10.66 7.67 -11.32 7.34 -12 7 C-11.5 5.125 -11.5 5.125 -10 3 C-7.97428855 2.25752525 -5.99070839 1.81067242 -3.875 1.39453125 C-1.92093709 1.06607728 -1.92093709 1.06607728 0 0 Z " fill="#F4C59E" transform="translate(333,74)"/>
<path d="M0 0 C0.66 0.33 1.32 0.66 2 1 C1.21625 1.226875 0.4325 1.45375 -0.375 1.6875 C-3.21056995 2.77288673 -3.21056995 2.77288673 -4.25 5.5625 C-4.4975 6.366875 -4.745 7.17125 -5 8 C-6 9 -6 9 -9.0625 9.0625 C-10.031875 9.041875 -11.00125 9.02125 -12 9 C-11.46375 8.608125 -10.9275 8.21625 -10.375 7.8125 C-8.49185683 6.37536442 -6.68242948 4.9033411 -4.875 3.375 C-2 1 -2 1 0 0 Z " fill="#70CEE9" transform="translate(290,138)"/>
<path d="M0 0 C3.13837611 -0.3077917 4.59343628 -0.27813784 7.23828125 1.53125 C7.92277344 2.1809375 8.60726562 2.830625 9.3125 3.5 C10.00988281 4.1496875 10.70726562 4.799375 11.42578125 5.46875 C11.94527344 5.9740625 12.46476563 6.479375 13 7 C10 7 10 7 7 6 C7 5.34 7 4.68 7 4 C6.401875 3.896875 5.80375 3.79375 5.1875 3.6875 C2.71756736 2.91123545 1.67748765 1.92911079 0 0 Z " fill="#1CA8A3" transform="translate(199,364)"/>
<path d="M0 0 C0.66 0.33 1.32 0.66 2 1 C1.0625 3.4375 1.0625 3.4375 -1 6 C-3.98877701 6.7524935 -6.92545953 6.92909865 -10 7 C-6.98387254 3.79017628 -3.91966781 1.99546725 0 0 Z " fill="#D0949A" transform="translate(94,131)"/>
<path d="M0 0 C-3.28804981 2.91227269 -5.59885603 4.49701212 -10 5 C-10 3.68 -10 2.36 -10 1 C-6.59437148 0.22157062 -3.49234244 -0.09978121 0 0 Z " fill="#69C5E4" transform="translate(248,423)"/>
<path d="M0 0 C0 0.66 0 1.32 0 2 C-0.99 2 -1.98 2 -3 2 C-3 2.66 -3 3.32 -3 4 C-3.639375 4.103125 -4.27875 4.20625 -4.9375 4.3125 C-5.618125 4.539375 -6.29875 4.76625 -7 5 C-7.33 5.99 -7.66 6.98 -8 8 C-9.65 8 -11.3 8 -13 8 C-10.83676753 5.68757908 -8.62352196 3.9843604 -5.9375 2.3125 C-5.24527344 1.87550781 -4.55304688 1.43851562 -3.83984375 0.98828125 C-2 0 -2 0 0 0 Z " fill="#4FB042" transform="translate(288,305)"/>
<path d="M0 0 C0.66 0.33 1.32 0.66 2 1 C1.01 1.33 0.02 1.66 -1 2 C-1 2.99 -1 3.98 -1 5 C-1.99 5 -2.98 5 -4 5 C-4 5.66 -4 6.32 -4 7 C-5.98 7.33 -7.96 7.66 -10 8 C-6.91367389 4.7373124 -4.06516496 1.97764782 0 0 Z " fill="#7EC4B1" transform="translate(208,349)"/>
<path d="M0 0 C3.63 1.98 7.26 3.96 11 6 C10.34 6.66 9.68 7.32 9 8 C7.68 7.34 6.36 6.68 5 6 C5 5.34 5 4.68 5 4 C3.35 4 1.7 4 0 4 C0 2.68 0 1.36 0 0 Z " fill="#E46F47" transform="translate(236,91)"/>
<path d="M0 0 C-0.33 2.31 -0.66 4.62 -1 7 C-3.91517292 5.92598892 -5.77810176 5.22189824 -8 3 C-2.25 0 -2.25 0 0 0 Z " fill="#5A9FC3" transform="translate(116,404)"/>
<path d="M0 0 C0.99 0.33 1.98 0.66 3 1 C-3.75 5 -3.75 5 -6 5 C-6.33 5.99 -6.66 6.98 -7 8 C-8.32 7.67 -9.64 7.34 -11 7 C-9.23754778 5.8000962 -7.46473019 4.61540483 -5.6875 3.4375 C-4.70136719 2.77621094 -3.71523438 2.11492187 -2.69921875 1.43359375 C-1.80847656 0.96050781 -0.91773438 0.48742187 0 0 Z " fill="#C5EECF" transform="translate(353,186)"/>
<path d="M0 0 C1.32 0.33 2.64 0.66 4 1 C4 2.65 4 4.3 4 6 C1.97954558 5.39816251 -0.02111039 4.72693904 -2 4 C-2.33 3.34 -2.66 2.68 -3 2 C-2.01 2 -1.02 2 0 2 C0 1.34 0 0.68 0 0 Z " fill="#338DAF" transform="translate(344,39)"/>
<path d="M0 0 C0.66 0.33 1.32 0.66 2 1 C0.02 2.98 -1.96 4.96 -4 7 C-4.99 6.67 -5.98 6.34 -7 6 C-6.67 5.34 -6.34 4.68 -6 4 C-5.34 4 -4.68 4 -4 4 C-3.67 3.01 -3.34 2.02 -3 1 C-2.01 0.67 -1.02 0.34 0 0 Z " fill="#B12F82" transform="translate(106,233)"/>
<path d="M0 0 C3.63 0 7.26 0 11 0 C8 3 8 3 5.5 3.375 C3 3 3 3 0 0 Z " fill="#89C9DD" transform="translate(186,452)"/>
<path d="M0 0 C-0.99 1.485 -0.99 1.485 -2 3 C-1.34 3.33 -0.68 3.66 0 4 C0 4.66 0 5.32 0 6 C-1.875 5.8125 -1.875 5.8125 -4 5 C-5.25 2.4375 -5.25 2.4375 -6 0 C-2.25 -1.125 -2.25 -1.125 0 0 Z " fill="#6E5674" transform="translate(36,359)"/>
<path d="M0 0 C2.25 0.25 2.25 0.25 4 1 C0.50912907 5.0042343 -1.64951939 6.62671065 -7 7 C-6 6 -5 5 -4 4 C-3.360625 3.2575 -2.72125 2.515 -2.0625 1.75 C-1.381875 1.1725 -0.70125 0.595 0 0 Z " fill="#663275" transform="translate(68,335)"/>
<path d="M0 0 C0.66 0.33 1.32 0.66 2 1 C1.67 1.99 1.34 2.98 1 4 C-1.06640625 4.73046875 -1.06640625 4.73046875 -3.5625 5.1875 C-4.38878906 5.34605469 -5.21507813 5.50460938 -6.06640625 5.66796875 C-7.02353516 5.83232422 -7.02353516 5.83232422 -8 6 C-5.54460659 3.45154504 -3.16995003 1.6256154 0 0 Z " fill="#E098A1" transform="translate(120,116)"/>
<path d="M0 0 C1.48199902 0.44909061 2.96055236 0.90956564 4.4375 1.375 C5.26121094 1.63023438 6.08492187 1.88546875 6.93359375 2.1484375 C9 3 9 3 10 5 C8.02 5 6.04 5 4 5 C4 4.34 4 3.68 4 3 C2.68 3 1.36 3 0 3 C0 2.01 0 1.02 0 0 Z " fill="#EA9472" transform="translate(213,78)"/>
<path d="M0 0 C-1.45537568 0.83848804 -2.91440373 1.67063934 -4.375 2.5 C-5.59316406 3.19609375 -5.59316406 3.19609375 -6.8359375 3.90625 C-9 5 -9 5 -11 5 C-11 4.34 -11 3.68 -11 3 C-4.03571429 -1.41964286 -4.03571429 -1.41964286 0 0 Z " fill="#90C948" transform="translate(328,282)"/>
<path d="M0 0 C-0.1875 1.8125 -0.1875 1.8125 -1 4 C-3.4375 5.8125 -3.4375 5.8125 -6 7 C-6.66 6.67 -7.32 6.34 -8 6 C-7.01 5.67 -6.02 5.34 -5 5 C-4.6278958 3.67696283 -4.29369827 2.34262065 -4 1 C-2 0 -2 0 0 0 Z " fill="#C365A0" transform="translate(62,258)"/>
<path d="M0 0 C1.32 0.33 2.64 0.66 4 1 C-0.95 3.475 -0.95 3.475 -6 6 C-5.67 4.68 -5.34 3.36 -5 2 C-3.35 2 -1.7 2 0 2 C0 1.34 0 0.68 0 0 Z " fill="#E78A4A" transform="translate(334,71)"/>
<path d="M0 0 C-1.32 1.32 -2.64 2.64 -4 4 C-4.99 3.67 -5.98 3.34 -7 3 C-6.67 2.01 -6.34 1.02 -6 0 C-3.50907189 -1.24546405 -2.58919267 -0.7767578 0 0 Z " fill="#9C343A" transform="translate(52,160)"/>
<path d="M0 0 C0 1.65 0 3.3 0 5 C-0.33 4.34 -0.66 3.68 -1 3 C-3.64 3.66 -6.28 4.32 -9 5 C-6.45523312 2.20075644 -3.92372883 0 0 0 Z " fill="#48BCDA" transform="translate(305,132)"/>
<path d="M0 0 C-4.95 2.475 -4.95 2.475 -10 5 C-10 4.34 -10 3.68 -10 3 C-9.34 3 -8.68 3 -8 3 C-8 2.01 -8 1.02 -8 0 C-4.63458162 -1.08174162 -3.70152678 -0.92538169 0 0 Z " fill="#E1693C" transform="translate(250,132)"/>
<path d="M0 0 C2.64 0.33 5.28 0.66 8 1 C8 2.32 8 3.64 8 5 C4.62496331 3.8141763 2.35277269 2.72426311 0 0 Z " fill="#7BB5D3" transform="translate(157,435)"/>
<path d="M0 0 C1.98 0 3.96 0 6 0 C6.66 1.65 7.32 3.3 8 5 C4.62496331 3.8141763 2.35277269 2.72426311 0 0 Z " fill="#6DB4CD" transform="translate(140,425)"/>
<path d="M0 0 C0.66 0.33 1.32 0.66 2 1 C0.875 3 0.875 3 -1 5 C-4.1875 5.25 -4.1875 5.25 -7 5 C-4.702779 3.25728062 -2.40133271 1.60088848 0 0 Z " fill="#56B445" transform="translate(317,287)"/>
<path d="M0 0 C0.66 0.33 1.32 0.66 2 1 C-2.296875 5.00390625 -2.296875 5.00390625 -4 6 C-6.203125 5.65234375 -6.203125 5.65234375 -8 5 C-6.71475739 4.13619741 -5.42157581 3.28419631 -4.125 2.4375 C-3.04605469 1.72400391 -3.04605469 1.72400391 -1.9453125 0.99609375 C-1.30335937 0.66738281 -0.66140625 0.33867187 0 0 Z " fill="#E3ABCE" transform="translate(89,241)"/>
<path d="M0 0 C-0.33 1.65 -0.66 3.3 -1 5 C-2.65 4.67 -4.3 4.34 -6 4 C-6 3.34 -6 2.68 -6 2 C-2.25 0 -2.25 0 0 0 Z " fill="#53B560" transform="translate(308,215)"/>
<path d="M0 0 C0 0.66 0 1.32 0 2 C-1.65 2.33 -3.3 2.66 -5 3 C-5.33 3.99 -5.66 4.98 -6 6 C-7.32 5.67 -8.64 5.34 -10 5 C-8.71186658 4.16121545 -7.41936744 3.32913217 -6.125 2.5 C-5.40570313 2.0359375 -4.68640625 1.571875 -3.9453125 1.09375 C-2 0 -2 0 0 0 Z " fill="#DAABAD" transform="translate(65,149)"/>
<path d="M0 0 C0 0.99 0 1.98 0 3 C-2.97 3.66 -5.94 4.32 -9 5 C-4 0 -4 0 0 0 Z " fill="#DD9FA3" transform="translate(112,122)"/>
<path d="M0 0 C2.97 0.495 2.97 0.495 6 1 C6 1.66 6 2.32 6 3 C6.99 3.33 7.98 3.66 9 4 C8.01 4.495 8.01 4.495 7 5 C4.375 4.0625 4.375 4.0625 2 3 C2 2.34 2 1.68 2 1 C1.34 0.67 0.68 0.34 0 0 Z " fill="#369B51" transform="translate(274,313)"/>
<path d="M0 0 C-0.66 1.32 -1.32 2.64 -2 4 C-3.65 4 -5.3 4 -7 4 C-6.67 3.01 -6.34 2.02 -6 1 C-4 0 -4 0 0 0 Z " fill="#C566A0" transform="translate(83,247)"/>
<path d="M0 0 C-3.96 1.98 -3.96 1.98 -8 4 C-7.67 2.68 -7.34 1.36 -7 0 C-3.98968256 -0.93423645 -3.13349732 -1.04449911 0 0 Z " fill="#90CC47" transform="translate(283,308)"/>
<path d="M0 0 C0.33 1.32 0.66 2.64 1 4 C1.66 4 2.32 4 3 4 C3 4.66 3 5.32 3 6 C0.97954558 5.39816251 -1.02111039 4.72693904 -3 4 C-3.33 3.34 -3.66 2.68 -4 2 C-2.68 2 -1.36 2 0 2 C0 1.34 0 0.68 0 0 Z " fill="#D38ABA" transform="translate(95,288)"/>
<path d="M0 0 C1.32 0.33 2.64 0.66 4 1 C1.75 3.0625 1.75 3.0625 -1 5 C-3.3125 4.75 -3.3125 4.75 -5 4 C-4.360625 3.71125 -3.72125 3.4225 -3.0625 3.125 C-0.84793921 2.17176549 -0.84793921 2.17176549 0 0 Z " fill="#50B544" transform="translate(328,280)"/>
<path d="M0 0 C0.66 0.33 1.32 0.66 2 1 C2 1.99 2 2.98 2 4 C3.43750191 5.68798827 3.43750191 5.68798827 5 7 C3.02 6.34 1.04 5.68 -1 5 C-1 1 -1 1 0 0 Z " fill="#EFD1E4" transform="translate(51,263)"/>
<path d="M0 0 C2.475 0.495 2.475 0.495 5 1 C5.33 1.99 5.66 2.98 6 4 C4.35 4.33 2.7 4.66 1 5 C0.67 3.35 0.34 1.7 0 0 Z " fill="#B8D06A" transform="translate(295,231)"/>
</svg>
