<?xml version="1.0" encoding="UTF-8"?>
<svg version="1.1" xmlns="http://www.w3.org/2000/svg" width="225" height="225">
<path d="M0 0 C4.80086399 3.46108799 9.31551575 8.03796774 10.6875 13.9375 C11.43302047 21.86712685 10.27318092 27.01439792 5.875 33.6875 C0.62448488 39.08802983 -6.57938752 40.11600713 -13.65625 41.77734375 C-22.07842405 44.44976436 -27.64206111 50.33645731 -31.6875 58 C-34.43943946 64.76422094 -34.53896033 72.63237396 -32.546875 79.625 C-31.60249365 81.84354666 -30.54713089 83.86842893 -29.3125 85.9375 C-28.69375 87.05125 -28.075 88.165 -27.4375 89.3125 C-24.82524269 92.53940609 -23.29968512 93.70509733 -19.3125 94.9375 C-9.2944569 95.61944135 -1.18580604 91.28192571 6.875 85.75 C10.30896248 82.31603752 13.30178509 78.62364579 16.33203125 74.83203125 C18.54092002 72.11762565 20.82713081 69.52031236 23.1875 66.9375 C26.18819028 63.64808351 29.03762596 60.29408354 31.8125 56.8125 C38.02783018 49.14620424 44.85643574 42.05311875 51.6875 34.9375 C52.2767627 34.31955566 52.86602539 33.70161133 53.47314453 33.06494141 C68.75489977 17.09704882 86.84558067 4.5297474 109.6875 3.5625 C126.26433593 4.23965833 140.46540379 10.9486243 152.6875 21.9375 C153.62142578 22.73220703 153.62142578 22.73220703 154.57421875 23.54296875 C164.43186163 32.51453137 169.14880075 44.43814598 172.6875 56.9375 C172.95469849 57.86985474 172.95469849 57.86985474 173.22729492 58.82104492 C177.23939439 77.2724456 172.64479124 96.30124215 162.6875 111.9375 C162.21441406 112.68773437 161.74132812 113.43796875 161.25390625 114.2109375 C157.16183208 120.17715946 152.78670758 124.11150198 145.56640625 125.56640625 C136.85442981 126.52321291 130.91729796 125.59888706 123.9375 120.3125 C118.82718266 115.56469945 116.52076044 109.86071691 116.1875 102.9375 C116.58207425 95.21341022 119.27297341 89.91177841 124.9375 84.6875 C127.79252782 82.30127806 130.63688493 80.32105128 133.875 78.5 C140.00016243 74.89336743 143.38091689 68.49305201 145.6875 61.9375 C147.65329158 53.29909191 145.95074602 46.05525688 142.6875 37.9375 C140.97057723 34.64094556 140.97057723 34.64094556 137.5625 34.125 C127.49903828 33.6380583 118.39531083 38.3205368 110.9375 44.8125 C101.58637638 53.64820736 92.92946749 63.20488425 84.90234375 73.25 C81.51149686 77.36446677 77.87921857 81.24516211 74.25390625 85.15234375 C72.12383815 87.46397016 70.04798242 89.8036298 68 92.1875 C53.85745971 108.35991078 35.29544726 123.48077 13.25 125.8125 C-4.60749107 126.66488621 -19.03594489 120.07269943 -32.4375 108.75 C-44.17201286 97.87056017 -50.97234857 82.02886919 -51.68359375 66.1171875 C-51.92287545 53.76986257 -51.63390134 43.28419175 -46.3125 31.9375 C-45.86648437 30.96039063 -45.42046875 29.98328125 -44.9609375 28.9765625 C-38.83560816 16.76012354 -29.68236917 6.80724206 -17.875 -0.0625 C-11.8159703 -1.76328027 -6.01615931 -1.92971148 0 0 Z " fill="#4D3185" transform="translate(51.3125,50.0625)"/>
<path d="M0 0 C5.82523028 4.66201606 8.86427018 11.14689643 11.484375 17.98828125 C12.144375 17.32828125 12.804375 16.66828125 13.484375 15.98828125 C18.24987963 32.59286059 14.26983235 51.05179646 6.546875 65.98828125 C5.5536105 67.67152339 4.53419295 69.33971802 3.484375 70.98828125 C3.01128906 71.73851562 2.53820312 72.48875 2.05078125 73.26171875 C-2.04129292 79.22794071 -6.41641742 83.16228323 -13.63671875 84.6171875 C-22.34869519 85.57399416 -28.28582704 84.64966831 -35.265625 79.36328125 C-40.37594234 74.6154807 -42.68236456 68.91149816 -43.015625 61.98828125 C-42.62105075 54.26419147 -39.93015159 48.96255966 -34.265625 43.73828125 C-31.41059718 41.35205931 -28.56624007 39.37183253 -25.328125 37.55078125 C-19.20296257 33.94414868 -15.82220811 27.54383326 -13.515625 20.98828125 C-11.54983342 12.34987316 -13.25237898 5.10603813 -16.515625 -3.01171875 C-18.23482166 -6.34801961 -18.23482166 -6.34801961 -21.765625 -6.69921875 C-25.04324335 -6.97235361 -28.22961249 -7.0918654 -31.515625 -7.01171875 C-31.515625 -7.34171875 -31.515625 -7.67171875 -31.515625 -8.01171875 C-19.3488518 -11.05341205 -10.10880379 -6.66781267 0 0 Z " fill="#14B8E3" transform="translate(210.515625,91.01171875)"/>
<path d="M0 0 C4.80086399 3.46108799 9.31551575 8.03796774 10.6875 13.9375 C11.43302047 21.86712685 10.27318092 27.01439792 5.875 33.6875 C0.62448488 39.08802983 -6.57938752 40.11600713 -13.65625 41.77734375 C-22.07842405 44.44976436 -27.64206111 50.33645731 -31.6875 58 C-34.43943946 64.76422094 -34.53896033 72.63237396 -32.546875 79.625 C-31.60249365 81.84354666 -30.54713089 83.86842893 -29.3125 85.9375 C-28.69375 87.05125 -28.075 88.165 -27.4375 89.3125 C-24.90679843 92.43866076 -23.04560589 93.46090765 -19.3125 94.9375 C-15.6447127 95.08719648 -15.6447127 95.08719648 -11.9375 94.625 C-10.69226562 94.50511719 -9.44703125 94.38523437 -8.1640625 94.26171875 C-6.75253906 94.10123047 -6.75253906 94.10123047 -5.3125 93.9375 C-8.42362632 97.04862632 -11.66194358 97.10393864 -15.9375 97.1875 C-26.81760468 97.01201444 -35.6817014 92.71411609 -43.2734375 84.92578125 C-44.6722818 83.30693092 -46.00136673 81.62817185 -47.3125 79.9375 C-48.3025 80.4325 -48.3025 80.4325 -49.3125 80.9375 C-53.46912102 64.9453597 -53.38757892 47.02351484 -46.3125 31.9375 C-45.86648437 30.96039063 -45.42046875 29.98328125 -44.9609375 28.9765625 C-38.83560816 16.76012354 -29.68236917 6.80724206 -17.875 -0.0625 C-11.8159703 -1.76328027 -6.01615931 -1.92971148 0 0 Z " fill="#20BAE3" transform="translate(51.3125,50.0625)"/>
<path d="M0 0 C0.88336837 2.4667645 1.1312406 3.63859372 0.22265625 6.140625 C-0.16019531 6.83671875 -0.54304687 7.5328125 -0.9375 8.25 C-1.31777344 8.95640625 -1.69804687 9.6628125 -2.08984375 10.390625 C-2.39019531 10.92171875 -2.69054687 11.4528125 -3 12 C-3.66 12 -4.32 12 -5 12 C-4.54194902 15.7407497 -3.94360193 19.19112678 -2.875 22.8125 C-2 26 -2 26 -3 28 C-5.97716303 22.29377085 -6.90750883 17.42086892 -6 11 C-4.64191573 6.80460353 -3.13820867 3.13820867 0 0 Z " fill="#5ACAE0" transform="translate(174,137)"/>
<path d="M0 0 C2.49295743 2.42370862 4.81868111 4.75219752 6.875 7.5625 C9.60138669 10.6898259 12.32907021 12.0939403 16 14 C16 14.33 16 14.66 16 15 C11.25 15.125 11.25 15.125 9 14 C7.68 14 6.36 14 5 14 C4.35089846 12.41800369 3.70585306 10.83434276 3.0625 9.25 C2.70285156 8.36828125 2.34320313 7.4865625 1.97265625 6.578125 C1.14643424 4.38813896 0.50630057 2.28101729 0 0 Z " fill="#3B368B" transform="translate(3,128)"/>
<path d="M0 0 C3.63960184 5.45940276 5.5073946 11.40387016 5 18 C1.97420688 16.48710344 1.39086092 14.06563644 -0.0625 11.0625 C-0.58972656 9.98097656 -1.11695313 8.89945313 -1.66015625 7.78515625 C-2.10230469 6.86605469 -2.54445312 5.94695312 -3 5 C-3.33 4.34 -3.66 3.68 -4 3 C-2.68 3.33 -1.36 3.66 0 4 C0 2.68 0 1.36 0 0 Z " fill="#52579A" transform="translate(218,92)"/>
<path d="M0 0 C-0.99 0.495 -0.99 0.495 -2 1 C-4.0088485 0.01789629 -6.00787329 -0.98440599 -8 -2 C-10.36195411 -2.60602665 -10.36195411 -2.60602665 -13 -3 C-14.47967392 -3.35204138 -15.958792 -3.70642316 -17.4375 -4.0625 C-21.02509123 -4.87240772 -24.30661134 -5.18940455 -28 -5 C-28 -5.33 -28 -5.66 -28 -6 C-17.43816451 -8.64045887 -8.91746178 -5.94497452 0 0 Z " fill="#669CC7" transform="translate(207,89)"/>
<path d="M0 0 C0 3.84723602 -1.29832817 6.59665634 -3 10 C-4.32 10 -5.64 10 -7 10 C-7.33 10.99 -7.66 11.98 -8 13 C-8.99 13.495 -8.99 13.495 -10 14 C-10.33 14.99 -10.66 15.98 -11 17 C-13.0625 17.6875 -13.0625 17.6875 -15 18 C-10.43492321 11.59099023 -5.33082532 5.7809839 0 0 Z " fill="#7F6E9E" transform="translate(98,90)"/>
<path d="M0 0 C0.33 0 0.66 0 1 0 C1.27561917 2.26786642 1.51971457 4.53958279 1.75 6.8125 C1.88921875 8.07707031 2.0284375 9.34164062 2.171875 10.64453125 C2 14 2 14 0.015625 15.94921875 C-0.64953125 16.29597656 -1.3146875 16.64273438 -2 17 C-2.22084624 10.90218999 -2.01167675 5.78357065 0 0 Z " fill="#51CAE5" transform="translate(2,90)"/>
<path d="M0 0 C1.25425781 0.00902344 2.50851563 0.01804688 3.80078125 0.02734375 C4.75339844 0.03894531 5.70601562 0.05054688 6.6875 0.0625 C3.96717714 2.78282286 2.10705477 2.52257896 -1.6875 2.8125 C-3.40066406 2.95945313 -3.40066406 2.95945313 -5.1484375 3.109375 C-8.24770922 3.06345986 -9.74245545 2.70834134 -12.3125 1.0625 C-8.15623632 0.05323521 -4.26884906 -0.03989579 0 0 Z " fill="#57C6E1" transform="translate(195.3125,172.9375)"/>
<path d="M0 0 C3.37331354 2.24887569 3.8358179 3.2387963 5 7 C5 8.32 5 9.64 5 11 C6.32 11.33 7.64 11.66 9 12 C8.67 13.65 8.34 15.3 8 17 C5.15676575 14.53197261 3.84119176 11.91545546 2.3125 8.5 C1.87550781 7.5409375 1.43851562 6.581875 0.98828125 5.59375 C0 3 0 3 0 0 Z " fill="#6D5F9A" transform="translate(3,131)"/>
<path d="M0 0 C1.32 0 2.64 0 4 0 C4 0.66 4 1.32 4 2 C7.13498292 3.85776765 9.37471432 4.20140476 13 4 C13.33 5.65 13.66 7.3 14 9 C10.40241608 7.67726488 7.36262865 6.0805802 4.1875 3.9375 C3.39730469 3.41027344 2.60710937 2.88304688 1.79296875 2.33984375 C1.20128906 1.89769531 0.60960937 1.45554687 0 1 C0 0.67 0 0.34 0 0 Z " fill="#383D8A" transform="translate(204,87)"/>
<path d="M0 0 C5.95865187 5.80586592 5.95865187 5.80586592 6.09765625 9.8203125 C6.08605469 10.91085938 6.07445312 12.00140625 6.0625 13.125 C6.05347656 14.22070312 6.04445313 15.31640625 6.03515625 16.4453125 C6.02355469 17.28835937 6.01195312 18.13140625 6 19 C5.67 19 5.34 19 5 19 C4.97421875 18.33613281 4.9484375 17.67226562 4.921875 16.98828125 C4.55537173 11.28249169 3.95464527 8.33735287 0 4 C0 2.68 0 1.36 0 0 Z " fill="#76CFE2" transform="translate(55,54)"/>
<path d="M0 0 C2 1.375 2 1.375 4 3 C4 3.66 4 4.32 4 5 C4.99 5.33 5.98 5.66 7 6 C5 7 5 7 2.87109375 6.29296875 C2.06800781 5.92816406 1.26492187 5.56335938 0.4375 5.1875 C-0.36816406 4.83042969 -1.17382812 4.47335938 -2.00390625 4.10546875 C-4 3 -4 3 -5 1 C-2.525 1.495 -2.525 1.495 0 2 C0 1.34 0 0.68 0 0 Z " fill="#389ECE" transform="translate(21,139)"/>
<path d="M0 0 C1.40253926 4.20761779 -0.09397469 6.11735584 -2 10 C-2.66 10.66 -3.32 11.32 -4 12 C-4.99 11.67 -5.98 11.34 -7 11 C-6.57847656 10.37351562 -6.15695313 9.74703125 -5.72265625 9.1015625 C-4.90087891 7.87566406 -4.90087891 7.87566406 -4.0625 6.625 C-3.24458984 5.40683594 -3.24458984 5.40683594 -2.41015625 4.1640625 C-0.98906121 2.07280816 -0.98906121 2.07280816 0 0 Z " fill="#7DD7EA" transform="translate(196,115)"/>
<path d="M0 0 C0.99 0.33 1.98 0.66 3 1 C2.06725891 2.12894876 1.12859878 3.25300876 0.1875 4.375 C-0.33457031 5.00148438 -0.85664063 5.62796875 -1.39453125 6.2734375 C-3 8 -3 8 -6 10 C-5.67 8.35 -5.34 6.7 -5 5 C-4.34 5 -3.68 5 -3 5 C-2.67 4.01 -2.34 3.02 -2 2 C-1.34 1.34 -0.68 0.68 0 0 Z " fill="#8673A6" transform="translate(158,94)"/>
<path d="M0 0 C0.83007361 2.59398004 0.98958542 4.55197273 0.9375 7.3125 C1.00345811 11.20402878 1.90792079 14.28693068 3 18 C2.67 18.66 2.34 19.32 2 20 C-0.99801348 14.25380749 -1.58677182 9.45448997 -1 3 C-0.67 2.01 -0.34 1.02 0 0 Z " fill="#A1E6EF" transform="translate(169,145)"/>
<path d="M0 0 C0 0.99 0 1.98 0 3 C-2.5 5.1875 -2.5 5.1875 -5 7 C-5 6.34 -5 5.68 -5 5 C-5.66 5 -6.32 5 -7 5 C-6.67 3.68 -6.34 2.36 -6 1 C-5.38125 1.20625 -4.7625 1.4125 -4.125 1.625 C-3.073125 1.810625 -3.073125 1.810625 -2 2 C-1.34 1.34 -0.68 0.68 0 0 Z " fill="#816CAC" transform="translate(121,138)"/>
<path d="M0 0 C1.485 0.99 1.485 0.99 3 2 C3.66 1.67 4.32 1.34 5 1 C5.33 4.3 5.66 7.6 6 11 C3.46166551 9.73083275 3.10599099 8.58375191 1.875 6.0625 C1.52179688 5.35222656 1.16859375 4.64195313 0.8046875 3.91015625 C0 2 0 2 0 0 Z " fill="#438DC0" transform="translate(217,99)"/>
<path d="M0 0 C1.8125 0.1875 1.8125 0.1875 4 1 C5.8125 3.4375 5.8125 3.4375 7 6 C6.67 6.66 6.34 7.32 6 8 C5.01 8 4.02 8 3 8 C2.87625 7.360625 2.7525 6.72125 2.625 6.0625 C2.315625 5.0415625 2.315625 5.0415625 2 4 C1.34 3.67 0.68 3.34 0 3 C0 2.01 0 1.02 0 0 Z " fill="#6B5B98" transform="translate(211,84)"/>
<path d="M0 0 C0 3.7794561 -1.04679411 5.79116175 -3 9 C-5.1875 9.875 -5.1875 9.875 -7 10 C-5.33248852 6.05860922 -2.77289351 3.2107188 0 0 Z " fill="#8270A7" transform="translate(82,108)"/>
<path d="M0 0 C0.66 0.33 1.32 0.66 2 1 C1.360625 1.78375 0.72125 2.5675 0.0625 3.375 C-1.98142313 5.79539281 -1.98142313 5.79539281 -3 8 C-5.5625 8.625 -5.5625 8.625 -8 9 C-7.04270084 7.87411986 -6.08412105 6.7493285 -5.125 5.625 C-4.59132813 4.99851562 -4.05765625 4.37203125 -3.5078125 3.7265625 C-2.38567993 2.44163349 -1.20628025 1.20628025 0 0 Z " fill="#9A89BA" transform="translate(116,72)"/>
<path d="M0 0 C0.33 0.66 0.66 1.32 1 2 C0.360625 2.598125 -0.27875 3.19625 -0.9375 3.8125 C-3.20310389 5.90810337 -3.20310389 5.90810337 -4 9 C-6.0625 9.6875 -6.0625 9.6875 -8 10 C-7.04367001 8.70684939 -6.08486149 7.41553147 -5.125 6.125 C-4.59132813 5.40570313 -4.05765625 4.68640625 -3.5078125 3.9453125 C-2 2 -2 2 0 0 Z " fill="#8E7EAE" transform="translate(91,98)"/>
<path d="M0 0 C0.33 1.32 0.66 2.64 1 4 C0.34 4.66 -0.32 5.32 -1 6 C-1.99 6 -2.98 6 -4 6 C-4 6.66 -4 7.32 -4 8 C-4.66 7.67 -5.32 7.34 -6 7 C-4.02 4.69 -2.04 2.38 0 0 Z " fill="#4FC2E2" transform="translate(19,62)"/>
<path d="M0 0 C0.66 0.33 1.32 0.66 2 1 C1.07347299 2.17539996 0.13336613 3.34010577 -0.8125 4.5 C-1.33457031 5.1496875 -1.85664063 5.799375 -2.39453125 6.46875 C-4 8 -4 8 -7 8 C-7 7.34 -7 6.68 -7 6 C-5.46875 4.4921875 -5.46875 4.4921875 -3.5 2.875 C-2.8503125 2.33617187 -2.200625 1.79734375 -1.53125 1.2421875 C-1.0259375 0.83226562 -0.520625 0.42234375 0 0 Z " fill="#70D1E6" transform="translate(27,54)"/>
<path d="M0 0 C0 0.99 0 1.98 0 3 C-4.34285714 7 -4.34285714 7 -7 7 C-7 6.34 -7 5.68 -7 5 C-6.34 5 -5.68 5 -5 5 C-4.67 4.01 -4.34 3.02 -4 2 C-1.9375 0.8125 -1.9375 0.8125 0 0 Z " fill="#71D0E4" transform="translate(209,166)"/>
<path d="M0 0 C1.32 0.66 2.64 1.32 4 2 C-0.455 3.485 -0.455 3.485 -5 5 C-4.67 4.01 -4.34 3.02 -4 2 C-2.68 2 -1.36 2 0 2 C0 1.34 0 0.68 0 0 Z " fill="#8574A8" transform="translate(83,167)"/>
<path d="M0 0 C2.25 -0.25 2.25 -0.25 5 0 C7.3125 2 7.3125 2 9 4 C8.01 4.495 8.01 4.495 7 5 C4.5249829 3.88568235 2.32116581 2.41849022 0 1 C0 0.67 0 0.34 0 0 Z " fill="#7A6BA4" transform="translate(28,165)"/>
<path d="M0 0 C2.475 0.495 2.475 0.495 5 1 C5.33 1.99 5.66 2.98 6 4 C6.66 4.33 7.32 4.66 8 5 C4.20411134 4.45773019 2.52788007 2.79872437 0 0 Z " fill="#81D7E9" transform="translate(175,169)"/>
<path d="M0 0 C1.32 0 2.64 0 4 0 C2.92598892 2.91517292 2.22189824 4.77810176 0 7 C0 4.69 0 2.38 0 0 Z " fill="#57C6E4" transform="translate(212,157)"/>
<path d="M0 0 C0.66 0.99 1.32 1.98 2 3 C0.02 4.32 -1.96 5.64 -4 7 C-4 4 -4 4 -2 1.8125 C-1.34 1.214375 -0.68 0.61625 0 0 Z " fill="#8171A7" transform="translate(74,118)"/>
<path d="M0 0 C0.99 0 1.98 0 3 0 C1.63016497 3.16115776 1.0109362 3.9927092 -2 6 C-1.125 1.125 -1.125 1.125 0 0 Z " fill="#7F6FA1" transform="translate(139,115)"/>
</svg>
